<?xml version="1.0" encoding="utf-8"?>
<!-- Generator: Adobe Illustrator 24.0.1, SVG Export Plug-In . SVG Version: 6.00 Build 0)  -->
<svg version="1.1"
	 id="svg8" inkscape:export-filename="appendages.png" inkscape:export-xdpi="12.1" inkscape:export-ydpi="12.1" inkscape:version="1.0 (4035a4fb49, 2020-05-01)" sodipodi:docname="appendages.svg" xmlns:cc="http://creativecommons.org/ns#" xmlns:dc="http://purl.org/dc/elements/1.1/" xmlns:inkscape="http://www.inkscape.org/namespaces/inkscape" xmlns:rdf="http://www.w3.org/1999/02/22-rdf-syntax-ns#" xmlns:sodipodi="http://sodipodi.sourceforge.net/DTD/sodipodi-0.dtd" xmlns:svg="http://www.w3.org/2000/svg"
	 xmlns="http://www.w3.org/2000/svg" xmlns:xlink="http://www.w3.org/1999/xlink" x="0px" y="0px" viewBox="0 0 595.3 595.3"
	 style="enable-background:new 0 0 595.3 595.3;" xml:space="preserve">
<style type="text/css">
	.st0{fill:#69C8BE;}
</style>
<sodipodi:namedview  bordercolor="#666666" borderopacity="1.0" id="base" inkscape:current-layer="layer1" inkscape:cx="571.15807" inkscape:cy="483.28284" inkscape:document-rotation="0" inkscape:document-units="mm" inkscape:pageopacity="0.0" inkscape:pageshadow="2" inkscape:snap-global="false" inkscape:window-height="1040" inkscape:window-maximized="0" inkscape:window-width="1255" inkscape:window-x="649" inkscape:window-y="0" inkscape:zoom="0.49497474" pagecolor="#ffffff" showgrid="false" showguides="false">
	</sodipodi:namedview>
<g id="layer1" inkscape:groupmode="layer" inkscape:label="Layer 1">
	<path id="path865" class="st0" d="M297.6,0C133.3,0,0,133.3,0,297.6C0,462,133.3,595.3,297.6,595.3c0,0,0,0,0,0
		c164.4,0,297.6-133.3,297.6-297.6c0,0,0,0,0,0C595.3,133.3,462,0,297.6,0C297.6,0,297.6,0,297.6,0z M336.1,37.8L336.1,37.8
		c1.9,0,3.1,0.3,4.6,1.1h0c9.4,6.3,14.7,13.7,18.2,23.7c2.5,6.2,4.8,13,6.1,18.6c4.8,18.2,7.8,31.4,11.1,47.5
		c0.6,4.2,1.4,7.1,2.3,10.9c1.6,6.6,2.5,13.3,1.4,19.1c-1.4,5.9-2.2,10.6-3.6,16.4c-2.5,10.7-6.1,20.7-9.3,31.2
		c-4.4,14.1-9,30.3-11.7,42c-0.6,2.6,1.6,6.6,1.3,9.3c0.2,8.3,0.5,16.8-0.1,18.4c-0.4,1.1-0.8,3.9-2.5,4.6c-0.6,0.2-1.1,0.4-2.1,0.4
		l0.3-3.1c-0.1-1-0.2-1.4-0.4-1.4c-0.2,0-0.5,0.5-1,1.1l-0.8,4c0,0,0,0,0,0c-0.3,0.8-0.7,1.7-1.3,2.4c-0.8,0.8-1.7,1.1-2.3,1.2
		c-0.2,0-0.4-0.1-0.6-0.1c0.2-1.2,0.3-2.9,0.5-4.6c0.5-3.3-0.7-1.8-1.5-0.3c-0.2,2.5-0.5,4.5-1.1,5.6c-0.5,0.6-0.9,0.9-1.7,1
		c-0.8,0.1-1.4,0-2.1-0.6l-0.3-4.7c0-1.7-0.7-3.6-1.9,0.2l-0.3,5.1l-0.1,0.9c0,1.8-0.9,3.2-2.7,3.2c-1.8,0-2.1-2.8-2.1-3.5
		c-0.2-2.4-0.4-2.9-0.4-6l0-2.2l-0.1-11.6c-1.8-2.8-2.8-3.7-1.8,0l-0.5,11.6c-1.2,0-1.6-0.4-2.3-1c-0.5-0.6-1-1.5-1-3.1
		c-0.1-1.5,0.3-3.3,0.2-4.8c0.2-4.2,0.3-6.1,0.3-8.6c0.3-3.3,3.6-8.1,6-11.1c1.6-1.8,3-3.6,4.6-6.5c1-2.5,1.8-3.3,2.9-6
		c2.1-5.1,1.5-5.6,2.9-9.5c2.1-7.2,4.2-19,4.8-23.6c0.7-5.8,1.3-21.5,3-30.7c0.9-8,1.7-16.3,7-21.7c1.9-2.1,1.4-2.4-1-1.1
		c-0.4,0.3-1,0.8-1.3,1.1c-1.8-7.6-5.9-14.7-8.3-21.1c-2.1-5.6-4.4-14.4-5.9-20.1c-0.1-0.5-1.2-4.3-1.8-8c-0.3-1.7-0.8-3.5-1.5-5.3
		c-1-2.8-3-6.3-4.8-8.5c-1.4-1.7-3.5-4.1-4.1-5c-0.9-1.2-2-2.7-3.3-6.8c-1.3-4-4.9-16.4-3.5-26.2c0.8-5.5,2.4-9.2,7.1-12.1
		C331.9,38.1,334.2,37.7,336.1,37.8z M240.1,43.6c0,1.1-0.1,2.1-0.2,2.9c-1.1,5.4-5.1,9.9-6.3,15.2c-2.6,11.4-2.3,23.4-2.1,35.1
		c0.1,9.3,1.8,22.3,2.9,31.2c-0.8,5.7-1.1,9.5-2.3,15.3c-0.8,3.8-2.8,7.3-3.7,11c-1.2,5.3-2.2,16.2-2.2,16.2l-0.2-0.2
		c-0.8,10.8-4,22.1-5.1,25.4c-3,8.2-6.7,18.8-8.4,25.8c-1.5,7.5-2.6,12.5-3.1,18.6c0.8,3.1,0.9,6.7,2.7,10.2
		c2.4,4.6,2.7,6.2,1.5,10.9c-0.6,2.5-1,3.7-1,7.1c0,0.9-0.7,1.6-1.6,1.8c-1,0.3-1.3,0.2-2.2-0.5c-0.7-0.7-0.8-1.9-1-2.8
		c-0.1-1,0-2.9-0.1-4.5c0-0.8-0.1-1.6-0.2-2.3c-0.1-0.8-0.7-1.9-1.6-2.6c-1.4-1-4-2.1-5.3-4.1c-0.3-0.4-0.6-0.5-0.8-0.6l0,0
		c-0.6-0.1-0.3,1.2,0.2,2.8c1.2,2.1,3.2,3.9,3.7,4.4c0.5,0.4,0.1,1.7,0.1,2.4c0,0.5-0.1,1.3-0.1,1.8c-0.7,0.4-2.2,0.6-3,0.6
		c-1.2,0.1-2.8,0.4-3.7,0.2c-1.9,0.2-3.7,1.2-0.5,2.1c1.6,0.3,2.4,1,3.9,0.9c-1.1,0.9-1.4,2.8-1.9,4.3c-0.5,3.4,0.6,3.5,2.1,0.8
		c0.5-1.4,2.1-2.4,3.6-3.1c0.3,0.6,0.1,0.5,0.9,1.3c1.5,1.8,3.3,2.2,3.3,2.2s-2.3,2.1-2.9,2.6c-2.7,2.2-2.4,2.7-5.8,3.4
		c-1.5,0.3-2.5,0.1-3.8-0.8c-5.5-5.1-7.4-5.8-8.8-8.6c-0.9-1.7-0.1-4,0.3-5.6c1-4.7,1.6-9.4,2.7-14.1c1.4-6.1,3.2-10.9,3.8-17.1
		c2.2-24.5,3.6-37,8.3-59.7c1.5-11.8,4.9-21.7,7.1-32.3c1.1-5.5,2.6-15,2.6-17.1c0-1.8,0.3-12.8,1.1-19.2c0.2-4.1,1.3-9.7,1.5-13.8
		c0.3-5.3,1.3-11.1,2-16.4c2.6-15.8,8.9-19.3,17.1-26.5C236,46,238.2,44.5,240.1,43.6z M323.4,176L323.4,176c1.1,0,2.6,0.4,3.8,0.9
		c1.1,0.9,2,1.8,2.5,2.5c2.9,6.2,6.1,11.5,8.3,19.2c2.2,7.4,2.2,15.7,2.4,22.4c-0.9,4.6-3.1,11-4.3,15.2c-0.8,2.4-2.2,4.3-3,6.5
		c-0.9,2.2-1.2,2.9-3.2,4.8c-2.7,2.6-6.5,8.2-6.4,13.4c0,2.9-1.2,5.5-1.4,9.3l0,0.2l0,0.2c0.1,0.8-0.3,3-0.2,4.8
		c0.1,1.8,0.6,3.9,2,5.7c0.9,1.2,2,1.8,3.1,2.1c0.3,0.1,0.1,0.5,0.4,0.5c0,1.8-0.3,3.4,0.5,5.5c1.1,2.6,2,3.8,3.6,4.6
		c1,0.5,1.9,0.5,2.7,0.6c0.8,0,1.5,0,2.3-0.2c2-0.5,2.7-1.3,3.8-3c0.9,0.1,2.1,0.2,2.8,0c1.2-0.3,2-0.5,3-1.2c0.4,0,0.7,0,1.1,0
		c0.3,5.6,0.7,17.8,0.9,23.4c0.5,11.1-0.6,12.6-0.6,23.8c0,6.4,0,12.9,0.6,19.3c0.5,5.7,1.7,11.3,2.3,17c0.5,5,0.8,8.9,2.2,13.8
		c1.4,4.9,4.3,8.5,6,13.3c3.5,6.3,5.9,21,6.5,28.6c1.5,17.5,1.1,23.4,1.9,36.8c0.9,14.1,0.4,38.3,0.9,50.7c0.1,1.8,1.9,3.6,2.5,5.3
		c0.8,2.3-0.6,3.7,0.1,6c0.9,2.9,6.3,9.7,7.8,12.2c4.3,7,4.4,4.5,8.7,11.5c1.4,2.3,3.5,4.2,5,6.5c1.8,2.8,0.3,4.6-1.2,4.5
		c0.6,1.1,0.4,2.2-0.4,3c-0.6,0.6-1.7,0.9-2.5,0.6c-0.1,0.7-0.7,1.7-1.4,2.1c-1.3,0.6-3.1,0.6-4.2-0.1c0,1,0,1.8-0.7,2.5
		c-1.2,1.2-3.8,0.5-5.2-0.4c-0.9-0.5-1.8-1.6-2.6-2.4l0,0c-0.7-0.8-1.8-1.2-1.5,0.6c0.2,2,0.3,4-3,5.7c-1.7,0.9-4.3,0.5-6-0.5
		c-1.9-1.1-2.2-3.9-3.9-5.2c-0.9-0.6-2.2-2-3-2.7c-2.7-2.6-2.7-6.6-3.5-11.8c-0.9-2.2-1.9-4.4-2.9-6.5c-2.1-4.8,1.7-7.6-0.3-13.7
		c-0.6-2.3-2.1-4.1-2.9-6.4c-1-2.7-0.3-6.1-0.3-9c0-3.3-0.7-6.5-0.9-9.8c-0.5-6.9-1.9-22.5-3.5-29.4c-1.7-7.3-6-16.3-8.4-23.4
		c-2.3-7-5.2-17.7-6-25.1c-1-8.9-1-12.2-2.8-20.9c-0.5-2.4-0.8-5.3-1.8-7.6c-2.3-5.4-5.4-8.8-7.3-14.4c-1.3-3.7-2.5-10.7-2.8-12.1
		c-0.3-1.4-0.8-5.5-1.5-8.1c-1.2-5-3.5-11.8-4.6-14.9c-1.1-3.1-4.3-11.4-6.9-21.5c-2.6-10-8.5-25.1-9.9-28
		c-1.4-2.8-5.5-14.3-7.1-18.5c-0.6-1.6-0.9-2.4-1.2-3.1c-1.1-3.7-3.8-12.8-3.9-18.2c-0.2-10.7,2.4-21.4,5.9-31.5
		c2.7-7.7,6.9-17.8,11-24.9c5.3-9.3,9.8-16.3,17.2-24c3-3.1,6.5-6.4,10.7-7C323.1,176,323.3,176,323.4,176z M234.7,182.3l3.3,18.1
		l5.8,25.3c1.1,4,6,15.5,10.7,24.3c2.3,4.3,5,9.2,7.5,12.4c3.3,4.4,9.7,10.8,10.6,12.6c3.3,7.9,2,15.8,2.3,24.1
		c-0.1,9.7-0.7,19.5-1.3,24.3c-0.5,4.8-0.8,10.8-2.3,20.6c-1,6.7-2.4,14-2.5,20.8c-0.1,4.9-2.4,8.9-2.5,13.8
		c-0.1,3.2,1.7,8.9,2.4,13.1c1,6.8,1.5,13.4,2.4,21.4c1,8.7,0.7,17.7-0.1,26.4c-0.8,8.7-3.8,28.9-4.5,31.9
		c-1.1,4.5-1.7,20.7-2.1,28.6c-0.3,6.1-0.1,8.4,0.7,14.4c0.5,3.5,1.6,7.2,2,10.8c0.5,4.1,0.6,9.6-0.7,11.2
		c-3.9,5.2-11.7,4.6-16.5,6.6c-4.4,2.4-4,3-7.9,6.2c-2.9,2.4-4.8,4.7-8.4,5.8c-3.6,1.1-8.1,0.9-11.8,1.9c-3.3,0.9-5.7,2.8-9.1,3.2
		c-3.4,0.4-7.1,0-8.1-2.9c-0.5-1.2-0.5-2,0-3c0.5-0.9,0.6-0.9-0.4-1.7c-0.3-0.5-0.5-1.1-0.2-2.1c0.2-0.5-1-0.3-1-1.8
		c0-1.3,1.5-2.2,2.5-3.1c1.9-1.7,4.3-2.7,6.5-4c1.9-1.1,3.9-2.1,5.7-3.4c3.7-2.7,7.2-5.8,10.5-9.1c4.5-4.6,7.4-7.3,10.9-12.7
		c2.2-3.4,1.8-4.5,2.3-7.4c1.2-7.1,0.8-14.4,0.9-21.6c0.2-17.2,0.1-42-1.3-59.1c-0.8-9.3-2.4-18.9-3.3-28.4c-1.2-4-1.7-6.7-4-10.1
		c-2.1-3.2-3.9-7.8-3.9-10.8c0-5.3-0.6-5.8,0.5-16.1c-1.4-6.2-2.5-13.2-3.6-19.3c-1.6-9.1-1.1-16.3-2.1-25.5
		c-1.8-16.6-2.2-36-1.6-52.6c0.4-10.3,2.2-31.3,2.2-32.7c0.7-11.7,5.2-26.3,5.8-33.6C231.5,195.2,234.2,185.1,234.7,182.3z"/>
</g>
</svg>
