<?xml version="1.0" encoding="utf-8"?>
<!-- Generator: Adobe Illustrator 25.3.1, SVG Export Plug-In . SVG Version: 6.00 Build 0)  -->
<svg version="1.1"
	 id="svg8" inkscape:export-filename="budding_yeast_black_nucleus.png" inkscape:export-xdpi="12.1" inkscape:export-ydpi="12.1" inkscape:version="1.0 (4035a4fb49, 2020-05-01)" sodipodi:docname="budding_yeast_black_nucleus.svg" xmlns:cc="http://creativecommons.org/ns#" xmlns:dc="http://purl.org/dc/elements/1.1/" xmlns:inkscape="http://www.inkscape.org/namespaces/inkscape" xmlns:rdf="http://www.w3.org/1999/02/22-rdf-syntax-ns#" xmlns:sodipodi="http://sodipodi.sourceforge.net/DTD/sodipodi-0.dtd" xmlns:svg="http://www.w3.org/2000/svg"
	 xmlns="http://www.w3.org/2000/svg" xmlns:xlink="http://www.w3.org/1999/xlink" x="0px" y="0px" viewBox="0 0 595.3 595.3"
	 style="enable-background:new 0 0 595.3 595.3;" xml:space="preserve">
<style type="text/css">
	.st0{stroke:#FFFFFF;stroke-width:15;stroke-miterlimit:10;}
</style>
<g>
	
		<sodipodi:namedview  bordercolor="#666666" borderopacity="1.0" id="base" inkscape:current-layer="layer1" inkscape:cx="517.32544" inkscape:cy="340.5611" inkscape:document-rotation="0" inkscape:document-units="mm" inkscape:guide-bbox="true" inkscape:pageopacity="0.0" inkscape:pageshadow="2" inkscape:snap-global="false" inkscape:window-height="1040" inkscape:window-maximized="0" inkscape:window-width="1417" inkscape:window-x="487" inkscape:window-y="0" inkscape:zoom="0.49497475" pagecolor="#ffffff" showgrid="false" showguides="true">
		</sodipodi:namedview>
	<g id="layer1" inkscape:groupmode="layer" inkscape:label="Layer 1">
		<path id="path863" class="st0" d="M499.3,13.4c-58.8,4-120.7,41-136.7,100.7C90.2-86.3-107.6,372.6,89,552.5
			c114.7,86.7,278.7-34.2,321.9-146.7c20.8-48.3,25.1-120.6,17.1-179.6c77.7,8.4,197.1-80.8,146-164.3
			C557.4,33.8,530.8,11.7,499.3,13.4z M495.3,69.6C435.9,63,387,182.4,469.6,177.8C531,182.1,570.9,76.3,495.3,69.6z M494.9,75.5
			 M241.5,242.4c-150.3-3.5-161.6,252.4-1,237.1C353.6,447,377,255.4,241.5,242.4z"/>
	</g>
</g>
</svg>
