<?xml version="1.0" encoding="utf-8"?>
<!-- Generator: Adobe Illustrator 24.0.1, SVG Export Plug-In . SVG Version: 6.00 Build 0)  -->
<svg version="1.1"
	 id="svg8" inkscape:export-filename="cardiovascular.png" inkscape:export-xdpi="12.0952" inkscape:export-ydpi="12.0952" inkscape:version="1.0 (4035a4fb49, 2020-05-01)" sodipodi:docname="cardiovascular.svg" xmlns:cc="http://creativecommons.org/ns#" xmlns:dc="http://purl.org/dc/elements/1.1/" xmlns:inkscape="http://www.inkscape.org/namespaces/inkscape" xmlns:rdf="http://www.w3.org/1999/02/22-rdf-syntax-ns#" xmlns:sodipodi="http://sodipodi.sourceforge.net/DTD/sodipodi-0.dtd" xmlns:svg="http://www.w3.org/2000/svg"
	 xmlns="http://www.w3.org/2000/svg" xmlns:xlink="http://www.w3.org/1999/xlink" x="0px" y="0px" viewBox="0 0 595.3 595.3"
	 style="enable-background:new 0 0 595.3 595.3;" xml:space="preserve">
<style type="text/css">
	.st0{fill:#69C8BE;}
</style>
<sodipodi:namedview  bordercolor="#666666" borderopacity="1.0" id="base" inkscape:current-layer="layer1" inkscape:cx="882.1876" inkscape:cy="573.34644" inkscape:document-rotation="0" inkscape:document-units="mm" inkscape:pageopacity="0.0" inkscape:pageshadow="2" inkscape:snap-global="false" inkscape:window-height="1040" inkscape:window-maximized="0" inkscape:window-width="1698" inkscape:window-x="182" inkscape:window-y="0" inkscape:zoom="0.35" pagecolor="#ffffff" showgrid="false">
	</sodipodi:namedview>
<g id="layer1" inkscape:groupmode="layer" inkscape:label="Layer 1">
	<path id="path844" class="st0" d="M297.5,0C133.2,0.1,0,133.3,0,297.6C0,462,133.3,595.3,297.6,595.3c0,0,0,0,0,0
		c164.4,0,297.6-133.3,297.6-297.6c0,0,0,0,0,0C595.3,133.3,462,0,297.6,0c0,0,0,0,0,0C297.6,0,297.5,0,297.5,0z M320.9,43.2
		c3.2,0.1,6.3,1.6,8.6,5.1c3.7,8.7,7.3,17.4,10.5,26.1c2.4,6.6,4.1,13.1,8.9,19.7c1.8,2.5,3.5,4.4,5.1,6.1l0,0l11.5,14.7
		c8.1,11.5,10.2,9.9,2.1-1.4l-5.6-8.1c-1.1-1.5-1.9-2.3-1.4-4.2c2.3-11.4,3.3-20,9.1-29.1l4.1-6.6c3.2-5.2,4.2-7.1,10.4-6.7
		c7.3,2.1,25.7,0,23.5,9.8c-0.1,2.7-0.4,4.7-1.7,8.1c-9,18.9-10.8,19.3-7.3,39.8c1,8.7,1.2,16,5.9,23.1c2.7,5.1,6.6,10,10.3,14.1
		c2.4,2.6,3.5,3.4,0.4,6.4c-3.1,3.9-5.2,7.8-8.2,11.6c-1.6,1.9-3.4,3-4.9,3.5c-1.4,0.5-3.4,0.7-6.3,0.5h-0.1h-0.1
		c-9.5,0.6-19,1.7-28.6,3.5h0c-24.9,4.9-51.1,15.4-72.2,33.1c-12,9.4-23.1,19.7-32.6,29.7c-26.8,29.6-14.6,19.3,3.1,1.5
		c9.5-9.4,20.5-18.9,32.1-28l0,0l0,0c20.5-17.1,46.1-27.5,70.4-32.2c9.4-1.8,18.7-2.9,28-3.4c3,0.1,5.4,0,7.7-0.8
		c2.3-0.8,4.9-2.5,6.7-4.8c4.7-5.9,8.7-13.1,15.6-18.9l5.2-3.7c3.3-3,5.8-9.9,10.1-7.3c8.2,4.6,9.3,12.1,11.5,19.3
		c1.1,3.5,3.4,5.9-0.1,9.2l-2.3,3.2c-1.6,4.6-2.4,8.9,0,12.3c1.3,2.3,2.6,2.8,3.8,3.2c15.2,2.4,19.3,8.7,21,19.3
		c0.7,5.8-1.2,7.6-1.7,10.3c-0.8,5.8,2.5,6.9-2.3,18.1c-2.5,5.1-5.4,9.3-8.3,13.3c-7.3,10.2-9.2,12.5-19.8,7.9
		c-10.6-4.6-35.3-9.6-50.8-11.5l-0.1,0H392c-7,0.2-13.1,1.5-18.4,3.8l-0.1,0l-0.1,0c-8.5,4.6-15.9,13.8-21.7,24.1l-38.2,64.6
		c-4.6,8.7-11.4,20.6,3.1,1.8l18.6-31.4c0.8-1.5,3.2-5.3,4.5-1.6c1.4,2.8,2.4,5.4,1.8,7.3c-0.4,1.4-1.4,2.3-3.1,3.1
		c-1.7,0.8-3.2,1.6-4.5,3.1c-1.6,1.8-3,4.7-4.3,7.2c-1.1,2.4-2.3,4.8-3.6,6.9c-4.8,8.2-3.2,6.1,0.4,0.5c1.7-2.5,3-4.6,4.1-6.8
		c1.3-2.5,3-5.3,4.3-6.8c1-1.2,3.1-1.9,4.9-2.8c1.8-0.9,3.6-1.9,4.2-4c0.8-2.7-0.6-6.2-2.1-9.1c-1.3-2.5-1.5-4,0.4-6.7
		c1.9-1.8,2.6-1.5,3.9,1.1c1.7,2.8,3.5,6,4.4,8.3c3.6,9.3,4.1,19.6,6.5,29.5c2.2,9.2,3.4,18.8,7.3,27.6c4.1,9.4,12.8,16.1,15.9,25.2
		c1.4,4.3,2.4,11.3,2.6,17.2c0.2,5.9-0.1,10.7-0.1,10.7c-0.2,4.6-2.1,24.5,0.8,0.1c0,0,0.7-4.8,0.5-10.8c-0.2-6-0.6-13-2.1-17.6
		c-3.2-9.7-11.6-16.5-15.4-25.4c-3.7-8.6-4.8-18.1-7.1-27.3c-2.3-9.7-2.7-20.1-6.4-29.7c-1.4-3.7-4.6-9.7-6.7-13.4
		c0.5-2.2,1.1-3.9,2.1-4.9c2.4-1.7,3-0.9,4.2,1.9c8,14.6,19.9,29.7,31.3,42c6.7,7.3,13.2,13.7,18.5,18.5c3.1,2.8,5.8,5,7.9,6.6
		c3.3,2.4,3.8,3,2,7.6c-4.8,16.7-10.5,33.3-17.8,50c-26,56.8-32.8,68.4-51.1,94.8c-9.4,13.5-24,22.3-36.8,28.7
		c-11.2,5.6-23.9,10.3-37.6,9c-21.3-0.7-25.1-7.1-33.4-12.1c-27.6-26.5-49.2-62.5-67.4-102.2c-13.7-29.9-17.7-45.4-20.2-58.6
		c-2.6-13.5-3.5-8,7.1-14c7.7-6,13.6-17.5,19.7-23.8c11-11.4,17.7-15.5,25.1-23.3c8.8-9.2,19-26.7,20.6-39.1
		c1.3-10.5,0.7-17.6-1.3-24.1c-2.1-6.5-5.5-12.1-8.9-19.4c-5.8-12.6-15.5-23.3-26.1-32c-4.2-3.5-9.4-6.5-14.3-8
		c-2.4-0.8-4.8-1.2-7-1.1c-2.4,0.3-2.8,0.5-1.1-1.9c2.9-8.9,2.6-23.1,0.2-44.4l-4.2-32.1c-0.7-6.2-1.7-9.2,3.2-13.8
		c6.1-5.8,12.8-8.9,19-10.7c2.8-0.7,15,3.4,10.6,9.2c-4.1,8.7-6.2,17.5-7.9,26.1v0c-1.8,9.4-3.1,17.1-5.7,22.2
		c-1.7,4.2-8.1,9.1-7.6,10c0.8,0.9,8.2-6.3,9.6-9.1c2.6-5.5,4.9-12.9,6.8-22.5v0c2.1-9.9,4.5-20.1,10.1-30c1.8-2.8,3.9-4.9,9.1-7.8
		c6-3.1,12.7-2.5,19.7,0.7c7.6,3.7,13.1,12.5,21.6,18.8c3.6,2.6,7.2,4,8.2,9.1c0.1,2.3,1.1,6.1,0.1,8.5c-1.6,4.8-3.1,9.6-4.5,14.3
		c-1.9,6.5-3.7,11.6-9.9,16c-7.5,7.3-13.9,14.7-19.5,21.8c-3.3,4.4-16.7,23.6-15,24.7c1.1,0.5,15.5-19.6,17.5-22.1
		c7.5-9.6,16.4-19.4,27.5-29.2c5.8-4.8,9.4-8.8,11.7-12.5c1.5-5,5-11.2,3-17.7c-1.3-6.8-12.4-23.6-18.7-36.5
		c-2.4-4.6-3.3-9.1-2.5-13.5c1.1-7.1,8.6-8.5,14.6-10c5.8-0.4,12.5,0.8,17.6,3c11.1,10.8,20.4,27.1,32.3,40.3c1.3,1.6,2.9,4,4.7,6.3
		c2.4,3.2,4.8,6.4,7.6,8l0.1,0l0.1,0c7.7,3.9,8.3,3.6,13.4,9.8c3.8,4.6,6.1,7.7,1.4-1.2c-2.5-5.4-8.5-9.5-13.2-11.7
		c-1.6-1-4.2-4-6.5-7.1c-1-1.4-2.7-3.1-3.1-5c-2.6-12.1-6.6-21.6-10.3-32.7c-1.4-4.1-3.4-8.3-1-12.7c2.7-6.3,7.2-10.9,11.9-13.6
		C315.8,43.8,318.4,43.1,320.9,43.2z M181.6,93.1c-0.9,0-1.8,0.1-2.6,0.1c-2.6,0.2-5.2,1.7-7.4,2.9c-2.4,1.3-4.6,2.4-6.5,4.4
		c-0.9,0.9-3.1,2.9-2.7,4.1c0.4,1.3,2.8,2.7,3.7,1.7c2.2-2.3,2.8-7.8,8.2-9.8c1.5-0.5,3.8-1.2,5.4-1.1c2.4,0.2,4.1,0.9,6.7,1
		c0.5,0,1.5-0.1,1.4-0.6C187.2,93.5,184.3,93,181.6,93.1z M216.2,94.9c-1.8,0-3.6,0.3-4.6,1.3c-2.2,2-1.2,4.6-0.5,7.1
		c1.1,4,3.8,9.5,7.9,10.1c7.8,1.1,14.2-0.1,20,1.1c3,0.6,7.3-0.9,4.3-2.7c-4.5-2.7-7-7.3-11.3-10.4c-3.4-2.4-6.5-4.8-10.5-5.7
		C220,95.2,218,94.9,216.2,94.9z M163.6,197.1c1.5,0,3.3,0.4,5.3,1c4.4,1.4,9.4,4.2,13.3,7.5c10.3,8.5,19.7,18.9,25.2,30.9
		c3.4,7.5,6.9,13,8.8,19c1.9,6,2.4,12.5,0,22.4c-2.8,11.6-11.2,24-19.5,32.9c-7.1,7.6-13.9,11.7-25.1,23.3
		c-6.6,6.9-12.6,18.3-19.4,23.5c-1.8,1.4-3.9,2.1-5.8,2.4c-2.8,0.5-5.2,0.4-5.2,0.4c-2.3-0.1-5.3-1.7-7.2-3.1
		c-4.1-3.3-5.9-7.5-7.8-11.7c-6.4-14.3-6.9-28.3-5.9-42.1c2-26.4,9.6-48,19.4-70.8c4.6-11.2,8.8-18.7,13.8-26.8
		c1.5-2.4,3-5.7,5.7-7.5c0.8-0.8,2-1.3,3.6-1.3C163.2,197.1,163.4,197.1,163.6,197.1z M393.1,258.5c5.9,0.7,13.8,1.7,21.2,3.9
		c5.8,1.7,10.7,4.5,14,7.4c5.1,16.7,8.2,34.5,4.7,54.2c-3.5,19.4-6.7,30.2-13.3,35.2c-2.8,2.1-4.6,2.3-7.5-0.3
		c-2.3-1.7-5.3-4.1-8.3-6.8c-5.3-4.7-11.8-11.1-18.5-18.4c-11-12-22.5-26.5-30.5-40.7c-1.9-2.5,1.8-8.4,4.8-13.4
		c2.8-5,9.1-13.7,16.5-17.7C381,259.9,386.5,258.7,393.1,258.5z M345,323.6c-0.5,0-1.2,0.8-1.3,1.2c0,0-0.6,6.1-1.5,10.8
		c-0.9,4.7-2.3,10.2-3.7,13.6c-3.4,8.1-8.7,15.7-14.5,22.4c-7,8.1-16.8,12.8-23.8,21.4c-10.7,13.2-16.2,30.2-24.4,44.8
		c-2.3,4-5.6,10.7-8.6,16.1c-18.1,31.3-12.7,24.5,1.2,0c3.2-5.6,6.5-11.5,8.9-15.8c8.3-14.7,14.1-31,24.5-44
		c6.7-8.3,17.3-13.2,24.6-21.7c5.8-6.8,11.1-14.3,14.6-22.6c1.5-3.6,2.8-9.3,3.7-14c0.9-4.7,1.2-11.2,1.2-11.2
		C345.9,323.9,345.5,323.6,345,323.6z M349.9,337.4c-0.2,0-0.4,0.2-0.7,0.6c-0.8,1.4-2.6,6.4-3,7.8c0,0-3.2,9.2-5,13.7
		c-2.9,7.2-8,13.8-9.4,21.8c-1.7,9.4-0.8,19.3,1.4,28.5c1.5,6.1,4.8,11.4,7.9,16.8c3.2,5.3,6.2,10.6,7.2,16.4
		c1.4,7.4,1.1,19,0.1,28.6c-0.5,4.5-1.4,9.3-1.8,12.4c-0.2,4.3-2.3,7.9-3.7,11.5c-3.2,7.9-5.4,13.6,0.7,0.5c2.2-4,3.7-7.9,4.5-11.6
		c0.6-3.2,1.5-7.6,2-12.5c1.1-9.7,1.6-21.3,0.1-29c-1.1-6.1-4-11.5-7.2-16.8c-3.2-5.3-6.3-10.7-7.7-16.5c-2.2-9.1-3.1-18.8-1.4-27.9
		c1.4-7.5,6.3-14.1,9.3-21.5c1.8-4.6,7.1-19.6,7.1-19.6C350.7,338.9,350.5,337.3,349.9,337.4z M326,381.9c-0.3,0-0.7,0.1-1.1,0.3
		c0,0-4.9,2.6-9,5.2c-4.1,2.6-8.8,5.8-11.4,8.8c-6.9,7.8-13.2,17.4-14.6,27.8c-0.7,4.8,0.6,9.5,2.1,14c1.5,4.6,3.2,9.1,3.7,13.6
		c1.5,14.1,2.1,28.5,0,42.5c-1,6.5-4.1,16.9-6.5,23.6c-6.2,16.6-4.1,13,0.5,0.4c2.4-6.7,5.9-16.9,7-23.7c2.1-14.1,1.9-28.7,0.5-42.9
		c-0.5-4.8-2.1-9.4-3.6-13.9c-1.5-4.5-2.3-9-1.7-13.5c1.4-10,7.5-19.3,14.3-27c2.4-2.7,7.8-6.1,11.8-8.6c4-2.5,8.9-5,8.9-5
		C327.6,382.6,327,381.9,326,381.9z"/>
</g>
</svg>
