<?xml version="1.0" encoding="utf-8"?>
<!-- Generator: Adobe Illustrator 25.3.1, SVG Export Plug-In . SVG Version: 6.00 Build 0)  -->
<svg version="1.1"
	 id="svg8" inkscape:export-filename="e_coli.png" inkscape:export-xdpi="12.0952" inkscape:export-ydpi="12.0952" inkscape:version="1.0 (4035a4fb49, 2020-05-01)" sodipodi:docname="e_coli.svg" xmlns:cc="http://creativecommons.org/ns#" xmlns:dc="http://purl.org/dc/elements/1.1/" xmlns:inkscape="http://www.inkscape.org/namespaces/inkscape" xmlns:rdf="http://www.w3.org/1999/02/22-rdf-syntax-ns#" xmlns:sodipodi="http://sodipodi.sourceforge.net/DTD/sodipodi-0.dtd" xmlns:svg="http://www.w3.org/2000/svg"
	 xmlns="http://www.w3.org/2000/svg" xmlns:xlink="http://www.w3.org/1999/xlink" x="0px" y="0px" viewBox="0 0 595.3 595.3"
	 style="enable-background:new 0 0 595.3 595.3;" xml:space="preserve">
<sodipodi:namedview  bordercolor="#666666" borderopacity="1.0" id="base" inkscape:current-layer="layer1" inkscape:cx="474.76077" inkscape:cy="375.35703" inkscape:document-rotation="0" inkscape:document-units="mm" inkscape:pageopacity="0.0" inkscape:pageshadow="2" inkscape:snap-global="false" inkscape:window-height="1017" inkscape:window-maximized="0" inkscape:window-width="1698" inkscape:window-x="166" inkscape:window-y="0" inkscape:zoom="0.7" pagecolor="#ffffff" showgrid="false">
	</sodipodi:namedview>
<g id="layer1" inkscape:groupmode="layer" inkscape:label="Layer 1">
	<path id="path997" d="M321.6,23.9L321.6,23.9c-0.4,0.1-0.6,0.3-0.9,0.6c-0.7,0.9-0.5,2,0.3,2.7c6.9,5.6,15.4,7,23.3,8.5
		c7.8,1.6,15.2,3.4,20.7,8.8c2.5,4.2,5.8,7.2,9.3,9.9c0.3,2,0.4,4.2,0.5,6.3c-4.9-2.5-10.1-4-14.2-6.8c-0.5-4-1.1-8-3.1-11.9
		c-0.4-0.9-1.5-1.3-2.4-0.9c-0.1,0-0.1,0-0.2,0.1c-0.9,0.4-1.4,1.6-0.8,2.5c1,2.2,1.7,4.6,2,7.2c-2.5-1.6-5.3-3-8.3-3.9
		c-4.6-1.3-9.5-1.3-14.2,1.3c-0.9,0.5-1.2,1.7-0.7,2.6c0.5,0.9,1.7,1.2,2.6,0.7c3.6-2.1,7.4-2.1,11.3-0.9c3.5,1,7,3,10,5.3
		c0.4,3,0.9,6.2,2,9.4c1.3,5.1,2.4,11,6.2,15.6c-0.7,0.7-1.5,1.3-2.2,2c-1.8-2-4-3.6-5.7-5.4c-2-2-3.7-3.7-4.3-6.3l-0.1-0.2
		l-0.1-0.2c-3.5-6.5-9-11.5-12.7-17.2c-0.4-0.7-1.4-1-2.2-0.8l-0.1,0c-0.1,0-0.2,0.1-0.3,0.2c-0.9,0.6-1.1,1.7-0.6,2.6
		c4,6.3,9.4,11.1,12.5,16.7c1,3.4,3.1,5.8,5.4,7.8c2,1.8,3.9,3.3,5.4,5.1c-0.4,0.3-0.8,0.7-1.2,1c-3.7,2.9-7.4,5.7-11,8.5
		c-2.3-2.6-5.3-4-8.1-5.5c-0.1-0.1-0.3-0.1-0.4-0.2c0.2-0.4,0.4-0.8,0.6-1.1c3.1-5,3.6-10.6,5.6-15c0.4-1,0-2.1-1-2.5
		c-0.4-0.2-0.9-0.2-1.4-0.1c-0.5,0.2-0.9,0.5-1.1,1c-2.5,5.3-3,10.6-5.5,14.7l-0.1,0.1l-0.1,0.1c-0.2,0.4-0.4,0.8-0.5,1.1
		c-1.6-0.9-3.1-1.9-4.2-3.2c-4-5.3-5.3-13.1-10.6-19.2c-0.5-0.6-1.2-0.9-2-0.6l-0.1,0c-0.2,0.1-0.4,0.1-0.5,0.3
		c-0.8,0.7-0.9,1.9-0.2,2.7c4.3,5.2,5.7,12.9,10.4,19.2l0,0.1l0,0.1c1.6,1.8,3.6,3.1,5.5,4.2c-0.4,1.1-0.8,2.2-1,3.2
		c-0.5-0.2-1-0.3-1.5-0.4c-3.4-0.9-6.9-1.3-10.1-1.8c-0.7-1.4-1.4-2.7-2.4-3.8c-1.7-2.7-4.1-4.2-6.4-5.3c-2.3-1.2-4.4-2.3-5.7-3.9
		c-0.5-0.6-1.3-0.8-2-0.6c-0.3,0.1-0.5,0.2-0.6,0.3c-0.8,0.7-0.9,1.9-0.2,2.7c2,2.3,4.6,3.5,6.7,4.7s4.1,2.3,5.1,4.2l0.1,0.2
		c-1.6-0.7-3.4-1.6-5.2-2.4c-1.6-0.6-3.4-1.1-5.3-1c-1.8,0.2-3.8,1-5.4,2.8c-0.7,0.8-0.7,1.9,0.1,2.7c0.8,0.7,1.9,0.7,2.7-0.1
		c1-1.1,1.9-1.5,3-1.5c1-0.1,2.3,0.2,3.6,0.7c2.7,1.1,5.8,3.1,9.2,3.7c0,0,0.1,0,0.1,0.1c0.2,0.7,0.5,1.3,0.8,2.1
		c1,2.7,2.2,5.7,5,7.7l-0.1-0.1c1.4,1.2,2.7,2.1,3.7,3.2c-0.6-0.3-1.2-0.4-1.5-0.8c-5.3-5-12.2-5.9-16.9-9.1
		c-0.5-0.3-1.2-0.4-1.7-0.2c-0.4,0.1-0.7,0.4-0.9,0.7c-0.6,0.8-0.4,2,0.6,2.7c5.8,3.8,12.5,4.8,16.6,8.8l0.1,0.1l0.1,0.1
		c1.3,0.9,2.3,1.3,3.2,1.7c-0.3,0.3-0.7,0.7-1,1.1c-2-0.4-4.2-0.3-6.2,0.3l-0.2,0.1l-0.2,0.1c-2.9,1.4-5.6,1.6-8.7,1.2
		c-3.2-0.3-6.5-1.1-10.3-1.1c-0.2,0-0.4,0-0.6,0.1l-0.1,0c-0.8,0.3-1.3,1-1.2,1.8c-0.1,1.1,0.9,1.9,1.8,1.9
		c3.3,0.1,6.6,0.7,10.1,1.1c3.4,0.3,6.9,0.2,10.6-1.5c0.5-0.2,1.1-0.3,1.6-0.3c-2.3,2.3-4.5,4.8-6.9,7.2c-0.2-0.2-0.3-0.2-0.5-0.3
		c-4-1.8-8.1-2.2-11.9-3l-0.2,0l-0.2,0c-2.3,0-4.6,0.1-7,0c-0.1-1.5-0.3-3-0.6-4.4l-0.1-0.2l-0.1-0.2c-4.2-9-1.4-20-4-30.8
		c-0.2-1-1.3-1.7-2.3-1.5c-0.1,0-0.1,0-0.2,0.1c-0.9,0.3-1.5,1.2-1.3,2.2c2.3,9.6-0.6,20.9,4.1,31.4c0.3,1.1,0.3,2.2,0.5,3.3
		c-10.2-0.7-20.3-2.8-28.8-8.3c-0.4-0.3-1.1-0.4-1.5-0.2c-0.5,0.2-0.8,0.4-1.1,0.8c-0.5,0.9-0.2,2.1,0.6,2.7
		c9.4,6,20.4,8.3,31.1,8.9c0.1,1.1,0.2,2.4,0.4,3.6c0,0.4,0.1,0.8,0.2,1.3c-0.4,0.1-0.9,0.2-1.3,0.3l0,0l0,0
		c-4.7,1.7-9.2,3.6-13.8,5.4c-3.7-0.2-7.4-0.1-11,0.5c-13.1,0.8-27.2,2-38-4.8c-0.4-0.3-1.1-0.4-1.5-0.2c-0.5,0.2-0.8,0.4-1.1,0.8
		c-0.5,0.9-0.2,2.1,0.6,2.7c11.8,7.4,26.1,6.3,38.7,5.5c-6.4,2.3-12.5,4.7-18.7,3.2c-0.3-0.1-0.7-0.1-1,0c-0.7,0.2-1.1,0.7-1.3,1.4
		c-0.3,1,0.4,2.1,1.4,2.3c10,2.5,18.8-2.9,26.9-5.4l0,0l0,0c1.9-0.6,3.8-1.3,5.7-2c4.6,0.4,8.8,1.5,12.7,3.7
		c-0.7,0.3-1.4,0.8-2.1,1.2c-4.2,3-7.5,6.9-11.1,10.7c-12.9-1-25.8-3.5-37.1-9.5c-0.3-1.5-0.6-3.1-0.8-4.6c-0.1-1-1.1-1.7-2.2-1.6
		c-0.1,0-0.3,0.1-0.4,0.1c-0.9,0.3-1.3,1.2-1.2,2.1c0.1,0.5,0.2,1.1,0.2,1.6l-0.1,0c-11.7-4.2-23.7-7.9-33.4-15.2l-0.1-0.1l-0.1-0.1
		c-4.6-2.5-9.7-3.5-14.5-4.1c-0.2,0-0.5,0-0.8,0.1l-0.1,0c-0.7,0.2-1.2,0.8-1.3,1.6c-0.2,1,0.6,2,1.6,2.1c4.6,0.7,9.3,1.5,13.2,3.7
		c10.4,7.7,22.7,11.5,34.3,15.6c0.8,0.5,1.5,0.9,2.2,1.4c1.5,7.5,3.6,14.8,6.6,21.9l0,0.1l0,0.1c1.4,2.7,3.4,4.9,5.3,6.8
		c-0.3,0.2-0.6,0.4-0.8,0.7c-4-1.9-7.1-5.7-10.5-9.5c-5.1-6.9-12.8-9.9-17.1-15.7c-0.5-0.7-1.4-0.9-2.1-0.7
		c-0.2,0.1-0.4,0.1-0.5,0.3c-0.9,0.6-1,1.8-0.4,2.7c5.2,6.9,12.9,9.9,17.1,15.7l0,0.1l0,0.1c2.9,3.3,6,7.1,10.2,9.6
		c-0.5,0.5-1.1,0.9-1.5,1.4c-1.9,1.7-3.8,3.4-5.7,5.2c-5.5-3.1-11.3-5.3-17.2-7.2c-12-14-25.7-26.2-34.4-41.9
		c-0.5-0.8-1.4-1.2-2.3-0.9c-0.1,0-0.2,0.1-0.4,0.1c-0.9,0.5-1.2,1.7-0.7,2.6c8.1,14.6,19.9,26,30.7,37.9c-1.4-0.4-2.8-0.8-4.1-1.3
		c-9.8-3.1-19.1-6.9-26-14.5c-0.5-0.6-1.3-0.7-2.1-0.5c-0.3,0.1-0.4,0.3-0.6,0.4c-0.8,0.7-0.8,2-0.1,2.7
		c7.7,8.3,17.7,12.2,27.6,15.4c3.4,1.1,6.8,2.1,10.1,3.1c2.1,2.5,4.1,4.9,6,7.5l0,0.1l0,0.1c1.4,1.5,2.9,3,4.5,4.4
		c-2.8,2.6-5.6,5.4-8.2,8.1c-3.9-0.7-8.1-2-12.4-2.4c-4.2-3.8-9.3-5.6-13.9-7.8c-0.4-0.2-0.9-0.2-1.4-0.1c-0.5,0.2-0.9,0.5-1.1,1
		c-0.4,1,0,2.1,0.9,2.6c3.1,1.5,6.3,2.8,9.1,4.5c-7.5,0-14.4-4.6-21.5-8.4c-0.5-0.3-1-0.3-1.5-0.1c0,0,0,0-0.1,0
		c-0.5,0.2-0.8,0.5-1,0.9c-0.5,0.9-0.2,2.1,0.8,2.6c7.3,4,15.4,9.6,25.2,8.8l0,0l0,0c0.9-0.1,2-0.1,2.9-0.1l0,0l0,0.1
		c2.5,2,5.2,3.8,8.1,5.2c-0.7,0.8-1.3,1.6-1.8,2.4c-6.4-2.3-13.3-2.2-19.7-1.9c-1.2-1-2.2-2-3.1-3.3c-0.5-0.7-1.4-0.9-2.1-0.7
		c-0.2,0.1-0.4,0.1-0.4,0.3c-0.9,0.6-1,1.8-0.4,2.7c0.3,0.4,0.6,0.9,1,1.3c-0.2,0-0.4,0-0.6,0l0,0l0,0c-4,0.2-8.3,2.1-12.1,3.3
		c-5.9-3.8-12-7.5-17.7-11.5c-0.5-0.3-1.1-0.5-1.8-0.3c-0.4,0.1-0.7,0.3-0.9,0.7c-0.7,0.9-0.4,2,0.5,2.7c2.5,1.8,5.1,3.5,7.6,5.1
		c-0.3-0.1-0.8-0.1-1.1,0.1c-0.1,0-0.2,0.1-0.4,0.1c-0.9,0.5-1.2,1.7-0.6,2.6c1.6,2.7,3.9,4.3,6.4,4.9c2.4,0.6,4.9,0.2,7.4-0.4l0,0
		c3.9,2.6,7.8,5.2,11.3,8.2c-1,0.5-1.8,1.1-2.8,1.6l0,0l0,0c-1.7,0.9-3.1,2.1-4.4,3.4c-6.6-2.9-13.1-5.1-18.8-8.7
		c-0.4-0.3-1.1-0.4-1.5-0.2c-0.5,0.2-0.8,0.4-1.1,0.8c-0.5,0.9-0.2,2.1,0.7,2.6c6,3.7,12.3,5.9,18.4,8.5c-0.9,1.3-1.7,2.6-2.5,3.9
		c-2.3,3.7-4.4,6.9-8.1,8.4c-0.9,0.4-1.4,1.5-1.1,2.5c0.4,0.9,1.5,1.4,2.5,1.1c4.9-2.1,7.5-6.1,9.9-9.9c1-1.5,1.9-2.9,2.8-4.3
		c1.2,0.5,2.4,1.2,3.6,1.9l0.3,0.1l0.2,0c2.3,0.5,4.5,1.8,6.9,3c-6.1,3.5-11.8,8.1-15.7,13.6l-0.1,0.1l-0.1,0.1
		c-1.5,2.6-5.6,4-10.8,4.7c-5.2,0.7-10.9,0.7-15.3,1.6c-1,0.2-1.7,1.2-1.5,2.3c0.2,1,1.2,1.7,2.3,1.5c3.6-0.8,9.4-0.8,15-1.5
		c5.4-0.8,11-2.1,13.6-6.6l-0.1,0.1c4-5.7,10.3-10.3,17-13.9c1.5,0.6,3.1,1,4.7,1.1c-0.1,0.1,0,0.3-0.1,0.4c-0.1,0-0.3,0.1-0.3,0.2
		c-4.2,3.1-9.7,5.5-13.7,10.2l0,0l0,0c-2.2,2.8-5.4,5.7-9,8.7c-7.7,2.8-15.9,4.6-24.3,5.9c-20.3,3.2-44.1,3.4-60.5,10.1
		c-3.9,1.3-2.4,4.9,1.5,3.3c14.8-5.6,39-6.3,59.6-9.6c4.7-0.7,9.4-1.7,13.9-2.8c-7,4.3-14.8,7.9-22.2,9.6c-1,0.2-1.7,1.2-1.5,2.3
		c0.2,1,1.2,1.7,2.3,1.5c12-2.5,24.1-9.5,33.2-16.8c7.2-2.7,14.1-6.3,20.5-11.4c0,1.9,0.1,3.7,0.2,5.6l0,0c-0.2,0.1-0.3,0.2-0.5,0.4
		c-0.1,0-0.1,0.1-0.2,0.2c-0.3,0.2-0.8,0.5-1.1,0.7c-6.2,3-11.7,7.1-16.7,11.6l-1.6,1.6c-9.4,4.5-19.8,7.2-30.6,9.4
		c-18.8,3.9-38.7,6.2-56.2,15.1l0,0l0,0c-9,4.8-14.4,10.7-17.4,17.3c-2,4.5-2.7,9.2-3,14.1c-29.4,9.4-51.8,25.2-56.5,32.5
		c-2.4,3.3,0.3,5.2,2.2,2.2c7.1-8.9,31-22.7,54.2-30.7c0,1,0,2,0.1,3c0.7,14.5,4.2,29.9-1,44.5l0,0l0,0
		c-6.7,19.3-14.5,40.4-7.7,61.8l0,0c6.8,24.7,22.6,44.9,29,68.6l0,0l0,0c6.5,20.6,21.2,38.5,42.2,45.7c13.7,6.5,26.4,6.4,39.8,7
		c13.5,0.6,27.8,1.9,45.6,10.7c23.9,14,41.9,18.1,80.9,7.4l0,0l0,0c25.2-7.3,46.9-21.3,68.8-34.5c25.5-5,51.9-13.1,76.5-16.2l0,0
		l0,0c9.8-1.6,16.4-5.1,20.5-10c3.4-4.2,4.8-9.5,4.8-15.1c5.7-1.4,11.3-2.7,16.9-4.1l0.1,0l0.1,0c11.2-4.4,21-13.2,25.2-24.8
		c0.4-1.1-0.2-2.4-1.2-2.7l0,0c-1.1-0.4-2.4,0.2-2.7,1.2c-3.7,10.2-12.6,18.2-22.7,22.2c-5.3,1.2-10.7,2.5-16,3.9
		c-1.5-13.1-8.9-28.1-15.9-42.4c-6.9-14.5-3.9-25.5,3.5-35.2c7.4-9.7,19.5-17.7,30.7-24.4c27.4-16,37.7-39.4,51.9-61.6l0,0l0,0
		c11.8-19,10.6-43.5-6.5-62.3c-2.4-2.7-4.2-5.7-4.7-9c-0.2-1.2-1.3-2-2.4-1.8l0,0c-1.2,0.2-2,1.3-1.8,2.4l0,0
		c0.6,4.4,3,8.2,5.8,11.2l0,0l0,0c16,17.4,16.8,39.5,6,57.2c-14.3,22.5-24.2,44.8-50.4,60.1l0,0l0,0c-11.3,6.8-23.8,14.9-31.8,25.5
		c-8.1,10.5-11.4,23.9-4,39.6l0,0l0,0c7,14.4,14.3,29.6,15.6,41.5c-16.9,4.1-33.8,8.6-50,15.8c-17.6,6.1-33.6,15.3-49.3,24.7
		c-4.6,0.9-9,1.7-13.4,2.2l0,0l0,0c-25.3,3.5-41.7,1.2-56.1-3.4c-14.4-4.6-27-11.3-44.3-16.6c-10.2-4.1-22-5.6-32.6-8.7
		c-7.2-2.1-13.6-4.8-18.7-9.5c20.2-8.7,39.3-20.3,56.8-32.8c7.3,0.6,14.5,0.4,21.3-0.5c34.5-1.2,73.3,4.4,104.4-17.3
		c14.8-7.8,25.1-20.2,31.5-34.6c38.3-11.7,66.4-43.6,87.1-76.3c0.6-0.9,0.4-2.3-0.7-2.9c-0.9-0.6-2.3-0.4-2.9,0.7
		c-19.9,31.2-46.2,61.4-81.4,73.5c6.8-18.1,7.9-38.8,4.3-57.2l0-0.1l0-0.1c-4.4-17.3,1.5-27.9,11.5-36.4c10-8.4,24.3-14,36-19.7
		l0.1,0l0,0c9.3-5.1,14.6-11.4,17.4-18.3c2.8-6.8,2.9-14.1,2.3-21.3c-1-14.3-4.4-28.3,2.1-38.9c3.8-5.3,8.5-10.4,11.5-16.9
		c0.5-1,0.1-2.3-1-2.8c-1-0.5-2.3-0.1-2.8,1c-2.7,5.8-7.2,10.7-11.2,16.3l-0.1,0l-0.1,0.1c-7.6,12.5-3.6,27.6-2.7,41.4
		c0.5,6.9,0.3,13.5-2.1,19.5c-2.3,5.9-6.8,11.4-15.5,16.2c-11.4,5.5-26.1,11.3-36.9,20.3c-10.8,9.1-17.6,21.9-13,40.6
		c3.6,18.9,2,40-5.4,58c-3.5,1-7.1,1.8-10.7,2.4l0,0c-28.7,4.3-53.6,11.7-89.5,0.7c1.6-1.8,3.3-3.6,5-5.5l0,0
		c10.3-9.9,23.6-15.4,35.6-22.3c11.9-6.8,22.4-15.2,25.8-30.8c2.6-10.6,3-21.2,5.9-31c0.3-1.2-0.4-2.3-1.4-2.7
		c-1.2-0.3-2.3,0.4-2.7,1.4c-3,10.5-3.4,21.2-5.9,31.2l0,0l0,0c-3,14.2-12.1,21.4-23.6,28c-11.6,6.6-25.4,12.2-36.4,22.9l0,0l0,0
		c-2.2,2.3-4.3,4.7-6.4,7c-2.7-0.9-5.5-2-8.3-3.1l-0.1-0.1l-0.1,0c-14-4.4-26-3-37.5,0.2c-11.5,3.2-22.5,8.3-35.4,11.8
		c-7.8,1.6-16.3,1.9-24.7,1c-4.7-23.5-8.1-41.3-14.4-58.9c1.5-2,3.5-4,6-5.9l0,0l0,0c16.8-12.9,25.8-24.1,30.7-35.7
		c2.4-5.5,3.7-11,4.6-16.8c1.8-1.2,3.3-2.6,4.4-3.8c1.6-1.7,3.2-3.6,4.7-5.6l2.9-4.1c1.5-2.2,2.7-4.5,3.9-6.9c3.6-1,7-2.4,10.5-3.9
		c-0.3,0.5-0.7,1.2-0.9,1.9c-2.2,5-6.5,10.5-6.2,18.5c0,1,0.9,1.9,1.9,1.9c1,0,1.9-0.9,1.9-1.9c-0.1-6.6,3.5-11.3,6-17l0.1-0.1
		l0.1-0.1c0.3-0.8,1-1.8,1.8-3.1c0.5-0.8,1.1-1.7,1.4-2.9c1-0.5,2.1-1,3.1-1.6c0.5,1.5,1,3,1.7,4.5c-0.3,0.6-0.7,1.2-1,1.8l-0.1,0.1
		l-0.1,0.1c-5.9,13.4-9.4,27.4-16.1,39.8c-0.5,0.9-0.2,2.1,0.8,2.6s2.1,0.2,2.6-0.8c6.9-12.8,10.5-26.7,16-39.5
		c1.7,2.9,3.6,5.6,5.4,8.2l0,0.1l0,0.1c4.3,5.4,6.2,12.4,8.7,19.3c0.3,0.9,1.5,1.5,2.4,1.2c0.9-0.3,1.5-1.5,1.2-2.4
		c-2.5-6.8-4.3-14.2-9.3-20.4c-2.3-3.3-4.4-6.5-6.3-9.9c1.8-2.9,3.5-6.1,3.8-9.9c1.6-0.9,3.2-1.8,4.8-2.8c0.9,0.4,1.6,0.8,2.4,1.3
		l0.1,0.1l0.1,0.1c2.3,1.1,3,3.2,3.9,6c0.8,2.8,1.7,6.3,4.9,8.7c0.1,0.1,0.2,0.2,0.3,0.2c0.8,4.2,1.9,8.2,3.5,12.1
		c0.4,0.9,1.5,1.4,2.4,1c0.9-0.4,1.4-1.5,1.1-2.5c-1-2.5-1.9-5.1-2.4-7.6c1.9,1,3.8,1.9,5.6,2.6c3.4,1.6,6.2,3.4,7.9,6.4
		c0.5,0.9,1.7,1.2,2.6,0.8c0.9-0.5,1.2-1.7,0.8-2.6c-2.2-4.1-5.9-6.3-9.6-8.1c-3-1.4-5.9-2.6-8.3-4.4c-0.5-3.2-0.8-6.5-0.8-9.7
		l0-0.1l0-0.1c-0.2-2.1-0.4-4.5-1.1-6.9c-0.5-1.7-1.2-3.4-2.5-4.7c3-2.4,5-4.6,5.3-6.4c0.8,2,1.7,4,2.3,6c1.5,5.6,4.2,10.4,4.8,15.4
		c0.1,1,1.1,1.7,2.1,1.6c1-0.1,1.7-1.1,1.6-2.1c-0.7-6-3.7-11-4.9-16l0-0.1l0-0.1c-1.1-3-2.3-5.9-3.5-8.8c0.5-0.5,1-1,1.6-1.5
		c4.8,2.5,9.6,5.1,13.5,8.6c-0.4,5.5-0.2,11,0,16.4c0,1,1,1.9,2,1.8c1,0,1.9-1,1.8-2c-0.2-4.1-0.3-8.2-0.2-12.3
		c5.8,6.9,11.9,14.1,20.2,18.7c0.9,0.5,2.1,0.2,2.6-0.8c0.5-0.9,0.2-2.1-0.8-2.6c-8.7-4.9-15.1-13-21.8-21l0,0
		c0.3-3.9,0.9-7.7,2-11.4l0-0.1l0-0.1c0.6-3.2,1.1-6.8,0-10.3c0.1-0.1,0.3-0.2,0.3-0.3c0.7,0.7,1.3,1.4,1.6,2.1l0,0l0,0
		c1.3,1.9,0.8,4.5,0.2,7.4l0,0.2l0,0.2c0,2.4,1.1,4.4,2.3,5.9c1.1,1.5,2.5,2.8,3.4,4c0.6,0.9,1.7,1.1,2.7,0.5
		c0.9-0.6,1.1-1.8,0.5-2.7c-1.2-1.6-2.4-2.9-3.4-4.1c-1-1.3-1.5-2.3-1.5-3.5c0.6-2.8,1.6-6.6-0.8-10c-0.7-1.1-1.6-2.1-2.3-2.9
		c0.9-1.1,1.7-2.4,2.6-3.6c5.4,3.2,9.6,8.4,12.9,13.9c1.3,2.9,2.9,5.7,4.7,8.1c-1,5.7-1.4,11.5-0.5,17.7c0.1,1,1.1,1.7,2.1,1.6
		c1-0.1,1.7-1.1,1.6-2.1c-0.6-4.4-0.5-8.8,0-13.2c8.1,8.7,18.9,14.5,27.9,21.1c0.9,0.7,2.1,0.5,2.6-0.4c0.7-0.9,0.5-2.1-0.4-2.6
		c-10.1-7.6-21.8-13.7-29.3-23c1.4-6.8,3.8-13.5,6.3-20.3c1.9,1.3,3.7,2.7,5.4,4.1c0.1,0.1,0.2,0.2,0.3,0.2c-0.6,4.8-1,10,1.4,15
		c0.4,0.9,1.6,1.4,2.5,0.8c0.9-0.4,1.4-1.6,0.8-2.5c-1.4-2.9-1.6-6.1-1.3-9.6c1.9,2.4,3.2,5.2,3.8,8.4c0.1,1,1.1,1.7,2.2,1.6
		c1-0.1,1.7-1.1,1.6-2.2c-0.9-5.3-3.6-9.4-7-12.8c0.2-1.9,0.4-3.7,0.5-5.7c0.1-1,0.2-1.9,0.3-2.8c2.2,0.9,4,2.2,5.2,4.3
		c0.5,0.9,1.7,1.2,2.6,0.6c0.9-0.5,1.2-1.7,0.6-2.6c-1.9-3.3-4.8-5-7.9-6.2c0.1-0.9,0.3-1.8,0.5-2.7c4.9,4.7,10.5,8.5,16.3,12.1
		c0.5,5.9,1.1,11.9,1.8,17.7c0.1,1,1.1,1.7,2.1,1.6c1-0.1,1.7-1.1,1.6-2.1c-0.6-5-1.2-9.8-1.6-14.8c7.3,4.4,14.6,8.7,20.8,14.1
		c0.8,0.7,2,0.6,2.7-0.2c0.7-0.8,0.6-2-0.2-2.7c-7.3-6.5-15.6-11.3-23.7-16.2c-0.3-4.6-0.6-9.3-0.6-13.9c2.7,1.8,5.6,3.3,9.1,4
		c1,0.2,2.1-0.5,2.2-1.5c0.2-1-0.5-2.1-1.5-2.2c-3.7-0.8-6.8-2.8-9.8-5.1c0-3.1,0.2-6.2,0.5-9.2c1.6,1.4,3.2,2.7,4.8,4.2
		c0.8,0.7,2,0.7,2.7-0.1c0.7-0.8,0.7-2-0.1-2.7c-2.3-2.1-4.5-4.1-6.9-6c0.1-0.7,0.1-1.2,0.2-1.9l0-0.1l0-0.1
		c0.4-6.4,0.1-13.2-2.7-19.3l0,0c1.4-1,2.7-1.9,4.2-2.8c4.4,1.2,8.5,3.4,12.2,6.1l0,0l0,0c11.5,7.6,18.9,20.1,23.2,33.4
		c0.3,0.9,1.4,1.5,2.4,1.2c0.9-0.3,1.5-1.4,1.2-2.4c-4.5-13.7-12.1-27.1-24.6-35.3c-3.1-2.2-6.5-4.3-10.1-5.6
		c2.7-1.5,5.3-3.1,7.9-4.8c3.3,3.8,7.4,6.1,11.6,8.1c2.9,1.4,5.9,2.7,8.5,4c1.1,3.2,2.8,6,4.3,8.8c0.3,0.6,0.7,1.1,1,1.7
		c-0.3,1.2-0.8,2.4-1.1,3.5c-0.3,0.9,0.2,2.1,1.2,2.4c0.9,0.3,2.1-0.2,2.4-1.2c0.1-0.1,0-0.2,0.1-0.3c1.2,2.3,2.2,4.7,2.6,7.2
		c0.1,1,1.1,1.7,2.2,1.6c1-0.1,1.7-1.1,1.6-2.2c-0.7-4.4-2.6-8.1-4.7-11.6c0.3-0.9,0.6-1.8,0.9-2.7c1.6,1.2,3.1,2.3,4.8,3.4
		c3.8,2.3,8.4,3.8,13.5,2.8c0.7-0.1,1.3-0.6,1.5-1.3c1,0.9,1.9,1.9,2.8,2.7c4.7,5,8.3,10.1,8.6,16.8c0,1,1,1.9,2,1.9
		c1,0,1.9-1,1.9-2c-0.3-8.1-4.7-14.1-9.6-19.3c-5-5.2-10.7-9.8-14.2-15.1l0-0.1l0-0.1c-1.7-2.1-3.3-4.3-4.9-6.6
		c1.1-2.8,2.3-5.5,3.6-8.3c11.5,10.7,22.8,21.6,30.8,34.8c0.5,0.9,1.7,1.2,2.6,0.6c0.9-0.5,1.2-1.7,0.6-2.6
		c-8.6-14.2-20.5-25.5-32.2-36.4c0.6-1,1.1-2.2,1.7-3.2l0,0l0,0c1.7-3.3,3.4-6.8,4.9-10.4c1.7,0.9,3.3,2,5,2.9l0.1,0.1l0.1,0.1
		c13.1,5.7,26.1,13.4,41.3,15c1.1,0.1,2-0.7,2.1-1.6c0.1-1.1-0.7-2-1.6-2.1c-14-1.4-26.7-8.8-40-14.6c-1.8-1-3.6-2-5.4-3.2
		c0.5-1.6,1-3.2,1.4-4.9c0.6,0,1.2,0,1.7,0c3.3,0.1,6.2,0.3,8.9,1.9c0.9,0.5,2.1,0.2,2.6-0.7c0.5-0.9,0.2-2.1-0.7-2.6
		c-1.6-0.9-3.2-1.4-4.8-1.9c1.6,0,2.9,0.2,4.2,0.8c0.9,0.4,2.1,0.2,2.6-0.9c0.4-0.9,0.1-2-0.9-2.6c-2.4-1.2-4.9-1.3-7.1-1.2
		c-2,0-3.7,0.2-5.3,0.1c0.2-2.8,0.1-5.7-0.4-8.6c2.1-2.1,4.2-4.1,6.3-6.2c0.1-0.1,0.3-0.2,0.3-0.3c2.8,2,5.3,4.4,6.8,7.1
		c2,5.8,5.7,10.4,8.7,15.1c0.5,0.9,1.7,1.1,2.6,0.6c0.9-0.5,1.1-1.7,0.6-2.6c-3.1-5-6.6-9.4-8.3-14.5l-0.1-0.2l-0.1-0.2
		c-1.9-3.4-4.5-6-7.4-8.1c3.9-3.6,7.9-7.3,10.3-11.9c2.4-4.6,3.3-10.1,3.3-15.2c0.1-5.5-0.1-11.4-1.7-16.8c0.1-0.3,0.2-0.5,0.3-0.7
		l0.1-0.1l0.1-0.1c0.3-1.1,0.9-2.1,1.8-2.8l0,0c1.5-1,3.1-2,4.8-2.3l0,0l0,0c3.9-1.1,6.1-4.1,8.2-5.9c0.8-0.7,0.9-1.9,0.2-2.7
		c-0.5-0.6-1.3-0.7-2.1-0.5c-0.3,0.1-0.4,0.3-0.6,0.4c-2.4,2.2-4.3,4.4-6.7,5.1c-2.2,0.5-4.3,1.7-6,3l0,0l0,0
		c-0.8,0.6-1.4,1.2-1.9,1.9c-0.3-0.4-0.5-1-0.8-1.4c-1.5-2.2-3.3-4.4-5.2-6.3c3.7-4.5,8.7-7.8,14.2-9.8c8.8-2.1,17.8-5.1,25-11.3
		c0.8-0.7,0.9-1.9,0.2-2.7c-0.5-0.6-1.3-0.8-2-0.6c-0.3,0.1-0.5,0.2-0.6,0.3c-6.6,5.6-15.1,8.5-23.7,10.6l-0.1,0l-0.1,0
		c-6,2.1-11.7,5.8-15.8,10.9c-1-0.9-2.2-1.7-3.4-2.5c0.1-0.1,0-0.2,0.1-0.3c0.3-0.9,0.9-1.9,1.3-3.1c2.3-4.4,4.9-8.6,8.5-11.4l0,0
		l0,0c1.6-1.4,3.8-3.1,5.4-5.3c1.7-2.2,2.8-5.1,2-8.3c-0.2-1-1.3-1.7-2.3-1.3c-0.1,0-0.1,0-0.2,0.1c-0.9,0.3-1.5,1.3-1.1,2.3
		c0.5,1.8-0.1,3.3-1.3,5c-1.3,1.6-3.2,3.2-4.9,4.7c-2.4,1.9-4.3,4.2-5.9,6.6c0.1-0.6,0.2-1,0.3-1.6l0,0l0-0.1
		c0.4-2.3,0.6-4.7,0.8-7.1c0.9-0.9,1.7-1.8,2.5-2.7c6.3-5.4,8-13.3,12.2-18.4c0.7-0.9,0.6-2-0.3-2.7c-0.6-0.4-1.2-0.5-1.9-0.3
		c-0.3,0.1-0.5,0.3-0.8,0.6c-5.1,6-6.7,13.4-11.5,17.8c0.2-7.3,0-14.7,1.3-21.6c0.2-1-0.5-2.1-1.6-2.2c-0.3-0.1-0.6,0-1,0.1
		c-0.7,0.2-1.1,0.8-1.2,1.5c-1.6,9-1,18-1.5,26.7c-2,2.2-3.9,4.6-5.6,7.1l0,0l0,0c-1.9,2.8-3.6,5.9-4.6,9.2c-0.1,0-0.1-0.1-0.2,0
		c-4-1.1-8.2-0.9-12.4-0.4c-0.1-0.2-0.1-0.4-0.2-0.6c-0.3-0.9-0.4-2-0.8-3.2c0.5-0.5,1-0.9,1.5-1.2l0.2-0.2l0.1-0.1
		c2.8-3,4.3-6.4,6.5-8.9l0.1,0l0,0c0.6-0.7,1.1-1.2,1.6-1.3c1-0.2,1.7-1.3,1.3-2.3c-0.2-1-1.3-1.7-2.3-1.3c-1.7,0.5-2.9,1.7-3.6,2.7
		c-2.5,2.9-4,6.2-6.2,8.6c0-0.7-0.1-1.5-0.1-2.2c1.7-1.9,3.2-3.9,4.7-6.2l0,0l0,0c2-3.8,6.5-5.4,10.6-8.9c0.8-0.7,0.9-1.9,0.2-2.7
		c-0.5-0.6-1.3-0.8-2-0.6c-0.3,0.1-0.5,0.2-0.6,0.3c-3.4,2.8-8.8,4.6-11.6,10.1l0.1-0.1c-0.5,0.8-1,1.5-1.6,2.2c0-1-0.2-2.1-0.3-3.2
		l-0.1-0.2l-0.1-0.2c-2.5-5.5-5.1-10.9-3.9-16.4c0.2-1-0.5-2.1-1.5-2.2c-0.3-0.1-0.7-0.1-1,0c-0.7,0.2-1.1,0.7-1.2,1.4
		c-1.5,6.9,1.6,13.1,4.1,18.5c0.3,2.1,0.2,4.5,0.3,6.9c-2,2.2-4,4.7-5.5,7.5l-0.1,0.1l0,0.1c-0.9,2.1-1.4,4.4-1.4,6.5
		c-0.1,0-0.1,0-0.2,0.1c-0.1-0.6-0.2-1.3-0.7-2.1l0,0l0,0c-0.6-1.1-0.3-2.7,0.3-4.4c1.6-3.6,1.6-7.5,1.2-11c-0.1-1-1.1-1.7-2.1-1.6
		c-0.1,0-0.3,0.1-0.4,0.1c-0.9,0.3-1.4,1.2-1.2,2c0.4,3.2,0.4,6.4-0.9,9l-0.1,0.1l-0.1,0.1c-0.3,0.7-0.5,1.6-0.7,2.6
		c-2.7-4.3-6.4-7.8-10.6-10.4l-0.1-0.1l-0.1-0.1c-7.8-3.5-11.6-12.3-18.4-19c-0.5-0.5-1.2-0.7-1.8-0.4l-0.1,0
		c-0.3,0.1-0.5,0.3-0.7,0.4c-0.7,0.8-0.7,1.9,0.1,2.7c6.1,5.9,10,15.4,19.4,19.7c5.3,3.3,9.6,8,11.6,13.7c-0.3,0.1-0.5,0.2-0.8,0.3
		c-1.5-3.8-4.3-7.1-7.2-9.7l-0.1-0.1l-0.1-0.1c-6.2-3.8-13.1-6-18.1-10.2c-5-5.8-12.2-8.1-18.9-9.9c-0.3-0.1-0.7-0.1-0.9,0l-0.1,0
		c-0.6,0.2-1,0.7-1.2,1.4c-0.3,1,0.4,2.1,1.4,2.3c6.6,1.7,12.9,3.9,17.1,8.8l0.1,0.1l0.1,0.1c5.8,4.9,12.8,7.1,18.5,10.5
		c2.5,2.2,4.8,5.1,6.1,8c-0.6,0.3-1.2,0.5-1.8,0.9c-4.2,2.3-6.9,6.7-11.1,9c-2.4,1.3-5,2.2-7.6,3c-0.6-1.4-1.3-2.7-2.2-4l0-0.1
		l-0.1-0.1c-1.9-2.1-3.9-3.9-6.1-5.6c-0.7-2.6-1.6-5.3-2.7-7.8l0,0l0,0c-1.1-2.4-1.2-5-1.2-7.8c0.1-2.9,0.4-6-0.3-9.3
		c-0.2-1-1.2-1.7-2.3-1.5c-0.1,0-0.1,0-0.2,0.1c-0.9,0.3-1.5,1.2-1.3,2.2c0.5,2.6,0.3,5.4,0.2,8.4c0,1.3-0.1,2.7,0.1,4
		c-0.8-1.6-1.6-3.3-2.8-4.8l-0.2-0.3l-0.3-0.2C365.1,34.2,362,25.2,357,17c-0.5-0.8-1.4-1.1-2.3-0.8c-0.1,0-0.2,0.1-0.4,0.1
		c-0.9,0.5-1.2,1.7-0.6,2.6c4.5,7.6,7.9,17.1,16.1,23c1.4,2,2.4,4.1,3.2,6.5c-1.8-1.7-3.5-3.6-4.8-5.8l-0.1-0.2l-0.2-0.2
		c-6.5-6.5-14.8-8.3-22.8-10c-8-1.6-15.7-3-21.7-7.8C322.9,23.8,322.2,23.7,321.6,23.9L321.6,23.9z M377.9,52L377.9,52L377.9,52
		L377.9,52z M361.3,58.5c4.6,2.6,9.4,4.1,13.5,6.4c0,0.9-0.1,2-0.1,3c-0.2,1.6-0.5,3.3-1,5c-0.1,0.1,0,0.2,0,0.3
		c-2,1.5-4,3.1-5.8,4.9c-2.9-3.8-4-8.9-5.3-14l0-0.1l0-0.1C362,62.2,361.6,60.4,361.3,58.5z M378.5,57.4c0.4,0.3,0.8,0.6,1.2,0.9
		c0.4,1.8,0.8,3.6,1.1,5.4l0.1,0.2l0.1,0.2c0,0.1,0.1,0.3,0.1,0.4c-0.8-0.7-1.6-1.3-2.4-1.7C378.7,61,378.7,59.2,378.5,57.4z
		 M429.8,41.2c0,0.3,0.1,0.7,0.2,1c-1.2,1.2-2.2,2.5-3.1,3.9c0.1-0.3,0.3-0.8,0.4-1.2C428,43.7,428.8,42.5,429.8,41.2z M384.4,62.1
		L384.4,62.1c0.6,0.6,1.2,1.2,1.9,1.8c0.6,0.9,1.1,1.8,1.6,2.8c-0.3,0.1-0.7,0.2-1,0.2c-1-1.3-1.7-2.7-2.3-4.2
		C384.5,62.6,384.4,62.3,384.4,62.1z M457.4,37.8c-0.1,0.4-0.1,1-0.2,1.4c-0.8,3.9-1.6,7.6-3.2,10.7c-0.9-0.4-1.7-0.8-2.7-1.1
		c0.7-2.9,2.3-5.7,4.1-8.3C456.1,39.6,456.8,38.7,457.4,37.8z M431.1,46.7L431.1,46.7c0.1,0.3,0.1,0.7,0.2,1c0,0.1,0,0.1,0.1,0.2
		c-0.5,0.1-0.9,0.2-1.4,0.3C430.3,47.7,430.7,47.2,431.1,46.7z M378.6,67.4C378.8,67.5,378.8,67.5,378.6,67.4
		c0.6,0.6,1.1,1.2,1.5,1.9c-0.5,0.3-1.1,0.6-1.6,0.9c-0.1,0-0.2,0.1-0.2,0.1c0.1-0.7,0.2-1.3,0.3-2l0-0.1l0-0.1
		C378.7,67.9,378.6,67.7,378.6,67.4z M323.5,95.8L323.5,95.8L323.5,95.8c2.6,0.4,5.1,0.7,7.4,1.4c0.6,0.2,1.2,0.3,1.8,0.6
		c-0.2,2.6,0.1,5.3,1.4,8l-0.1-0.2l0.1,0.3c-0.5,0.5-1,0.9-1.5,1.3c-1.5-2.6-3.9-4-5.5-5.3l0,0l0,0
		C325.4,100.4,324.4,98.3,323.5,95.8z M337.8,92.6L337.8,92.6l0.1,0.1c2.6,1.4,5,2.6,6.8,4.5c-0.9,0.7-1.9,1.5-2.8,2.2
		c-1.4-1.6-3.1-3-5-3.8C337.2,94.5,337.5,93.5,337.8,92.6z M410,70.5C410.1,70.5,410.1,70.5,410,70.5c0.1,0,0.2,0,0.3,0l0.1,0.1
		C410.3,70.5,410.1,70.5,410,70.5z M410.5,70.5l0.5,0.2l0,0C410.7,70.7,410.6,70.6,410.5,70.5z M336.6,99.5c0.9,0.6,1.7,1.3,2.5,2.1
		c-0.6,0.5-1.1,1-1.8,1.6C336.7,102,336.6,100.8,336.6,99.5z M297,124.2c2.1,0,4.2,0.1,6.4,0c3.6,0.8,7.1,1.2,10.2,2.5
		c-1.8,1.8-3.7,3.5-5.5,5.2c-3.2-1.9-6.8-3.3-10.6-3.3c0-0.4-0.2-0.9-0.2-1.3C297.2,126.2,297.2,125.2,297,124.2z M242.6,149.3
		c10.3,4.8,21.4,7.2,32.5,8.3c-0.2,0.2-0.3,0.2-0.4,0.3c-6.7,5.7-14.3,10.5-21.5,15.7c-2-2.1-3.9-4-4.9-6.3
		C245.9,161.6,244,155.4,242.6,149.3z M293.6,132.9L293.6,132.9L293.6,132.9c0.4-0.1,0.8-0.3,1.1-0.3c0.8,2.1,2.1,4.3,4.1,6
		c0.1,0.1,0.3,0.2,0.4,0.3c-0.9,0.6-2.1,1.1-3.1,1.6c-3.2-2.2-6.6-3.7-10.2-4.6C288.6,134.8,291.1,133.8,293.6,132.9z M298.7,132.4
		c2.2,0.2,4.3,1,6.4,2.1c-1,0.9-2.1,1.6-3.2,2.4c-0.1-0.5-0.3-0.9-0.6-1.3C300.1,134.6,299.3,133.5,298.7,132.4z M226.3,184
		c3.4,1.2,6.6,2.6,9.7,4.3c-1.1,0.9-2,1.8-3.1,2.8c-1.6-1.3-3-2.8-4.5-4.3C227.7,185.9,227,185,226.3,184z M165,209.8
		c1.9,1.3,3.8,2.4,5.6,3.6c-0.5,0-1.1-0.1-1.5-0.2c-1.5-0.3-2.8-1.2-4-3.2C165.2,210,165.1,209.9,165,209.8z M182.7,214.5
		c2.2-0.7,4.3-1.3,5.9-1.5c1.5-0.1,2.9,0,4.4-0.1c2.6,1.9,5.7,3.2,9,3.6c0.9,0.1,1.7,0.3,2.5,0.3c-0.8,0.1-1.6,0.1-2.4,0.3
		c-2.4,0.5-4.6,1.4-6.6,2.5c-1.8,0.9-3.5,2-5.3,3.1c-3.1-2.7-6.5-5.2-9.9-7.5C181.2,215,182,214.7,182.7,214.5z M448.6,126.7
		L448.6,126.7c0.2,1.7,0.1,3.5,0,5.3c-1.6-0.2-3.5-0.6-5.4-0.8c1.8-1.5,3.6-2.9,5.3-4.4C448.5,126.9,448.5,126.8,448.6,126.7z
		 M216.9,204.7c0.7,0.1,1.3,0.3,1.9,0.4c-0.1,0.1-0.2,0.3-0.3,0.3C217.9,205.3,217.4,205,216.9,204.7z M203.3,212.8
		c0.9,0,1.8,0.1,2.7,0.2C205.1,213,204.2,212.9,203.3,212.8z M437.3,137.2c1.6,0.3,3.2,0.9,5.1,1.4l0,0l0,0c1.6,0.3,3.2,0.5,4.8,0.5
		c-0.3,0.9-0.5,2-0.8,2.9C443.6,140.4,440.6,138.6,437.3,137.2z M432.6,139.4c4.3,1.6,8.5,3.9,12.6,6.3c-1.4,3.6-3.1,7.2-4.9,10.6
		c-0.5,0.8-0.9,1.6-1.2,2.3c-2.9-2.7-5.7-5.4-8.5-8l-0.2-0.2l-0.3-0.1c-2.2-1.3-4.5-2.1-6.6-2.9c0.9-0.9,1.6-1.7,2.5-2.5
		C428.2,143,430.3,141.1,432.6,139.4z M209.7,217.2L209.7,217.2L209.7,217.2L209.7,217.2z M201.5,221.2c2-0.7,4-0.8,6.2-0.5
		c-0.1,0.3-0.2,0.4-0.3,0.6c-1.7,3.2-3,6.7-4.2,10.3c-2.5,0.1-5.1-1.4-7.2-3.4c-0.9-1-1.8-1.9-2.7-2.8c1.4-0.9,2.7-1.6,4.1-2.4
		S200.2,221.7,201.5,221.2z M189.9,227.5c1.2,1.1,2.3,2.2,3.4,3.4l0,0.1l0,0.1c1.9,1.7,4.3,3.4,7.2,4c-1.6,0.6-3,1.3-4.6,2.2
		c-0.4-0.2-0.9-0.3-1.2-0.5c-2.7-1.3-5.4-2.9-8.6-3.7c-0.9-0.4-1.8-0.9-2.7-1.3c0.7-0.7,1.6-1.3,2.5-1.8
		C187.3,229.2,188.6,228.3,189.9,227.5z M421,150.4c2.6,1.1,5.1,1.9,7.1,3c3,2.9,6,5.8,9.1,8.7c-1.1,2.4-2.2,4.7-3.2,7.1
		c-4.1-6.2-8.2-12.5-14.3-17.4C420.2,151.5,420.5,150.9,421,150.4z M417.4,154.8L417.4,154.8c6.1,4.9,10.2,11.9,15,18.8
		c-1.3,3.3-2.4,6.6-3.6,10c-0.4-0.4-0.9-0.8-1.3-1l0,0l0,0c-1.3-0.9-2.6-1.7-4-2.5c-0.3-1.4-0.6-2.7-0.6-4.1l0-0.1l0-0.1
		c-0.9-6.4-1.3-14.1-6.3-19.7C416.7,155.7,417,155.3,417.4,154.8z M413.9,158.9c3.5,4.5,4.1,11,4.9,17.2c0,0.5,0.1,1.1,0.1,1.6
		c-2-0.9-4-1.7-5.9-2.7c-3.8-1.9-7.3-3.9-10-6.8c1.8-1.2,3.6-2.6,5.3-4C410.5,162.7,412.3,160.9,413.9,158.9z M380.4,182.9
		L380.4,182.9c2,4.9,2.3,10.4,2.1,16c-3-2.9-6-5.9-8.9-9l0,0l0,0c-0.3-0.2-0.6-0.6-1.1-1C375.2,186.8,377.8,184.9,380.4,182.9z
		 M369.4,191.2L369.4,191.2c0.4,0.2,0.9,0.7,1.5,1.4l0,0c3.4,3.5,6.7,7,10.3,10.4l0,0.1l0,0.1c0.3,0.2,0.4,0.4,0.7,0.6
		c-0.3,2.9-0.4,5.9-0.6,9c-2.4-2.2-4.8-4.7-7.5-6.9l0,0l0,0c-1-0.7-2-1.5-2.9-2.1c0.5-3.9,0.2-8.3-2.3-11.8
		C369,191.5,369.1,191.3,369.4,191.2z M200.4,247.9c0,0.4-0.1,0.8,0,1.2c-3.9,3.3-7.9,6.1-12.1,8.4c0.4-0.6,0.9-1,1.4-1.6l0,0
		C192.4,252.6,196.4,250.5,200.4,247.9z M365.7,194.1c1.3,2,1.8,4.4,1.7,6.9c-1.9-1.3-3.9-2.4-5.9-3.5
		C362.9,196.4,364.3,195.2,365.7,194.1z M358.8,200.4c2.8,1.4,5.4,3,8,4.8c-1,3.9-2.1,7.8-3.1,11.8c0-0.1-0.1-0.1-0.2-0.2l0-0.1
		l-0.1-0.1c-0.8-0.7-1.6-1.5-2.3-2.2C361.6,209.7,361.3,204.6,358.8,200.4z M355.5,202.4c1.6,2.5,2,5.8,1.9,8.9
		c-2.2-1.7-4.7-3.3-7.4-4.4C351.9,205.4,353.7,203.9,355.5,202.4z M434.9,177.4c1.2,1.6,2.3,3.1,3.6,4.6c2.7,3.9,6,7.2,9.4,10.4
		c-3.9,0.8-7.2-0.3-10.5-2.4c-1.9-1.2-3.7-2.6-5.5-3.9C432.8,183.2,433.9,180.3,434.9,177.4z M346.9,209.9L346.9,209.9
		c3.7,1.2,7,3.3,10.1,6c-0.2,1-0.3,2.1-0.6,3.2c-0.5,1.6-1.1,3.4-1.7,5.1c-0.9-0.3-1.5-0.8-2.3-1.1l-0.1-0.1l-0.1-0.1
		c-3.7-1.6-6.7-4.9-10.7-7.5c0.3-0.3,0.6-0.7,0.9-1C343.9,212.8,345.4,211.3,346.9,209.9z M425.8,186.2c0.5,0.3,1,0.8,1.6,1.3
		c-0.1,0.3-0.2,0.6-0.3,0.9C426.7,187.6,426.2,186.9,425.8,186.2z M370.1,207.5c0.5,0.3,1,0.7,1.5,1.1c3.2,2.7,6.3,6,9.8,9.1
		c-0.1,4.8,0,9.6,0.4,14.3c-5.4-3.5-10.6-7.1-15-11.6C367.7,216.1,368.9,211.8,370.1,207.5z M339,218.3c3.6,2.2,6.9,5.7,11.6,7.9
		c0.9,0.5,1.9,1,2.8,1.5c-0.5,1.1-0.8,2.3-1.3,3.4c-1.2-0.8-2.4-1.5-3.6-2.3c-3.3-2.5-6.1-6.7-10.7-9
		C338.2,219.3,338.6,218.9,339,218.3z M201.2,264.9c0.2,1.3,0.4,2.6,0.7,4c-0.1,0.3-0.2,0.5-0.2,0.8c-0.1,0.8-0.1,1.4-0.2,2.1
		c-8.7,4.6-20.8,12.1-29.9,19.4c-6,2.2-11.6,5-16,9.4c-2.7,2.7-4.7,6-6.1,10.2c-0.6,0.1-1.1,0.2-1.6,0.2
		c-8.2,1.3-14.7,5.3-19.5,10.8c-8.2,0.6-20.4,0.5-34.2,3c-5.7,1.1-11.1,2.4-16.4,3.9c0.3-3.9,1-7.6,2.5-11.1
		c2.5-5.7,7-10.8,15.5-15.2c16.6-8.5,36-10.9,55.1-14.8c7.6-1.5,15.2-3.4,22.5-5.9c-1.1,1.2-2.1,2.5-3.1,3.8
		c-0.7,0.9-0.5,2.1,0.4,2.6c0.9,0.7,2.1,0.5,2.6-0.4c2.6-3.3,5.3-6.4,8.2-9.4C188.6,274.9,195.2,270.6,201.2,264.9z M335.5,223
		L335.5,223c3.8,1.7,6.6,5.7,10.8,8.8l0,0.1l0,0.1c1.5,0.9,2.9,1.9,4.4,2.8c-2.2,6-4.4,12-6,18.3c-0.9-1.5-1.7-2.9-2.4-4.6l0-0.1
		l0-0.1c-3.4-5.8-7.9-11.6-14.1-15.2c0.6-0.8,1.1-1.6,1.7-2.4C331.9,228.1,333.6,225.5,335.5,223z M360.3,218.8
		c0.2,0.2,0.3,0.2,0.4,0.4c0.6,0.8,1.3,1.6,1.9,2.3c-0.3,1.6-0.6,3.2-0.9,4.7c-1.2-0.3-2.2-0.6-3.4-1c0.6-1.8,1.1-3.5,1.7-5.3l0,0
		l0,0C360.1,219.6,360.2,219.1,360.3,218.8z M198.6,277.6c-1.8,2.2-3.5,4.2-5.4,6.3c-3.2,1.2-6.6,2.3-10.1,3.4
		C188.3,283.8,193.7,280.4,198.6,277.6z M205,277.9L205,277.9c0,0.1-0.1,0.1-0.1,0.1S204.9,277.9,205,277.9z M357.1,228.9
		L357.1,228.9c1.4,0.4,2.7,0.8,4,1.2c-0.2,1.2-0.3,2.5-0.4,3.8l0,0l0,0c0,0.9-0.1,1.8-0.2,2.8c-1.6-1.3-3.2-2.4-4.9-3.5
		C356.1,231.8,356.6,230.4,357.1,228.9z M203.5,284c-0.2,0.2-0.4,0.3-0.6,0.4c0,0,0-0.1,0.1-0.1C203,284.2,203.3,284.1,203.5,284z
		 M317.6,245.9c0.3,2,0,4.3-0.4,6.6c-0.9,3-1.4,6.2-1.8,9.2c-3.3-2.6-7.1-4.7-10.6-6.6C308.7,252.2,313.6,249.1,317.6,245.9z
		 M175.6,294.1c3.7-1.2,7.6-2.4,11.7-3.6c-4.5,4.9-9.2,9.4-14.1,13.4c-6,2.5-12.5,4.4-18.6,5.7c1.1-2.5,2.5-4.4,4.2-6.3
		c2-2,4.3-3.6,6.9-5.1c0.1,0.2,0.2,0.3,0.3,0.4c0.8,0.7,1.9,0.7,2.7,0.1c1.2-1.1,2.5-2.3,3.9-3.5c0.3-0.1,0.6-0.2,0.9-0.3
		C174.2,294.6,175,294.4,175.6,294.1z M195.4,287.7c-0.8,1.1-1.6,2.1-2.6,3.1c-0.4,0-0.7,0-1.1,0.1c0.9-0.9,1.7-1.8,2.6-2.8
		C194.8,288,195.1,287.9,195.4,287.7z M209.7,284.3c0.1,0.1,0.2,0.2,0.3,0.2c-2.6,2.1-5.2,4.3-7.9,6.4c0.1-0.3,0.1-0.7,0.2-1.1
		C204.5,287.8,207.1,285.9,209.7,284.3z M77.7,332.3c6.1-1.9,12.1-3.4,17.6-4.3c11.1-1.7,22-1.9,30.1-2.4c-1.7,2.7-3.2,5.5-4.3,8.5
		c-0.1,0.3-0.2,0.5-0.3,0.7c-3.1,1.2-5.9,2.4-8.8,3.5c-3.2,1.3-2.3,4.5,1.2,3.3c1.5-0.6,3.6-1.4,6.2-2.4
		c-2.7,10.4-2.4,21.8,0.5,31.5l0-0.1c5.1,19.9-7.7,36.9-16.9,54.6l0,0l0,0c-10.6,22.5-1.2,48.1,10.4,67.5
		c13.1,22.1,40.7,32.8,65.2,24.7l0,0c7.3-2,14.5-4.5,21.6-7.3c5.8,6.1,13.6,9.4,21.6,11.7c11,3.2,22.7,4.8,32.2,8.6l0.1,0.1l0.1,0
		c16.9,5.2,29.4,12,44.3,16.7c15,4.7,32.1,7.2,57.9,3.5c1-0.1,2-0.3,3-0.5c-18.7,11.3-37.4,22.4-58.3,28.4l0,0
		c-38.5,10.6-54.3,6.8-77.7-7l0-0.1l0-0.1c-18.5-9.2-33.7-10.5-47.3-11.2s-25.6-0.5-38.3-6.7l-0.1-0.1l-0.1-0.1
		c-19.6-6.7-33.4-23.4-39.6-42.9c-6.7-24.8-22.6-45.1-29-68.6l0,0l0,0c-6.4-19.7,0.8-39.7,7.6-59.1c5.8-16.1,2-32.2,1.3-46.2
		C77.8,335.1,77.7,333.7,77.7,332.3z M211.8,288c-1.4,1.6-2.8,3.2-4.2,4.8c-0.5,0-1-0.1-1.5-0.1C208,291.1,209.9,289.6,211.8,288z
		 M185.9,296.7c0.2-0.1,0.3-0.1,0.5-0.2c-0.5,0.4-0.9,0.6-1.5,1C185.4,297.3,185.6,297,185.9,296.7z M215.9,289.1l0.1,0.1
		c0,0.5-0.2,1-0.3,1.6c-0.3,0.2-0.4,0.3-0.7,0.5c-0.6,0.4-1.2,0.7-1.9,1C214.1,291.2,215,290.1,215.9,289.1z M188.6,300.2
		c-0.2,0.4-0.5,0.7-0.7,1.1c-9.7,6.6-22.6,13.6-35.7,19.9c0-0.3,0-0.5,0-0.9c6.9-2.7,13.1-6.6,19-11c5.1-1.9,10-4.2,14.5-7.1
		C186.8,301.6,187.7,300.9,188.6,300.2z M201.9,295.9c0.8,0.2,1.7,0.3,2.6,0.4l4.8,0.4c1.6,0,3.1-0.2,4.4-0.5
		c-1.7,3-4.1,5.7-6.9,8.3c-4.9,4.6-11.1,8.9-16.6,13.4c-5.7,4.5-10.7,9.5-13.3,15.7c-2.6,6.2-2.4,13.8,2.2,22.5
		c2.5,5.3,4.7,10.2,6.6,15.4c-1.6,2.5-2.6,5.1-3.2,7.7c-1.4,5.9-0.6,12,0.9,18.2c2.5,10.3,7.2,20.9,8.7,31c-1.9-0.5-3.8-1.2-5.7-1.8
		c-13.7-5-25.3-14.1-31.2-27.7l0,0c-10.6-25.7-5.8-48.9-3.2-73.6c11.8-5.4,23.4-11.2,31.2-16.2l7.8-5.1c1.2-0.8,2.5-1.7,3.7-2.6
		c0,0.9,0.4,1.5,1.2,1.9c1,0.4,2.1-0.1,2.5-1c0.6-1.6,1.4-3.3,2.1-5C200.7,296.8,201.3,296.3,201.9,295.9z M143.3,316.4
		c1.6-0.5,3.4-1,5.2-1.3c-0.1,0.9-0.3,1.9-0.4,2.9c-4.1,1.4-8.4,2.4-12.9,3C137.7,319,140.3,317.5,143.3,316.4z M153.1,314.3
		c2.4-0.5,4.8-1,7.3-1.6c-2.5,1.4-5,2.6-7.6,3.6C152.8,315.6,152.9,314.9,153.1,314.3z M218.7,295.3c0.6,0.3,1.2,0.9,1.5,1.9
		c-0.1,0.6-0.5,1.6-0.9,2.7c-5,6.6-8.4,14.2-11,22.2c-6.6,3.5-12.9,6.9-16.8,10.4c-0.8,0.7-0.9,1.9-0.2,2.7c0.7,0.8,1.9,0.9,2.7,0.2
		c2.7-2.4,7.4-5.2,12.6-8l4.7-2.5c0.8-0.4,1.6-0.9,2.4-1.2c-0.1,1.2-0.2,2.4-0.3,3.7c-0.1,1.1,0.9,1.9,1.9,1.9
		c1.1,0.1,1.9-0.9,1.9-1.8c0.1-2,0.3-4,0.7-6c2.6-1.4,5.2-2.7,7.5-4l1-0.7c-0.8,4.2-2,8.2-3.6,12.2c-4.5,10.7-12.9,21.3-29.3,34
		c-2,1.5-3.7,3.1-5.2,4.7c-1.7-4.4-3.6-8.8-5.8-13.2l0,0l0,0c-4.2-8-4.1-13.8-2-18.9c2.1-5.1,6.7-9.6,12.1-14.1
		c5.4-4.4,11.7-8.7,16.8-13.7C213.4,304.1,216.6,300,218.7,295.3z M289,272c1,0.9,1.5,2.1,1.9,3.6c0.5,1.8,0.7,4.1,0.9,6.1
		c0,1,0.1,2.1,0.1,3.1c-0.2-0.5-0.3-0.9-0.5-1.5c-0.9-2.9-2.2-6.4-5.8-8.3c-0.3-0.1-0.4-0.3-0.7-0.4
		C286.4,273.7,287.8,272.8,289,272z M131,325.2c0.6-0.1,1.2-0.1,1.8-0.2c5.4-0.5,10.4-1.6,15.1-3.1c-0.1,0.4-0.1,0.9-0.2,1.3
		c-7.3,3.4-14.6,6.6-21.3,9.5C127.6,329.9,129.1,327.4,131,325.2z M228.7,295.1c-0.2,5.9-0.6,11.4-1.3,16.5
		c-2.3,1.5-5.2,3.1-8.2,4.8c1.1-4.2,2.5-8.3,3.1-12.8c0.1-0.7,0.3-1.3,0.5-2C224.6,299.2,226.5,297.1,228.7,295.1z M272.2,282
		c-0.4,1.1-0.9,2.1-1.4,3.2c-0.2-0.7-0.5-1.4-0.7-2.1C270.9,282.8,271.5,282.5,272.2,282z M235.6,294.8c0.8,0.1,1.5,0,2.2,0
		c0.5,1.5,1,3.1,1.5,4.7c-1.9,2.6-3.9,5.1-6,7.4C234.5,303,235.3,298.9,235.6,294.8z M241.8,294.4c0.3-0.1,0.5-0.1,0.8-0.2
		c-0.1,0.3-0.3,0.6-0.5,0.9C242,295,241.9,294.7,241.8,294.4z M147.2,327.4c-2.7,23.7-6.9,47.3,3.9,73.3l0,0l0,0
		c6.4,14.8,19.1,24.6,33.7,30c2.5,0.9,5,1.7,7.6,2.3c0,0.4,0,0.7,0.1,1.1c-0.4,11.2-2.6,22.4-3.6,33.8c-0.8,11.4-0.1,23,5.9,34.7
		l0,0l0,0c0.8,1.4,1.6,2.7,2.5,3.9c-6.6,2.6-13.2,4.9-19.9,6.8l0,0l-0.1,0c-22.5,7.4-48.2-2.5-60.3-22.8
		c-11.3-18.8-19.9-42.9-10.2-63.5l0,0c9-17.2,22.8-35.4,17.2-57.5l0,0l0,0c-3-9.9-2.9-22,0.5-32.3
		C131,334.5,138.9,331.1,147.2,327.4z M216.5,311.8c-0.6,2.3-1.3,4.7-1.9,7.1c-0.3,0.1-0.5,0.3-0.7,0.3c-0.3,0.1-0.4,0.3-0.7,0.3
		C214.2,317,215.3,314.3,216.5,311.8z M187.4,377c5.3,15.7,8.5,32.1,12.8,53.3c-1.2-0.2-2.6-0.4-3.8-0.7
		c-1.3-11.6-6.5-22.9-9.1-33.1c-1.4-5.8-2.1-11.2-0.9-16.2C186.6,379.2,186.9,378.1,187.4,377z M196.7,434c1.5,0.3,2.9,0.6,4.5,0.8
		c5.2,16.6,17.9,27.7,33,34.2c6.6,2.7,13.7,4.7,20.8,5.8c-16.7,11.6-34.7,22.3-53.6,30.3c-1.1-1.3-2-2.7-2.8-4.2
		c-5.6-10.8-6.3-21.4-5.5-32.4s3.2-22.3,3.6-34l0,0l0,0C196.7,434,196.7,434,196.7,434z M205.8,435.3c8.3,0.7,16.7,0.3,24.4-1.2
		l0.1,0l0.1,0c13.2-3.6,24.5-8.7,35.5-11.8c11.1-3.1,21.9-4.3,35.1-0.1l0,0c2.3,0.9,4.5,1.8,6.7,2.5c-12.5,14-24.5,28-39,40.2
		c-2.8,2.1-5.7,4.2-8.6,6.2c-8.4-0.9-16.8-2.8-24.4-6C222.2,459.2,211,449.6,205.8,435.3z M312,426c38,12.1,64.4,4.3,93.3,0.1l0,0
		l0,0c2.6-0.4,5.2-1,7.7-1.6c-6.2,12.3-15.5,22.8-28.1,29.5l-0.1,0l-0.1,0c-29.5,20.6-67.2,15.3-102.2,16.5l-0.1,0l-0.1,0
		c-4.9,0.7-10.2,1-15.5,0.8c1.5-1.1,3-2.3,4.5-3.4l0,0l0,0C286.8,455.2,299.1,440.5,312,426z M437.3,516.7
		c10.3-3.5,20.9-6.2,31.6-8.8c-0.1,4.5-1.3,8.3-3.9,11.4c-3.2,3.9-8.7,6.9-17.9,8.5c-21.1,2.6-43.2,8.8-64.6,13.6
		c12.2-7,24.5-13.5,37.7-18.1l0.1,0l0.1,0C426,520.8,431.6,518.6,437.3,516.7z"/>
</g>
</svg>
