<?xml version="1.0" encoding="utf-8"?>
<!-- Generator: Adobe Illustrator 24.0.1, SVG Export Plug-In . SVG Version: 6.00 Build 0)  -->
<svg version="1.1"
	 id="svg8" inkscape:export-filename="endocrine.png" inkscape:export-xdpi="12.1" inkscape:export-ydpi="12.1" inkscape:version="1.0 (4035a4fb49, 2020-05-01)" sodipodi:docname="endocrine.svg" xmlns:cc="http://creativecommons.org/ns#" xmlns:dc="http://purl.org/dc/elements/1.1/" xmlns:inkscape="http://www.inkscape.org/namespaces/inkscape" xmlns:rdf="http://www.w3.org/1999/02/22-rdf-syntax-ns#" xmlns:sodipodi="http://sodipodi.sourceforge.net/DTD/sodipodi-0.dtd" xmlns:svg="http://www.w3.org/2000/svg"
	 xmlns="http://www.w3.org/2000/svg" xmlns:xlink="http://www.w3.org/1999/xlink" x="0px" y="0px" viewBox="0 0 595.3 595.3"
	 style="enable-background:new 0 0 595.3 595.3;" xml:space="preserve">
<style type="text/css">
	.st0{fill:#69C8BE;}
</style>
<sodipodi:namedview  bordercolor="#666666" borderopacity="1.0" id="base" inkscape:current-layer="layer1" inkscape:cx="388.4298" inkscape:cy="376.3776" inkscape:document-rotation="0" inkscape:document-units="mm" inkscape:pageopacity="0.0" inkscape:pageshadow="2" inkscape:snap-global="false" inkscape:window-height="1040" inkscape:window-maximized="0" inkscape:window-width="1441" inkscape:window-x="439" inkscape:window-y="0" inkscape:zoom="0.7" pagecolor="#ffffff" showgrid="false">
	</sodipodi:namedview>
<g id="layer1" inkscape:groupmode="layer" inkscape:label="Layer 1">
	<path id="path831" class="st0" d="M297.6,0C133.3,0,0,133.3,0,297.6C0,462,133.3,595.3,297.6,595.3
		c164.3,0,297.5-133.2,297.6-297.4c0-0.1,0-0.1,0-0.2c0-0.1,0-0.2,0-0.2c0,0,0,0,0,0C595.1,133.2,461.9,0,297.6,0z M297.6,12
		c51.8,0,100.3,13.8,142.2,37.8c-2.3,0.7-4.6,1.7-6.6,2.7c-2.8,1.3-5,2.7-5,2.7c-1.8,1.1-3.8,3.1-3.7,3.1c0.2,0.2,2.2-1.5,4.2-2.5
		c0,0,2.8-1.4,5-2.4c2.3-1,4.9-2.1,7.4-2.8c15,8.7,29.1,18.8,42.2,30c1.7,9.4,0.3,20.6-2.8,28.9c-4.8,12.7-17.7,23.8-29,31.5
		c-12.2,8.3-22.5,12.9-36.8,16.5c-5.4,1.4-12.2,3.2-18.9,3.9c-6.6,0.8-13.1,0.4-17.8-2.2c-4.1-2.4-5.7-6.5-6-13.1
		c-0.1-1.9-0.5-1.6-1-0.2c-4.4,11.1-12,21.5-20.7,30.1c-11.6,11.4-25.6,20.5-40.5,27c-32.4,14.2-67.7,23.4-103,25
		c-17.8,0.8-35.5-4.2-53-7.8c-14.9-3.1-30-3.3-40.6-2.4c-5.3,0.5-11.7,1.7-14.1,2.6c-1.2,0.4-2,0.8-2.4,1.5
		c-0.2,0.4-0.1,0.9,0.1,1.2c1.4,1.3,0.7-0.2,0.9-0.7c0-0.1,0.6-0.6,1.7-1c2.2-0.8,8.6-2.1,13.8-2.5c10.4-0.9,25.5-0.6,40.3,2.4
		c17.5,3.6,35.4,9.6,53.4,8.7c35.4-1.6,71.1-8.7,103.6-22.9c15-6.6,29.8-14.2,41.5-25.7c8.4-8.3,12.6-13.4,18.4-23.7
		c3.6,4.5,4.4,4.2,8.5,6.6c5,2.9,11.3,2,18,1.3c6.8-0.8,13.9-2.6,19.3-4c14.4-3.7,24.8-9.5,37.1-17.8c11.4-7.8,24.2-20.6,29.2-33.7
		c3.1-8.1,4-18.8,2.2-28.2c5.1,4.5,10.1,9.1,14.9,13.9c-0.5,6.4-1.4,12.7-3.1,19.1c-5.8,22.1-23.6,43.7-34.5,63.8
		c-14.3,26.2-34.7,40.2-41.2,69.3c-4.2,18.7-4.1,45.4,3.8,62.9c12.7,28,40,47.3,64.6,65.7c19.7,14.6,43.3,28.1,67.9,40.4
		c-13.3,28.9-31.3,55.2-53,77.9c-18,10.7-35.5,21.8-55.5,28.6c-33.1,11.2-68.7,12.9-102.2,22.9c-24.2,7.3-45.9,31-70.9,27.1
		c-19.3-3-28.7-27.2-45.9-36.5c-13.8-7.4-26.1-12-42.5-16.4c-14.7-3.9-40.5-7.7-40.6-22.9c9-7.5,55-26.1,55.5-41.9
		c1.2-35-6.7-110.8-27.7-160.5C158.4,257,97.8,252.8,78.6,216c-5.8-11.1-6.1-20.6-1.6-32.3c2.2-5.7,7.5-10,9.4-15.9
		c4.8-14.9-6.1-29.8-6-42.5c0-4.2,6.2-10.7,7.6-14.6c-0.8-1.6-1.5-3.2-2-4.8C138.2,48.2,213.7,12,297.6,12z M315.9,325.3
		c-0.3,0-0.7,0-1,0c-2.8,0.2-6.3,4.2-8,6.5c-5.2,7-4.8,15.4-7.8,23.5c-6,16.1-25,44.2-25,44.2s0,0,0,0c-2.4,4-4.6,8.6-8.3,11.8
		c-2.3,2-4.9,4.5-8.2,4.6c-3.6,0.1-6.7-2.5-9.2-4.5c-4.5-3.7-8.7-8.3-11-13.7c-1.1-2.6-1.5-6.5-1.7-9.8c-0.2-3.3-0.1-6-0.1-6
		c0-0.3,0.2-1.9,0.7-1.9c0.5,0,0.8,1.5,0.8,1.8c0,0,0.7,2.5,1.1,5.8c0.4,3.3,1.9,6,2.9,8.2c2.2,5.2,5,8.2,9.5,11.7
		c2.6,2.1,3.7,3.3,6.7,3.2c2.7-0.1,4.3-0.9,6-3.5c2.3-3.4,2.4-4.8,3.2-8.8c-1.6-0.2-2.7-0.6-4.4-2.2c-6.1-5.5-8.2-14.4-10.4-22.4
		c-2-7.6,1.1-20.6-2.2-23.4c-3.1-2.7-8.8,0.1-12,2.7c-8.4,7-13.1,27.3-13.1,30c0,2.7-1.8,29.4,1.1,43.6c3.5,17.6,7.2,37.2,19.6,50.2
		c5.1,5.3,13.1,10.5,20.2,8.7c4-1,6.3-2.3,7.8-6.1c1.5-3.7,1.8-9.3,2.1-13.3c0.2-3,0.1-5.3,0.1-7.5c-0.2-0.2-1.1-2-1.6-2.6
		c-1.7-2.1-3.3-4.7-5.6-5.9c-1-0.5-1.7-1.1-3.7-1.5s-2.7-0.2-3.4,0.1c-0.7,0.2-1.6,0.6-2.4,1.1c-2.1,1.1-5.1,4.3-7.7,5.6
		c1.7-3.1,4.8-5.3,6.8-6.8c0.9-0.6,2.1-1.3,2.8-1.7c1-0.6,2-0.7,3-0.9c0.6-0.1,1.3-0.1,1.9,0.1c1.4,0.3,2.7,0.9,3.8,1.4
		c2.5,1.3,5,4.1,5.8,5.1c0,0,12.3,13.8,20.3,18.2c5.7,3.1,12.4,7.4,18.5,5.5c13.4-4.3,21.1-20.1,26.2-33.3
		c5.8-15.1,6.1-37.6,4.6-53.7c-1.9-21.5-12.1-50.9-17-56.3C322.9,328,320.9,325.3,315.9,325.3L315.9,325.3z"/>
</g>
</svg>
