<?xml version="1.0" encoding="utf-8"?>
<!-- Generator: Adobe Illustrator 24.0.1, SVG Export Plug-In . SVG Version: 6.00 Build 0)  -->
<svg version="1.1"
	 id="svg8" inkscape:export-filename="eye_and_ear.png" inkscape:export-xdpi="12.0952" inkscape:export-ydpi="12.0952" inkscape:version="1.0 (4035a4fb49, 2020-05-01)" sodipodi:docname="eye_and_ear.svg" xmlns:cc="http://creativecommons.org/ns#" xmlns:dc="http://purl.org/dc/elements/1.1/" xmlns:inkscape="http://www.inkscape.org/namespaces/inkscape" xmlns:rdf="http://www.w3.org/1999/02/22-rdf-syntax-ns#" xmlns:sodipodi="http://sodipodi.sourceforge.net/DTD/sodipodi-0.dtd" xmlns:svg="http://www.w3.org/2000/svg"
	 xmlns="http://www.w3.org/2000/svg" xmlns:xlink="http://www.w3.org/1999/xlink" x="0px" y="0px" viewBox="0 0 595.3 595.3"
	 style="enable-background:new 0 0 595.3 595.3;" xml:space="preserve">
<style type="text/css">
	.st0{fill:#69C8BE;}
</style>
<defs>
	
		<inkscape:path-effect  effect="powerstroke" end_linecap_type="zerowidth" id="path-effect883" interpolator_beta="0" interpolator_type="CentripetalCatmullRom" is_visible="true" linejoin_type="round" lpeversion="1" miter_limit="3.6" offset_points="0.2,0.1322915 | 1.5,0.1322915 | 2.8,0.1322915" scale_width="11" sort_points="true" start_linecap_type="zerowidth">
		</inkscape:path-effect>
	
		<inkscape:path-effect  copytype="repeated_stretched" effect="skeletal" fuse_tolerance="0" hide_knot="false" id="path-effect870" is_visible="true" lpeversion="1" normal_offset="3.1" pattern="m 670.97649,89.958336 a 2.2077553,14.174108 0 0 1 -2.20775,14.174104 2.2077553,14.174108 0 0 1 -2.20776,-14.174104 2.2077553,14.174108 0 0 1 2.20776,-14.174108 2.2077553,14.174108 0 0 1 2.20775,14.174108 z" prop_scale="1" prop_units="false" scale_y_rel="false" spacing="0.3" tang_offset="0" vertical_pattern="false">
		</inkscape:path-effect>
	
		<inkscape:path-effect  copytype="repeated_stretched" effect="skeletal" fuse_tolerance="0" hide_knot="false" id="path-effect849" is_visible="true" lpeversion="1" normal_offset="3.1" pattern="m 670.97649,89.958336 a 2.2077553,14.174108 0 0 1 -2.20775,14.174104 2.2077553,14.174108 0 0 1 -2.20776,-14.174104 2.2077553,14.174108 0 0 1 2.20776,-14.174108 2.2077553,14.174108 0 0 1 2.20775,14.174108 z" prop_scale="1" prop_units="false" scale_y_rel="false" spacing="0.3" tang_offset="0" vertical_pattern="false">
		</inkscape:path-effect>
	
		<inkscape:path-effect  copytype="repeated_stretched" effect="skeletal" fuse_tolerance="0" hide_knot="false" id="path-effect882" is_visible="true" lpeversion="1" normal_offset="0" pattern="m 662.02661,75.370003 h 2.55391 v 29.666917 h -2.55391 z" prop_scale="1.28" prop_units="false" scale_y_rel="false" spacing="1.9" tang_offset="0" vertical_pattern="false">
		</inkscape:path-effect>
</defs>
<sodipodi:namedview  bordercolor="#666666" borderopacity="1.0" id="base" inkscape:current-layer="layer1" inkscape:cx="228.8698" inkscape:cy="421.98246" inkscape:document-rotation="0" inkscape:document-units="mm" inkscape:pageopacity="0.0" inkscape:pageshadow="2" inkscape:snap-global="false" inkscape:window-height="1017" inkscape:window-maximized="1" inkscape:window-width="1920" inkscape:window-x="-8" inkscape:window-y="-8" inkscape:zoom="0.49497474" pagecolor="#ffffff" showgrid="false">
	</sodipodi:namedview>
<g id="layer1" inkscape:groupmode="layer" inkscape:label="Layer 1">
	<path id="path844" class="st0" d="M297.5,0C133.2,0.1,0,133.3,0,297.6c0,50.1,12.7,99,36.2,142.2l4.2,7.4
		c12.8,22,28.5,42.5,46.8,60.8c55.8,55.8,131.5,87.2,210.5,87.2c78.9,0,154.6-31.4,210.5-87.2s87.2-131.5,87.2-210.5
		c0-50.1-12.7-99-36.2-142.2l-4.2-7.4c-12.8-22-28.5-42.5-46.8-60.8C452.3,31.4,376.6,0,297.6,0H297.5z M274.3,94.2
		c14.4,0.1,46.3,4.3,56.5,12c5.3,4-4.1,16.1-10.8,17.5c-14.6,3.1-41.2,0.6-51-11.6c-3.8-4.7-4.5-17.4,1.5-17.9
		C271.5,94.2,272.8,94.2,274.3,94.2z M198.6,96.3c-7.4,12.7-11.6,27.4-11.6,43.2c0,47.5,38.5,86,86,86c47.5,0,86-38.5,86-86
		c0-14.1-3.4-27.4-9.4-39.2c42.9,17.3,77.3,44,87.6,56.3c1.9,2.3,4.4,4.5,4.5,6.7c0.2,2.3-2.1,4.4-4.5,7.6
		c-15.5,18.8-81.4,60.3-153.2,60.7c-104.3,0.5-127.3-17.6-143.8-25.3c-8-3.8-12-7.1-17.9-13.4c-3.3-3.6-6.6-7.8-9.5-12.1
		c-2.8-4.1-5.2-8.4-7.1-12.5c-5.6-11.8-3.2-15.9,9.2-22.7c14.5-9.9,27.7-19.3,44.4-30C171.9,107.5,185.1,101.2,198.6,96.3z
		 M243.3,127.8c2.2,1.4,3.4,2.4,3.3,2.6c-0.1,0.3-4.2-0.4-10.1-2C238.6,128.1,240.9,127.9,243.3,127.8z M300.6,128.4
		c1.7,0.2,3.3,0.3,4.9,0.5c-4.1,1-6.7,1.5-6.9,1.2C298.5,130,299.3,129.3,300.6,128.4z M233.3,128.7c1.8,0.7,3.4,1.4,4.8,1.9
		c4.6,1.9,7.2,3.1,7.1,3.5c-0.1,0.5-12.1-0.3-26.5-2.8c-0.2,0-0.5-0.1-0.7-0.1C222.6,130.3,227.7,129.4,233.3,128.7z M309.3,129.4
		c4.7,0.6,9.1,1.4,13.2,2.2c-12.6,2.1-22.5,2.8-22.6,2.4c-0.1-0.4,2.4-1.7,7.1-3.6C307.7,130,308.5,129.7,309.3,129.4z M216.6,131.6
		c0.7,0.1,1.4,0.2,2,0.3c6.6,1.1,13.9,2.6,18.5,3.7c4.9,1.1,7.7,1.8,7.7,2.3c0,0.4-2.8,0.7-7.8,1c-4.6,0.3-12.2,0.7-18.9,0.7
		c-6.2,0-11.9-0.3-16.6-1.1c3.2-2.6,7.2-4.6,12.1-6C214.6,132.1,215.6,131.9,216.6,131.6z M323.9,131.9c5.7,1.2,10.6,2.7,14.7,4.3
		c1.4,0.5,2.6,1.1,3.7,1.7c-4.4,0.7-9.6,1-15.2,1.1c-6.7,0.1-14.3-0.2-18.9-0.4c-5-0.2-7.8-0.5-7.8-0.9c0-0.4,2.8-1.2,7.7-2.3
		C312,134.3,318.1,133,323.9,131.9z M327.1,139.5c7.2,0,13.8,0.4,18.9,1.6c0.4,0.1,0.7,0.2,1,0.3c1.9,1.9,3.1,4,3.9,6.3
		c-1.4,0.5-3.3,0.8-5.6,0.9c-5.2,0.3-11.7-0.3-18.8-1.5c-13.7-2.2-26.2-5.1-26.2-5.9c0-0.4,2.8-0.7,7.8-1
		C312.8,139.9,320.4,139.5,327.1,139.5z M220.7,140c6,0,12.4,0.3,16.4,0.5c5,0.2,7.8,0.5,7.8,0.9c0,0.9-12.4,3.8-26.1,6.2
		c-7,1.2-13.6,1.9-18.8,1.7c-2.1-0.1-3.9-0.4-5.3-0.8c0.7-2.3,1.8-4.4,3.2-6.4c0.4-0.1,0.8-0.2,1.3-0.3c5.1-1.2,11.7-1.7,18.9-1.8
		C219,140,220.7,140.9,220.7,140z M301.2,144.5L301.2,144.5L301.2,144.5c1.3,0,3.5,0.2,6.6,0.5c4.6,0.5,12,1.4,18.6,2.5
		c14,2.4,25.2,6.4,25,9.9c0,0,0,0,0,0c0,0.1,0,0.2,0,0.3c-0.4,1.5-3.5,2.2-8.5,1.6c-5.1-0.5-11.5-2.2-18.3-4.5
		c-13.9-4.6-24.8-9.6-24.7-10.1C300.1,144.6,300.5,144.5,301.2,144.5z M244.1,144.8c0.8,0,1.2,0.1,1.2,0.2
		c0.1,0.5-10.7,5.6-24.6,10.4c-6.8,2.3-13.1,4.1-18.2,4.7c-5,0.6-8.1,0-8.5-1.6c-0.9-3.5,10.5-7.8,24.9-10.5
		c6.6-1.2,14-2.2,18.6-2.7C240.5,145,242.8,144.8,244.1,144.8z M298.9,148.5c0,1.6,12.7,2.5,25.7,6.9c13.9,4.8,24.5,10.7,23.2,14
		c-0.6,1.4-3.7,1.6-8.6,0.3c-5-1.3-11.1-4-17.5-7.2c-13.1-6.7-23.2-13.3-22.9-13.9C298.7,148.5,298.8,148.5,298.9,148.5z
		 M246.5,148.7c0,0,0.1,0.1,0.2,0.1c0.3,0.6-9.7,7.3-22.8,14.1c-6.4,3.3-12.4,6-17.4,7.4c-4.9,1.4-8,1.2-8.6-0.2
		c-1.4-3.3,9.2-9.3,23-14.2C233.8,151.3,244.9,148.6,246.5,148.7L246.5,148.7C246.5,148.7,246.5,148.7,246.5,148.7z M296.9,152.3
		c1.6,0,12.3,4.3,24.5,10.6c13,6.8,22.8,14.2,21,17.3c-0.8,1.3-3.9,1-8.6-1c-4.8-2-10.5-5.5-16.3-9.7c-12.1-8.5-21.2-16.5-20.8-17.2
		C296.7,152.3,296.9,152.4,296.9,152.3z M248.6,152.5c0.1,0,0.2,0.1,0.2,0.1c0.4,0.6-8.6,8.7-20.6,17.4c-5.9,4.2-11.5,7.7-16.3,9.8
		c-4.7,2.1-7.8,2.4-8.6,1.1c-1.8-3,7.9-10.6,20.8-17.5C236.3,156.9,248.5,154.2,248.6,152.5C248.5,152.5,248.5,152.5,248.6,152.5z
		 M294.1,156C294.1,156,294.1,156,294.1,156c0,0,0.1,0,0.2,0c1.6,0.2,11.6,5.9,22.9,14c12,8.6,20.7,17.4,18.5,20.1
		c-2.2,2.7-12.4-4-23.3-14.1C301.4,165.9,293.5,156.7,294.1,156C294,156,294,156,294.1,156z M251.2,156.2c0.1,0,0.1,0,0.1,0
		c0,0,0.1,0,0.1,0c0.5,0.6-7.3,9.9-18.1,20.1c-10.8,10.2-21,17-23.2,14.3c-2.2-2.7,6.4-11.6,18.3-20.3
		C239.6,162.2,249.6,156.4,251.2,156.2z M291,159.4c1.1-0.1,10.5,7.1,21,17c10.8,10.2,18.2,20.1,15.7,22.5
		c-2.5,2.4-11.8-5.7-21.2-17.2C297,170.3,290.3,160,291,159.4C290.9,159.4,290.9,159.4,291,159.4z M254.5,159.6
		C254.5,159.6,254.6,159.6,254.5,159.6c0.7,0.6-5.9,10.9-15.2,22.5c-1.7,2.1-3.3,4-4.9,5.8c0.4,0.1,0.7,0.1,1.1,0.2
		c1.3-1.9,2.8-3.8,4.3-5.7c8.9-11.3,17.2-19.8,18.3-19.9c0,0,0.1,0,0.1,0c0.6,0.5-4.5,11.6-12.1,24.3c-1,1.6-2,3.2-3,4.7
		c0.2,0.1,0.4,0.3,0.7,0.4c0.9-1.6,1.8-3.2,2.7-4.9c7.3-12.4,14.3-21.9,15.3-22.2c0,0,0.1,0,0.1,0c0.6,0.3-2.9,12-8.6,25.7
		c-1,2.3-2,4.5-2.9,6.6c0.2,0.3,0.5,0.5,0.7,0.8c0.8-2.3,1.7-4.7,2.7-7.1c2.6-6.3,5.7-13,7.8-17.3c2.2-4.5,3.6-7,4.1-6.9
		c0.5,0.2-1.2,12.2-4.8,26.6c-1.3,5.1-2.7,9.8-4.2,13.8c1.1,2.5,2.7,5.8,0.8,7.6c-1.6,1.5-3.7,1.9-5.9,1.7c-1,1.1-1.9,1.5-2.7,1.3
		c-0.7-0.3-1.2-1-1.4-2.3c-2.3-0.8-4.7-2-6.9-3.2c-1.1,0.9-2.1,1.2-2.8,0.8c-0.8-0.4-1.1-1.4-1-3c-2-1.1-4-2.4-5.8-3.9
		c-1.4,1-2.6,1.3-3.4,0.7c-0.9-0.7-0.9-2.3-0.2-4.6c-0.8-1.1-1.3-2.4-1.6-3.7c-0.1-0.7-0.2-1.4-0.2-2.1c-3.4,2.8-6.1,4-7.3,2.9
		c-2.5-2.4,4.8-12.3,15.5-22.6C244,166.8,254.5,160.7,254.5,159.6z M287.6,162.3c1.1,0.2,9.9,9.2,18.4,19.8
		c4.5,5.6,8.4,11.1,10.8,15.8c2.4,4.6,2.9,7.7,1.7,8.6c-2.8,2-11-7.2-18.7-19.9c-7.7-12.7-13-23.7-12.3-24.2c0,0,0.1,0,0.1,0v0
		C287.5,162.3,287.5,162.3,287.6,162.3z M283.8,164.8c1,0.3,8.1,9.7,15.5,22c3.7,6.2,6.8,12.1,8.5,17.1c1.7,4.9,1.8,8.1,0.5,8.7
		c-3.1,1.6-9.8-8.7-15.7-22.3C286.7,176.9,283.1,165.2,283.8,164.8C283.7,164.8,283.8,164.8,283.8,164.8z M280,166.6
		c0.6-0.2,6.4,10.4,12.1,24.1c2.8,6.7,5,13,6,18.1c1,5,0.6,8.2-0.9,8.7c-3.4,1.2-8.5-10-12.2-24.3
		C281.3,178.8,279.4,166.8,280,166.6z M272.7,167.5C272.7,167.5,272.7,167.5,272.7,167.5c0,0.8,2.7,13,3.9,27.1
		c0.6,7.2,0.8,13.9,0.1,19.2c-0.7,5.1-2.1,8.1-3.7,8.2c-0.1,0-0.3,0-0.4,0c-1.5-0.5-2.6-3-3.2-6.8c-1.3,0.5-3,0.3-4.4-0.4
		c-1.4,4.1-3.1,6.2-4.5,6c-3.6-0.6-2.8-12.9,0.6-27.3c1.6-6.6,3.7-13.8,5.1-18.3c1.5-4.8,2.5-7.6,2.9-7.5c0.5,0.1,0.7,12.1-0.6,27
		c-0.3,3.1-0.6,6-1,8.8c0.4-0.1,0.8-0.1,1.1-0.1c0-2.7,0.2-5.6,0.4-8.7C270.1,181.1,271.8,168.6,272.7,167.5
		C272.6,167.6,272.7,167.5,272.7,167.5z M276.2,167.5c0.5-0.1,4.7,11.4,8.3,25.7c1.8,7,3,13.6,3.2,18.8c0.2,5.1-0.7,8.2-2.2,8.5
		c-1.5,0.3-3.4-2.3-5-7.2c-1.6-5-2.6-11.6-3.3-18.8c-0.6-6.8-1-14.4-1.1-19.1C275.8,170.4,275.8,167.6,276.2,167.5z M91.8,171.6
		c1.2,0.1,2.1,0.6,2.3,1.6c2.5,5.6,4.7,9.1,8.4,14.5c2,2.9,4.1,5.8,6.4,8.6c4.3,7.2-23.9,1.3-27.3,0c-8-3.4-13-4.7-5.5-13.1
		c3.7-4,7.4-7.2,10.5-9.6C88.2,172.2,90.2,171.5,91.8,171.6z M407.2,276.3c12.3-0.1,24.7,4.8,35.5,10.6
		c15.5,8.4,30.1,20.7,38.6,36.1c12.4,22.2,18.4,49.6,14.9,74.7c-5.6,40.3-28,78.8-55.6,108.7c-19.2,20.7-44.2,40.2-72.1,44.3
		c-15.5,2.3-34.1-1.8-44.3-13.7c-5.2-6-5.7-13.7-5.7-21.6c0-5.7,2.2-11.5,3.6-17.2c0-2.2-0.7-4.6-2-6.2c-3.5-4.2-4.2-2.7-6.4-7.7
		c-8.2-18.4-10.4-51.6-12.1-73.2c-1.8-21.8-0.2-40.9,12.4-58.7c4.9-6.9,10.6-1.1,16.3-7.5c3.6-4.1,6.7-10.1,9.1-15.5
		c3.9-10.3,9.2-20.2,16.5-27.1c13.1-12.1,28.5-23.5,46.2-25.8C403.7,276.4,405.5,276.3,407.2,276.3z M396.1,300.6
		c-7.8,0-14.6,1-19.8,3.8c-8.4,4.6-12.5,15.9-13.6,26c-1.6,14.9,0.9,30.7,5.3,43.4c2.1,6,5.6,9.9,8.8,13.7c3.1,3.7,5.9,7.3,10.2,9.9
		c1.8,1.1,4,2.4,6,3.2c1,0.4,2,0.6,2.9,0.7c0.9,0,1.7-0.2,2.3-0.8c1-1,3.2-3.1,5.8-5c2.6-1.9,5.7-3.5,8.4-3.7
		c4.3-0.3,8.3,2.8,12.2,5.1c2.1,1.2,6,4.3,9.4,7c3.4,2.7,5.9,6.7,5.9,6.7c1,1.5,2.2,4.9,2.4,8.7c0.3,8.3-4.7,17.8-11.8,22.1
		c-9.7,5.9-15.1,8.4-23,11c-8.4,2.8-17.7,0.6-26.2,4c-5.6,2.2-9.7,6.5-14,10.5c-4.4,4.1-9.1,8.3-14,6.2s-8.5-6.8-7.6-11.5
		c2-4.7,5.2-8.9,8.7-12.5c4.1-4.6,8.2-10,8.8-16.3c0.6-4-1.1-9.7,3.3-11.9c0.7-0.2,1.5-0.4,2.4-0.4c3.8-0.1,9.1,1.5,11.7,2.8
		c2.6,1.3,3.9,2.1,5.5,2.8c1.5,0.7,2.8,1.2,3.5,1.5c0.8,0.3,1.7,0.2,0.8-0.7c-2.2-1.9-10.4-8.7-16.8-10.5c-3.2-0.9-6.6-0.6-9.4,0.3
		c-2.8,0.9-5.1,2.3-6.2,3.7c-2,2.6-2.3,6.3-2.7,10.2c-0.4,3.9-0.8,7.9-3,11.1c-2.6,4-6.4,7.3-9.8,10.3c-3.4,3-6.4,5.7-7.3,8.7
		c-0.9,2.9-0.9,5.1-0.1,7.1c0.8,2,2.3,3.8,4.4,5.9c3.5,3.5,10.7,4,14.6,3.5c4.3-0.6,10.7-4.8,14.3-9c4.2-4,8.3-8.2,13.7-10.3
		c8.2-3.3,17.5-1.1,26.1-4c7.9-2.7,13.4-5.2,23.1-11.1c7.3-4.5,13.1-14.8,12.8-23.4c-0.3-8.7-6.2-15.2-11.8-21.6
		c-5.5-6.3-8.7-9.9-16.6-12.7c-2.2-0.8-5.7-1.4-9.2-2c-3.5-0.6-6.9-1.3-9-2.1c-9.9-3.9-20.8-8.5-24.4-15.9c-0.9-1.8-1.5-3.3-2.1-8.2
		c-0.6-5,5-12.7,6-19.8c0.2-9.4,1.8-21.3,12.3-24.6c5.5-1.5,11.3-2.2,17-2.1c9.6,0.1,19.2,2.3,27.9,6.3c4.8,2.8,10.6,4.9,14.9,8.7
		c3.3,2.1,6.4,4.8,8.8,7.8c1.5,1.8,2.9,3.7,4.2,5.7c0.6,0.8,1.2,1.7,4.3,6.5c3.1,4.8,7.5,14.9,9.4,25.3c2.9,15.5,0.7,30.3-3,45.7
		c-1.4,6-3.4,11.9-5.8,17.6c-2.1,4.2-3.6,8-4.1,8.3h0c-6.2,8.5-14.3,16.3-24.6,20.4c-8.4,3.3-6.4-0.1-17.1,0.9
		c-6.1,0.7-15.7,1.5-22.7,3.2c-8.6,2.1-11.8,6.1-11.8,6.8c0,0.7,8.7-3.4,17.8-4.2c10.7-0.9,19.9-0.9,22.6,1.9
		c1.4,1.5,3.5,1.8,5.6,1.5c2.1-0.3,4.3-1,6.1-1.7c10.1-3.8,16.5-13.1,22.3-22c6.4-9.9,10.7-21.2,13.4-32.6
		c3.7-15.4,6.6-31.9,3.6-47.6c-2.1-11.4-7.1-22.3-13.7-31.9c-2.7-4-6.9-10.2-9.3-12.8c-7.5-8.1-19.1-18.9-33.4-21
		C412.6,301.7,403.9,300.6,396.1,300.6z"/>
</g>
</svg>
