<?xml version="1.0" encoding="utf-8"?>
<!-- Generator: Adobe Illustrator 24.0.1, SVG Export Plug-In . SVG Version: 6.00 Build 0)  -->
<svg version="1.1"
	 id="svg8" inkscape:export-filename="genitourinary.png" inkscape:export-xdpi="12.1" inkscape:export-ydpi="12.1" inkscape:version="1.0 (4035a4fb49, 2020-05-01)" sodipodi:docname="genitourinary.svg" xmlns:cc="http://creativecommons.org/ns#" xmlns:dc="http://purl.org/dc/elements/1.1/" xmlns:inkscape="http://www.inkscape.org/namespaces/inkscape" xmlns:rdf="http://www.w3.org/1999/02/22-rdf-syntax-ns#" xmlns:sodipodi="http://sodipodi.sourceforge.net/DTD/sodipodi-0.dtd" xmlns:svg="http://www.w3.org/2000/svg"
	 xmlns="http://www.w3.org/2000/svg" xmlns:xlink="http://www.w3.org/1999/xlink" x="0px" y="0px" viewBox="0 0 595.3 595.3"
	 style="enable-background:new 0 0 595.3 595.3;" xml:space="preserve">
<style type="text/css">
	.st0{fill:#69C8BE;}
	.st1{fill:none;stroke:#000000;stroke-width:5.2441;stroke-linecap:round;stroke-linejoin:round;stroke-miterlimit:11.3386;}
</style>
<sodipodi:namedview  bordercolor="#666666" borderopacity="1.0" id="base" inkscape:current-layer="layer1" inkscape:cx="472.98629" inkscape:cy="419.17618" inkscape:document-rotation="0" inkscape:document-units="mm" inkscape:pageopacity="0.0" inkscape:pageshadow="2" inkscape:snap-global="false" inkscape:window-height="1008" inkscape:window-maximized="0" inkscape:window-width="1468" inkscape:window-x="436" inkscape:window-y="0" inkscape:zoom="0.7" pagecolor="#ffffff" showgrid="false">
	</sodipodi:namedview>
<g id="layer1" inkscape:groupmode="layer" inkscape:label="Layer 1">
	<path id="path855" class="st0" d="M297.6,0C133.3,0,0,133.3,0,297.6s133.3,297.6,297.6,297.6c164.1,0,297.3-133,297.6-297.1
		c0,0,0-0.1,0-0.1c0-0.1,0-0.3,0-0.4c0-0.2,0-0.3,0-0.5C595,133.1,461.8,0,297.6,0z M192.2,43.7c10-0.1,20.7,3.3,27.2,7.5
		c9.4,6.1,16.9,21.7,15.3,34.7c-0.7,5.9-6.8,15-12.3,20c0,0-0.1,0-0.1,0c-3.3,2.1-8.2,3-12.7,2.5c-4.5-0.5-8.2-2.5-10.3-4.4
		c-2.1-1.9-3.7-3.5-4.1-3.2c-1.3,0.8,0.4,3.7,1.2,5c3.7,3.8,7.1,6.3,12.5,7.1c3.9,0.6,8.1,0.6,11.9-0.4c1.6,1,3.4,2.2,5.2,3.4
		c3.5,2.1,7.9,5.8,10.4,10c8.9,14.5,5.6,32.7,5.4,47.6c-0.3,23-0.4,46.1-2.6,69.2c-3.1,31.9-13.9,63-7.5,92.5
		c2.7,12.4,10.6,20.7,14.4,34.8c3,11.4,1.8,23.1,1.1,34c-0.6,9.8-3.8,19.1-6.2,28.1c-2.4,8.9-4.1,17.4-2.3,25.5
		c0.7,3.4,4.3,9.3,7.8,13.9c1.7,2.2,2.2,2.9,4.8,0.7c4-2.7,8.3-5,12.4-6.9c8-3.6,20.9-5.2,34.1-5.2c13.2,0,26.1,1.7,34.1,5.2
		c4.1,1.8,8.4,4.1,12.4,6.8c2.3,1.6,3.1,2.3,4.8-0.6c3.5-4.6,7.1-10.5,7.8-13.9c1.7-8.1,0.1-16.5-2.3-25.5
		c-2.4-8.9-5.6-18.3-6.2-28.1c-0.7-10.9-1.9-22.6,1.1-34c3.8-14.1,11.7-22.4,14.4-34.8c6.4-29.5-4.4-60.6-7.5-92.5
		c-2.2-23.1-2.3-46.2-2.6-69.2c-0.2-14.9-3.5-33.1,5.4-47.6c2.6-4.2,6.9-7.8,10.4-10c1.9-1.1,3.7-2.3,5.2-3.4c3.8,1.1,8,1,11.9,0.4
		c5.4-0.8,8.9-3.3,12.5-7.1c0.8-1.3,2.5-4.2,1.2-5c-0.5-0.3-2,1.3-4.1,3.2c-2.1,1.9-5.8,3.8-10.3,4.4c-4.5,0.5-9.4-0.4-12.7-2.5
		c0,0-0.1,0-0.1,0c-5.5-5-11.6-14.1-12.3-20c-1.6-13.1,5.9-28.6,15.3-34.7c6.5-4.2,17.1-7.6,27.2-7.5c4.6,0,9,0.8,12.8,2.5
		c18,7.9,30.2,28.8,34.2,48c5.1,24.7,7.1,54.1-4.9,76c-8,14.6-24.9,26.9-41.5,27.1c-13.9,0.2-27.7-9.2-34.3-21.6
		c-5.6-10.6-7.8-23.9-5.1-35.6c1.1-5,5.5-10.4,8.5-13.5c-2.8-0.6-6.5,0.9-8,3.1c-7.3,11.4-5.8,28.2-5.7,43.9
		c0.3,23-0.4,45.9,1.8,68.6c3,30.7,15.1,62.7,8.2,94.7c-3.1,14.4-9.9,22.8-13.1,35.1c-2.6,9.8-0.3,20.8,0.4,31.8
		c0.5,8.5,4.3,17.2,6.8,26.5c2.5,9.2,3.5,23,1.4,32.9c-1.1,5.3-4.6,10.7-8.1,15.3c-1.7,2.3-2.4,2.7,0.1,5.1
		c3.3,4.1,5.8,8.7,6.8,13.6c2.8,12.9-5.7,26.9-14.2,37.1c-8.4,10.1-30.5,17.5-33.8,20.4c-3.2,2.9-7,19.6-9,30
		c-2.9,0.1-5.8,0.1-8.7,0.1c-2.9,0-5.8,0-8.7-0.1c-2-10.5-5.8-27.2-9-30c-3.3-2.9-25.4-10.3-33.8-20.4
		c-8.5-10.1-16.9-24.1-14.2-37.1c1.1-4.9,3.5-9.5,6.7-13.5c2.7-3.2,1.6-3.5-1-6.9c-3-4.2-5.8-8.9-6.8-13.6
		c-2.1-9.9-1.1-23.6,1.4-32.9c2.5-9.2,6.2-17.9,6.8-26.5c0.7-11,3-22,0.4-31.8c-3.3-12.3-10-20.7-13.1-35.1
		c-6.9-32,5.2-63.9,8.2-94.7c2.2-22.7,1.5-45.6,1.8-68.6c0.2-15.7,1.7-32.6-5.7-43.9c-1.4-2.2-5.2-3.7-8-3.1
		c2.9,3.2,7.3,8.6,8.5,13.5c2.7,11.7,0.5,25-5.1,35.6c-6.6,12.5-20.4,21.8-34.3,21.6c-16.6-0.2-33.5-12.5-41.5-27.1
		c-12.1-21.9-10-51.3-4.9-76c4-19.2,16.2-40.1,34.2-48C183.2,44.5,187.6,43.7,192.2,43.7z M206.2,115.8c-3.4-0.1-6.1,0.7-6.1,0.7
		c-1.5,0.4-8.7,4-8.3,5.5c0.4,1.5,8.1-0.6,9.6-1c0,0,8.3-0.8,11.9,2.9c2,2,4.2,4.9,3.1,8.3c-0.5,1.4-0.7,3.9,0.2,4.2
		c1,0.2,2.4-1.2,2.9-2.7c1.4-4.4,1.5-9.8-2.3-13.6C213.9,116.7,209.7,115.9,206.2,115.8z M389.1,115.8c-3.4,0.1-7.7,0.9-11,4.3
		c-3.8,3.8-3.7,9.2-2.3,13.6c0.5,1.4,1.9,2.9,2.9,2.7c0.9-0.3,0.7-2.8,0.2-4.2c-1.1-3.4,1.1-6.3,3.1-8.3c3.6-3.7,11.9-2.9,11.9-2.9
		c1.5,0.4,9.2,2.4,9.6,1c0.4-1.5-6.9-5.1-8.3-5.5C395.1,116.5,392.5,115.7,389.1,115.8L389.1,115.8z M193.3,379.7
		c1.3,0,2.7,0.2,3.9,0.5c3.4,0.8,6.6,2.3,9.1,3.6c9.5,4.8,14.1,15,20.2,22c1.6,1.9,2.9,3.8,4.2,5.6c-0.5,1.8-1.1,3.8-1.7,5.8
		c-2-3.1-3.7-6.3-5.8-8.6c-6.6-7.5-11.6-16.3-19.2-20.1c-2.4-1.2-5.3-2.6-7.9-3.2c-2.6-0.6-4.4-0.4-5.6,0.6
		c-0.6,0.5-0.7,0.9-0.6,2.1c0,1.2,0.5,2.8,1,4.7c0.5,1.8,1.2,3.8,1.4,5.9c0.2,2.1,0.7,5.1-0.8,7.1c-2.3,3.2-6.8,4.2-10.2,3.4
		c-4.3-1-6.5-4-8.2-6.8c-0.9-1.4-2-2.2-2.8-3c-0.8-0.8-1.4-1.2-2.1-1.3c-6.4-0.9-9.9,2.4-13.4,8.2c-3.3,5.6-1.9,13.4,2.7,18.3
		c4.6,4.9,9.6,8.6,15.1,11c4.9,2.1,10.5,1.9,15.7,3c3.8,4.2-7.8,2.4-9.5,5.6c0.6,5.2-2.7,8.8-8.3,8.1c-6.3-0.3-7.1,9.3-13.4,8.7
		c-7.3-2.8-7.4,11.4-14.8,7.5c-4.5-4.5,0.4-11.5,0.5-16.7c0.7-7.6,1.6-15.6-0.6-23.4c-2.1-7.8-2.8-18,2-26.1
		c4.7-7.8,16.1-13.1,25.4-11.7c2.2,0.3,3.9,1.5,5.2,2.9c1.3,1.4,2.2,2.9,3.1,4.3c1.7,2.8,2.9,5.4,4.4,5.7c1.3,0.3,3.6-0.4,4.2-1.2
		c0.5-0.6,0.6-1.4,0.4-2.8c-0.2-1.4-0.7-3.2-1.2-5c-0.6-1.9-1.2-3.8-1.2-5.9c-0.1-2.1,0.5-4.6,2.4-6.2c1.5-1.3,3.2-1.9,4.9-2.2
		C192.4,379.8,192.9,379.7,193.3,379.7z M402,379.7c0.4,0,0.9,0,1.3,0.1c1.8,0.2,3.5,0.9,4.9,2.2c1.9,1.7,2.5,4.1,2.4,6.2
		c-0.1,2.1-0.7,4.1-1.2,5.9c-0.6,1.9-1.1,3.7-1.2,5c-0.2,1.4,0,2.2,0.4,2.8c0.5,0.7,2.9,1.5,4.2,1.2c1.5-0.4,2.7-2.9,4.4-5.7
		c0.9-1.4,1.8-2.9,3.1-4.3c1.3-1.4,3-2.6,5.2-2.9c9.3-1.4,20.7,3.9,25.4,11.7c4.8,8,4.1,18.3,2,26.1c-2.1,7.8-1.2,15.8-0.6,23.4
		c0.1,5.2,5.1,12.3,0.5,16.7c-7.4,4-7.5-10.3-14.8-7.5c-6.2,0.6-7-9-13.4-8.7c-5.6,0.7-8.8-2.9-8.3-8.1c-1.7-3.2-13.3-1.4-9.5-5.6
		c5.2-1.1,10.8-0.9,15.7-3c5.5-2.3,10.5-6.1,15.1-11s6-12.7,2.7-18.3c-3.5-5.8-7-9.1-13.4-8.2c-0.7,0.1-1.3,0.5-2.1,1.3
		c-0.8,0.8-1.9,1.6-2.8,3c-1.7,2.8-4,5.8-8.2,6.8c-3.4,0.8-7.9-0.2-10.2-3.4c-1.5-2-1-5-0.8-7.1c0.2-2.1,0.9-4.1,1.4-5.9
		c0.5-1.8,1-3.5,1-4.7c0.1-1.2-0.1-1.6-0.6-2.1c-1.2-1-3-1.2-5.6-0.6c-2.6,0.6-5.5,1.9-7.9,3.2c-7.6,3.8-12.6,12.6-19.2,20.1
		c-2.1,2.4-3.8,5.5-5.8,8.6c-0.6-2-1.2-4-1.7-5.8c1.3-1.9,2.6-3.8,4.2-5.6c6-7,10.6-17.2,20.2-22c2.5-1.3,5.7-2.8,9.1-3.6
		C399.3,379.9,400.6,379.7,402,379.7z M296.7,407.8c1.3,0,2.6,0.1,3.9,0.1c12.6,0.9,26.5,4.3,35.6,13.1c3,3,3.4,6.7,8.7,4.6
		c0.2,0,0.3-0.1,0.5-0.1c0.5,1.6,0.9,3.1,1.3,4.7c-0.4,0.1-0.9,0.2-1.3,0.3c-3.9,0.9-3.6,1.5-3,5.8c0.2,7.4-2.8,15-7.1,21.2
		c-10-4.2-22.9-5.5-36.3-5.5c-13.9,0-27.3,1.4-37.4,6c-0.4,0.2-0.8,0.4-1.2,0.6c-0.6-0.6-1.2-1.2-1.6-1.8
		c-4.4-6.5-7.3-15.3-5.5-22.9c0.9-3-0.4-2.6-3.6-3.3c-0.4-0.1-0.9-0.2-1.3-0.3c0.4-1.5,0.9-3.1,1.3-4.7c0.2,0,0.3,0.1,0.5,0.1
		c3.6,0.8,6.5,1.7,8.8-2.3c3.1-3.6,7.1-6.6,11-8.9C278,409.9,287.5,407.8,296.7,407.8L296.7,407.8z M195.1,443.3
		c3.1,0.1,6.6-0.2,9.1,1.7c1.3,0.9,2.2,2.6,2.2,4.1c0,7.3-4.9,14.3-10.2,19.3c-6.9,6.6-16.7,12-25.9,12.1c-5.7,0.1-11.5-4-12.7-5.5
		c-0.5-0.5-1.8-2.8-2.6-5.4c0.2-0.3,0.4-0.6,0.6-0.9c0.6-0.8,0.6-0.9,2.5-0.9c1.9,0,5.2-1.3,7.2-2.9c2-1.6,3.1-3.1,4-4.3
		c0.9-1.1,1.5-1.9,1.7-2c4,0.2,8.1-0.9,10.9-3.7c1.8-1.8,2.7-4,3.3-6.4c0.6-0.1,0.9-0.2,1.7-0.3c1.5-0.3,3.1,0.1,6.1-2.4
		c0.7-0.5,1.4-1.5,1.7-2C194.9,443.3,195,443.3,195.1,443.3z M400.2,443.3c0.1,0,0.1,0,0.4,0.5c0.3,0.5,1,1.5,1.7,2
		c3,2.4,4.6,2.1,6.1,2.4c0.7,0.1,1.1,0.2,1.7,0.3c0.5,2.4,1.5,4.6,3.3,6.4c2.8,2.9,6.9,3.9,10.9,3.7c0.2,0.1,0.8,0.8,1.7,2
		c0.9,1.2,2,2.7,4,4.3c2,1.6,5.3,2.8,7.2,2.9c1.9,0,1.9,0.1,2.5,0.9c0.2,0.3,0.4,0.6,0.6,0.9c-0.9,2.6-2.2,4.9-2.6,5.4
		c-1.2,1.4-7,5.5-12.7,5.5c-9.2-0.1-19-5.5-25.9-12.1c-5.3-5-10.2-12-10.2-19.3c0-1.6,0.9-3.2,2.2-4.1
		C393.6,443.1,397.1,443.4,400.2,443.3z"/>
	<polygon id="path832" class="st1" points="297.6,297.6 297.6,297.6 297.6,297.6 297.6,297.6 	"/>
</g>
</svg>
