<?xml version="1.0" encoding="utf-8"?>
<!-- Generator: Adobe Illustrator 24.0.1, SVG Export Plug-In . SVG Version: 6.00 Build 0)  -->
<svg version="1.1"
	 id="svg8" inkscape:export-filename="head_and_neck.png" inkscape:export-xdpi="12.1" inkscape:export-ydpi="12.1" inkscape:version="1.0 (4035a4fb49, 2020-05-01)" sodipodi:docname="head_and_neck.svg" xmlns:cc="http://creativecommons.org/ns#" xmlns:dc="http://purl.org/dc/elements/1.1/" xmlns:inkscape="http://www.inkscape.org/namespaces/inkscape" xmlns:rdf="http://www.w3.org/1999/02/22-rdf-syntax-ns#" xmlns:sodipodi="http://sodipodi.sourceforge.net/DTD/sodipodi-0.dtd" xmlns:svg="http://www.w3.org/2000/svg"
	 xmlns="http://www.w3.org/2000/svg" xmlns:xlink="http://www.w3.org/1999/xlink" x="0px" y="0px" viewBox="0 0 595.3 595.3"
	 style="enable-background:new 0 0 595.3 595.3;" xml:space="preserve">
<style type="text/css">
	.st0{fill:#69C8BE;}
</style>
<sodipodi:namedview  bordercolor="#666666" borderopacity="1.0" id="base" inkscape:current-layer="layer1" inkscape:cx="328.88927" inkscape:cy="204.90082" inkscape:document-rotation="0" inkscape:document-units="mm" inkscape:pageopacity="0.0" inkscape:pageshadow="2" inkscape:snap-global="false" inkscape:window-height="1040" inkscape:window-maximized="0" inkscape:window-width="1698" inkscape:window-x="182" inkscape:window-y="0" inkscape:zoom="0.35" pagecolor="#ffffff" showgrid="false">
	</sodipodi:namedview>
<g id="layer1" inkscape:groupmode="layer" inkscape:label="Layer 1">
	<path id="path1054" class="st0" d="M297.3,0C133.1,0.2,0,133.4,0,297.6C0,462,133.3,595.3,297.6,595.3
		c164.4,0,297.6-133.3,297.6-297.6C595.3,133.3,462,0,297.6,0C297.5,0,297.4,0,297.3,0z M253.1,45.9c36.8,0.2,84.2,16.2,112.1,40.2
		c24.1,20.7,45.1,51.3,47.8,81.8c1.8,20.2,3.7,41.2-1.4,60.8c-4,15.4-16.4,30.4-24,44.3c-10,18.2-24.1,27.9-28.6,48.2
		c-2.9,13-2.8,31.5,2.6,43.7c8.8,19.4,27.8,32.9,44.9,45.6c33.5,25,89.9,46.3,110.8,58.7c-16.5-0.7-36.7-0.3-54.3,4.3
		c-30.1,7.9-55.3,29.1-84.7,39.1c-23,7.8-47.8,8.9-71,15.9c-16.8,5.1-31.9,21.5-49.3,18.8c-13.4-2.1-19.9-18.9-31.9-25.4
		c-9.6-5.2-18.1-8.4-29.5-11.4c-10.2-2.7-28.2-5.4-28.2-15.9c6.3-5.2,38.2-18.1,38.6-29.1c0.8-24.3-4.7-76.9-19.2-111.5
		c-11.2-26.6-53.3-29.5-66.6-55c-4-7.7-4.2-14.3-1.1-22.5c1.5-4,5.2-7,6.5-11c3.3-10.3-4.3-20.7-4.2-29.5c0-2.9,4.3-7.4,5.2-10.1
		c-2.1-4.5-3.4-11.3-2-16.7c1.7-6.6,12.1-10.5,12.1-17.4c0-7.4-4.4-6.8-8.6-12.8c-4.8-6.9-11.3-15.9-7.7-23.5
		c3.4-7.1,14-12.5,20.2-15.9c0.1,0,0.1,0,0.2,0c0,0,10.6-5.6,14.7-8.7c5.5-4.1,8.4-9.7,6.7-13.7c-0.3-0.6-1.4-1.5-1.6-1.5
		c-0.2,0,1,0.9,1.2,1.6c1.2,3.7-1.4,9-6.8,13c-3.1,2.3-9.9,5.5-12.9,6.8c3.2-7.4,0.4-18.6,4-25.7c6.6-13.3,19.9-20.9,30.4-31.3
		C195.4,62.4,214,45.7,253.1,45.9L253.1,45.9z M377.6,182.7c-3.4-0.1-7,1.4-10.1,2.8c-1.9,0.9-3.5,1.9-3.5,1.9
		c-1.3,0.7-2.7,2.1-2.6,2.2c0.1,0.2,1.6-1.1,2.9-1.8c0,0,1.9-1,3.5-1.7c3.5-1.5,7.6-3.2,11.1-2.6c8.7,1.5,17.7,7.8,21.6,15.7
		c3.6,7.2,2.8,18.3-0.1,25.9c-3.3,8.8-12.3,16.5-20.1,21.9c-8.5,5.8-15.7,8.9-25.6,11.5c-3.8,1-8.5,2.2-13.1,2.7
		c-4.6,0.5-9.1,0.3-12.4-1.6c-2.9-1.7-4-4.5-4.2-9.1c-0.1-1.3-0.3-1.1-0.7-0.1c-3,7.7-8.4,14.9-14.4,20.9
		c-8,7.9-17.8,14.2-28.1,18.8c-22.5,9.9-47.1,16.2-71.6,17.4c-12.4,0.6-24.6-2.9-36.8-5.4c-10.4-2.1-20.9-2.3-28.2-1.7
		c-3.7,0.3-8.1,1.2-9.8,1.8c-0.8,0.3-1.4,0.6-1.7,1.1c-0.1,0.3-0.1,0.6,0.1,0.8c1,0.9,0.5-0.2,0.6-0.5c0-0.1,0.4-0.4,1.2-0.7
		c1.6-0.5,6-1.5,9.6-1.8c7.2-0.6,17.7-0.4,28,1.7c12.2,2.5,24.6,6.6,37.1,6.1c24.6-1.1,49.4-6,72-15.9c10.4-4.6,20.7-9.9,28.8-17.8
		c5.8-5.8,8.8-9.3,12.8-16.4c2.5,3.1,3.1,3,5.9,4.6c3.5,2,7.8,1.4,12.5,0.9c4.7-0.5,9.6-1.8,13.4-2.8c10-2.6,17.2-6.6,25.8-12.4
		c7.9-5.4,16.8-14.3,20.3-23.4c3-7.8,3-19.1-0.7-26.6c-4-8.1-13.2-14.5-22.1-16C378.6,182.7,378.1,182.7,377.6,182.7L377.6,182.7z
		 M325.1,290.6c-0.1-0.1-1.4,2-2.9,4.7c0,0-27.6,42.6-35.7,66c-10.3,29.6-16.6,92-16.6,92c-0.4,5.8-0.6,9.7,0.7,0.1
		c0,0,10.1-62.4,20.4-91.9c8.1-23.2,31.8-65.8,31.8-65.8C324.5,292.1,325.2,290.7,325.1,290.6z"/>
</g>
</svg>
