<?xml version="1.0" encoding="utf-8"?>
<!-- Generator: Adobe Illustrator 24.0.1, SVG Export Plug-In . SVG Version: 6.00 Build 0)  -->
<svg version="1.1"
	 id="svg8" inkscape:export-filename="metabolism.png" inkscape:export-xdpi="12.1" inkscape:export-ydpi="12.1" inkscape:version="1.0 (4035a4fb49, 2020-05-01)" sodipodi:docname="metabolism.svg" xmlns:cc="http://creativecommons.org/ns#" xmlns:dc="http://purl.org/dc/elements/1.1/" xmlns:inkscape="http://www.inkscape.org/namespaces/inkscape" xmlns:rdf="http://www.w3.org/1999/02/22-rdf-syntax-ns#" xmlns:sodipodi="http://sodipodi.sourceforge.net/DTD/sodipodi-0.dtd" xmlns:svg="http://www.w3.org/2000/svg"
	 xmlns="http://www.w3.org/2000/svg" xmlns:xlink="http://www.w3.org/1999/xlink" x="0px" y="0px" viewBox="0 0 595.3 595.3"
	 style="enable-background:new 0 0 595.3 595.3;" xml:space="preserve">
<style type="text/css">
	.st0{fill:#69C8BE;}
</style>
<defs>
	
		<inkscape:path-effect  copytype="single_stretched" effect="skeletal" fuse_tolerance="0" hide_knot="false" id="path-effect1432" is_visible="true" lpeversion="1" normal_offset="0" pattern="m 691.27539,1269.043 a 2.3033799,2.3033799 0 0 0 -1.80664,3.6465 c 4.84644,6.7525 7.77335,14.4148 8.78516,22.2421 H 393.95703 a 6.1417323,6.1417323 0 0 0 -6.14258,6.1407 6.1417323,6.1417323 0 0 0 6.14258,6.1425 h 304.30859 c -0.99762,7.8004 -3.91596,15.3783 -8.78124,21.9903 a 2.3033799,2.3033799 0 0 0 2.64843,3.5293 l 80.52344,-29.6172 a 2.3033799,2.3033799 0 0 0 0,-4.3184 l -80.52344,-29.6152 a 2.3033799,2.3033799 0 0 0 -0.73047,-0.1406 2.3033799,2.3033799 0 0 0 -0.12695,0 z" prop_scale="0.26" prop_units="false" scale_y_rel="false" spacing="0" tang_offset="0" vertical_pattern="false">
		</inkscape:path-effect>
	
		<inkscape:path-effect  copytype="single_stretched" effect="skeletal" fuse_tolerance="0" hide_knot="false" id="path-effect1339" is_visible="true" lpeversion="1" normal_offset="0" pattern="m 691.27539,1269.043 a 2.3033799,2.3033799 0 0 0 -1.80664,3.6465 c 4.84644,6.7525 7.77335,14.4148 8.78516,22.2421 H 393.95703 a 6.1417323,6.1417323 0 0 0 -6.14258,6.1407 6.1417323,6.1417323 0 0 0 6.14258,6.1425 h 304.30859 c -0.99762,7.8004 -3.91596,15.3783 -8.78124,21.9903 a 2.3033799,2.3033799 0 0 0 2.64843,3.5293 l 80.52344,-29.6172 a 2.3033799,2.3033799 0 0 0 0,-4.3184 l -80.52344,-29.6152 a 2.3033799,2.3033799 0 0 0 -0.73047,-0.1406 2.3033799,2.3033799 0 0 0 -0.12695,0 z" prop_scale="0.26" prop_units="false" scale_y_rel="false" spacing="0" tang_offset="0" vertical_pattern="false">
		</inkscape:path-effect>
</defs>
<sodipodi:namedview  bordercolor="#666666" borderopacity="1.0" id="base" inkscape:current-layer="layer1" inkscape:cx="554.96848" inkscape:cy="561.49572" inkscape:document-rotation="0" inkscape:document-units="mm" inkscape:pageopacity="0.0" inkscape:pageshadow="2" inkscape:snap-global="false" inkscape:window-height="1008" inkscape:window-maximized="0" inkscape:window-width="1305" inkscape:window-x="599" inkscape:window-y="0" inkscape:zoom="0.49497475" pagecolor="#ffffff" showgrid="false">
	</sodipodi:namedview>
<g id="layer1" inkscape:groupmode="layer" inkscape:label="Layer 1">
	<path id="path857" class="st0" d="M257.4,306.3c-2.3,0-4.5,0.1-6.8,0.3c-7.6,0.5-15.4,1.9-23.1,4c-0.2,0.1-0.4,0.1-0.6,0.3
		c0,0-0.1,0-0.1,0.1c-1.4,0.9-1.3,2.7,0.1,3.1c6.3,1.8,11.2,5.6,14.7,10.2c-7.7,4.4-14.8,9.7-21.1,15.8c-9.9,9.6-18,21-23.7,33.7
		c-5.8,13.1-9,27.3-9.3,41.6c-0.3,14.3,2.3,28.6,7.6,41.9c5.1,12.8,12.8,24.6,22.3,34.6c8.5,8.8,18.5,16.2,29.4,21.7
		c2.4,1.2,5.1,0.1,6.1-2.1c1-2.3,0-4.9-2-6c-10-5-19.2-11.8-27-19.8c-8.8-9.1-15.8-19.9-20.5-31.6c-4.9-12.1-7.2-25.3-7-38.4
		c0.3-13.1,3.1-26.2,8.5-38.1c5.1-11.5,12.6-22.1,21.7-30.8c5.8-5.6,12.4-10.5,19.4-14.5c2.2,5.3,3.4,11.1,3.7,16.7
		c0.1,1.6,2,2.5,2.7,1.4c2.9-4.6,6.3-9,10.3-13.1c8.5-8.8,19.8-16.2,33-21c1.4-0.5,1.5-2.6,0-3.2c-11-4.1-23.2-6.5-36.2-6.6
		C258.9,306.3,258.2,306.3,257.4,306.3L257.4,306.3z M338.6,320.4c-1.8-0.1-3.5,1-4.2,2.7c-1,2.3,0,4.9,2.1,5.9
		c10.1,4.8,19.4,11.4,27.3,19.3c8.9,8.9,16.1,19.6,21.1,31.2c5.1,12,7.7,25.2,7.7,38.3c0,13.1-2.6,26.2-7.7,38.3
		c-4.9,11.6-12.1,22.3-21.1,31.2c-5.7,5.7-12.1,10.7-19.1,14.9c-2.3-5.3-3.6-11.1-4-16.7c-0.1-1.6-2.1-2.4-2.7-1.3
		c-2.8,4.6-6.1,9.1-10,13.3c-8.3,8.9-19.5,16.5-32.6,21.6c-1.4,0.6-1.5,2.6,0,3.2c13.6,4.8,29.1,7,45.3,5.5c7.6-0.7,15.3-2.2,23-4.5
		c0.2-0.1,0.4-0.2,0.6-0.3c0,0,0.1,0,0.1-0.1c1.4-1,1.2-2.7-0.2-3.1c-6.3-1.7-11.3-5.4-14.9-9.9c7.6-4.5,14.6-10,20.8-16.2
		c9.8-9.8,17.6-21.4,23-34.1c5.6-13.2,8.4-27.5,8.4-41.8c0-14.3-2.9-28.6-8.4-41.8c-5.4-12.7-13.2-24.4-23-34.1
		c-8.7-8.7-18.8-15.8-29.8-21.1C339.8,320.6,339.2,320.5,338.6,320.4z M303.1,343.8l-41.1,84.8h35.8l-11.5,62.2l41.1-84.8h-35.8
		L303.1,343.8z M297.6,0c164.3,0,297.6,133.3,297.6,297.6S461.9,595.3,297.6,595.3S0,461.9,0,297.6S133.3,0,297.6,0z M277.8,13.1
		L277.8,13.1c-1.2,0-2.4,0-3.6,0l0,0c-15.8,0.3-32.8,5.7-46.1,14.2c-13.3,8.6-19.4,16.7-25.5,31.3c-5,12.1-6.6,20-7.6,33.1
		c-1,11.9-5.7,25.9-2.7,32.9c0.8,3.2,4.4,13.6,3.7,18.9c-1.2,8.9-6.3,13.1-3.2,27.3c3.2,11.7,6.3,20.3,8,29.3
		c2.7,14.6,8.4,28.5,12.6,34.2c2.9,3.8,10.5,11.4,17.8,11.8c8.8,0.6,13.4,0.6,20.8-1.5c4.7-1.4,14.1-6.3,17.8-9
		c8.2-5.1,13.5-10.3,18.4-14.6c7.8-6.9,17.9-14.8,22.5-25.3l0,0c1.9-4.9,3.5-1.3,2.8,1.6c-3.6,10.9-12,19.6-19.1,27.1
		c-6.4,6.7-10.6,14.2-19.5,19.7c-4.3,2.7-8.4,6.3-11.7,7.3c-1.8,0.6-4,1.3-6.1,1.8c-0.9,5-1.1,8.1-3.8,13.2
		c-11,9.9-30.1,13.5-44.2,22.3c-36,19.6-60.7,56.6-68.2,103.4c-1.9,14.7-4.7,31.2-5.5,46c-0.6,11.4-3.7,27.1-4.3,38.7
		c-2.1,15.6-3,40.6-3.1,50.4c10.4,7.7,21.3,14.6,32.6,20.9c-5.6-36.7-14.3-58.1-7.8-103.2c2.2-18.2,7.3-54.1,14.8-70.7
		c6.2-13.3,10.1-20,11.3-20.2c1.3-0.2-0.3,7.1-5.1,21.8c-6.9,15.5-9.2,53.8-11.2,70.6c-3.9,35.3,5.7,64,14.9,109
		c0,0.4,0.1,0.8,0.1,1.2c36.5,16.9,77.2,26.4,120.2,26.4c52,0,100.8-13.9,142.8-38.2c3.7-17.7,8.3-33.6,15.3-47.5
		c-0.7-5.5,0.9-11.6-0.9-21.3c-1.1-5.7-2.1-12.1-3.8-17.3c-1.8-5.7-4.8-10.9-8.5-17.5c-3.1-5.7-6.7-10.9-11.1-16.5
		c-4.5-6.4-5.6-8.9-7.1-17c-1.2-6.5-0.5-11,1-11c1.2,0,2.8,2.7,4.4,9.3c1.7,6,4.8,10.3,7.4,13.7c1.8,2.4,7.7,9.2,11.5,14
		c5,6.1,10.6,16,13.4,23.8c1.8,5.1,3.3,10,4.1,14.9c1.6,10.5,4.7,21.2,5,22.5c1.8,6.9,4.1,15.4,6.5,24.2
		c26.8-21.8,49.6-48.3,67.1-78.3c-2.4-9.7-5-19.8-7.8-30.5c-3.7-15.6-10.3-34.9-17.2-52.2c-13.3-38.7-36.4-63.3-86.3-85.4
		c-11.7-5.2-23.6-8.4-34.3-13.8c-12.2-6.2-23.9-7.6-32-18.6c-11.8-15.9-14.7-46.3-16.9-66c-0.8-6.8,17.7-13,20.7-57.6
		c1-15.1-0.4-30.7-4-45.3c-4.2-17.1-16.5-37.4-33.4-47.3C318.4,15.8,295.9,13.1,277.8,13.1z M337.8,112.2c3.7-0.1,5.5,0.9,9.5,2.9
		c5,2.8,7.5,9.9,7.6,14.4c-0.1,8.8-1.6,15.6-4.8,23.6c-2.6,6.5-5.4,10.9-10.9,16.5c-2.6,2.7-5.8,2.5-8,2.8c-3.7-0.2-9.2-0.9-8.9-3.6
		c1.6-1.9,3-1.8,7-1.7c2.1-0.3,4.6-1.1,4.6-1.2c4.5-3,7.1-8.3,10.1-14.5c3.2-6.5,5.2-15.4,5-22.3c-0.2-4.1-2.9-8.1-5.2-10
		c-0.3-0.2-2.5-2.5-6.7-2c-4.5,0.5-8.6,3.2-10.6,6.3c-0.9,1.2-1.8,3.2-2.6,5.7c-0.8,2.5-1.3,4.6-1.3,4.6c-0.7,2.3-3.1,1.9-2.8-0.9
		c0,0,0.2-2.6,0.7-5.6c0.5-3.2,1.1-5.6,3.9-8.6C329.8,113.1,333.2,112.6,337.8,112.2L337.8,112.2z"/>
</g>
</svg>
