<?xml version="1.0" encoding="utf-8"?>
<!-- Generator: Adobe Illustrator 25.3.1, SVG Export Plug-In . SVG Version: 6.00 Build 0)  -->
<svg version="1.1"
	 id="svg8" inkscape:export-filename="mouse_black_var_sq.png" inkscape:export-xdpi="12.1" inkscape:export-ydpi="12.1" inkscape:version="1.0 (4035a4fb49, 2020-05-01)" sodipodi:docname="mouse_black.svg" xmlns:cc="http://creativecommons.org/ns#" xmlns:dc="http://purl.org/dc/elements/1.1/" xmlns:inkscape="http://www.inkscape.org/namespaces/inkscape" xmlns:rdf="http://www.w3.org/1999/02/22-rdf-syntax-ns#" xmlns:sodipodi="http://sodipodi.sourceforge.net/DTD/sodipodi-0.dtd" xmlns:svg="http://www.w3.org/2000/svg"
	 xmlns="http://www.w3.org/2000/svg" xmlns:xlink="http://www.w3.org/1999/xlink" x="0px" y="0px" viewBox="0 0 595.3 595.3"
	 style="enable-background:new 0 0 595.3 595.3;" xml:space="preserve">
<sodipodi:namedview  bordercolor="#666666" borderopacity="1.0" id="base" inkscape:current-layer="layer1" inkscape:cx="422.75304" inkscape:cy="422.51884" inkscape:document-rotation="0" inkscape:document-units="mm" inkscape:pageopacity="0.0" inkscape:pageshadow="2" inkscape:snap-global="false" inkscape:window-height="1001" inkscape:window-maximized="0" inkscape:window-width="1233" inkscape:window-x="671" inkscape:window-y="0" inkscape:zoom="0.7" pagecolor="#ffffff" showgrid="false">
	</sodipodi:namedview>
<g id="layer1" inkscape:groupmode="layer" inkscape:label="Layer 1">
	<path id="path831" d="M473.3,8c-1.9,0-3.1,0.6-3.8,0.9c-0.8,0.3-1.1,0.6-1.5,0.7c-24.9,12.5-49.2,30.9-72.5,44.2
		C367,70,345.4,89.1,322.9,112.3c-20.6,21.2-57.1,65-61,69.7c-1,1.3-4.7,5.6-9.3,9.2c-17.3,2.7-46.3,8.2-62.4,16.1
		c-31.5,15.5-59.3,38.3-78.8,67.4c-15.4,23-25,49.4-26.2,77.1c-0.7,16.1,6.3,44.4,9.8,57.8c-13,6.7-16.5,8.5-19.2,9.7
		c-6.4,2.7-7.5,8.1-8.2,12c-0.6,3.9-0.9,6.8,1,11.3c0.9,1.9,4.4,5,7.5,5.1c1.9,0.1,2.4-0.5,3.2-0.9c0.2,1.6,0.1,3.2,0.6,4.7
		c0.3,1.1,0.8,2.7,2,4.8c0.7,1.1,1.8,2.4,3.3,3.6c0.3,0.6,0.6,1.3,1.4,2.3c1,1.3,3.8,4.1,8.3,3.5c1.3-0.1,2.3-0.7,3.2-1.3
		c0.8,0.7,1.8,1.3,3.1,1.6c3.2,0.8,5.1-0.1,6.3-0.7c1.1-0.6,1.7-1,2.3-1.4c0.2-0.1,0.2-0.2,0.5-0.3c0,0,0,0,0.1,0
		c0.9-0.2,3-0.5,5.4-2.2c1.1-0.8,5.4-6.3,8-9.7c4.2,3.1,9.1,6.7,12.5,9.2c5.9,4.4,10.9,10.5,17.6,13.5c8.1,3.6,22.1,2.7,26,5.2
		c6.1,3.9,19.1,12.1,26,20.8c2.2,2.7,4.7,5.6,7.2,8.5c0.1,0.2,0.1,0.3,0.2,0.6c6.8,11.4,5.1,22.4,4.9,25.8c-0.6,0.3-0.9,0.7-1.8,1.1
		c-1.4,0.8-3,1.7-4.7,3c-1.7,1.3-3.9,2.8-5.2,6.5c-1.6,4.3-1.5,9-0.5,12.5c1,3.5,2.5,6.1,3.6,8.5c0.6,1.3,1.7,3.8,3.4,6.3
		c0.8,1.3,1.4,2.6,4.3,4.3c1.5,0.9,4.3,1.8,7.3,0.9c3.1-0.9,4.8-3.2,5.6-4.8c0-0.1,0,0,0-0.1c0.7-0.3,1.3-0.7,2-1.4
		c1.9,2.6,4.3,6.3,9.1,9.3c0.1,0.1,0.2,0.2,0.3,0.5c0.3,0.5,0.8,1.1,2,2.3c1.3,1,4.3,3.1,8.1,2.3c5.5-1.1,5.4-3.4,5.8-4.2
		c0.1-0.2,0.1-0.3,0.2-0.5c1.1,0.5,2.3,0.7,3.4,1c0.2,0.3,0.3,0.5,0.8,0.9c0.3,0.5,0.8,0.9,1.9,1.6c1,0.7,3.4,2.3,7.2,1.3l0,0
		c3.1-0.8,4.7-3,5.4-4.2c0.7-1.3,0.9-2,1-2.6c0.3-1.3,0.3-2,0.5-2.7c0-0.1,0-0.1,0-0.2c-0.2,0.5-0.5,1.1-1.7,2.5
		c0.7-0.8,0.6-1.7,1-2.6c0.2,0,0.5-0.1,0.7-0.1c0-0.2,0.1-0.7,0.1-0.7s0.2,0.1,0.1,0.6c0.9-0.1,1.8,0.1,2.7-0.3
		c3.4-1.6,4-3.3,4.6-4.4c0.6-1.1,0.9-1.9,1.1-2.6c0.6-1.5,1-3.1,0.8-2.5c1.1-3.2,0.9-6.9-0.2-9.6c-1-2.6-2.5-4.3-3.9-5.7
		c-2.5-2.7-4.7-4.8-4.9-5.2c-0.9-1.5-1.6-2.8-3-4.8c-1.5-1.9-3.8-4-6.4-5.4c-2.4-1.4-4.3-2.3-6.5-3.3c1,0.6-1.7-2.3-3-5.2
		c-0.9-1.9-5.7-12.5-7.7-18.3c6.8,0.1,18.6,0.3,25.7-0.1c14.6-0.9,34.8-5.7,39.3-3.8c2.5,1,8.4,4.1,11,4.8c6,1.7,10.7-4.6,17-5.1
		c2.8-0.2,6.7,0.1,10.2,0.7c-1.8,6.4-5.4,18-6.1,19.2c-0.9,1.4-4.1,3.6-6,9.6c-1,3.3-1.7,6.6-0.8,10.8c-0.1-0.7,0.1,1,0.3,2.6
		c0.1,0.8,0.2,1.6,0.6,2.7c0.3,1.1,0.1,3.3,4.3,5.7l0,0c0.2,0.1,0.7,0,1,0.1c0,1-0.2,1.8-0.1,3c0.7,3.8,1.7,8.3,5.4,12.6
		c-0.2-0.3,0-0.1,0.1,0.1l-0.1-0.1l0.1,0.1l0,0c0.1,0.2,0.3,0.3,0.5,0.6c-0.2-0.2-0.3-0.5-0.5-0.6c0.2,0.3,0.5,0.9,0.8,1.6
		c0.3,0.7,0.7,1.4,1.4,2.4c0.7,0.9,0.7,2.6,5.1,4.1l0,0c2.6,0.9,6.5-0.1,8.2-1.5c1.1-0.9,1.4-1.6,1.7-2.2c0.7,0.7,1.3,1.6,2,2
		c-2.5-1.6-1.1-0.9-0.1,0.3c0.5,0.6,1,1.4,2.3,2.4c1.3,1,3.6,2.7,7.4,2.3c4.3-0.6,5.5-2.6,6.3-3.6c0.8-1,1.1-1.7,1.5-2.2
		c0.9,1.4,3.2,4.1,7.6,4c4.4-0.1,6.8-3.1,7.6-4.4c0.8-1.4,1.1-2.2,1.4-2.7c0-0.1,0-0.1,0.1-0.2c3-3.3,3.5-7.2,3.9-9.1
		c0.5-2.4,0-3.9-0.3-5.5l0,0c2.4-2.2,3-4,3.4-4.8c2.2-4.1,1.3-7.9,0.6-10c-0.7-2.2-1.4-3.5-1.5-3.9c-1-3-2.3-8.4-7.4-12.2
		c-2.6-1.9-4.2-2-5.6-2.3c-0.6-1.4-4.2-4.8-3.8-7.7c0.5-3,2.3-18.4,4.6-29c2.7-6,6-11.8,10.1-16.6c-9.3,3.5-18.6,7.1-27.9,9.6
		c-9.3,2.4-20.8,4-0.7-1.9c11.7-3.4,22.8-8.3,34.3-13.1c0.5-0.3,0.9-0.7,1.3-1c4.1-3,9-4.3,14.1-4.9c-6.5,11.7-12.4,25.6-17.5,42.8
		l0,0c-0.9,3.3-1.6,5.5-1.8,6.7c-0.1,0.6-0.2,1-0.3,1.3c0,0.1,0,0.1,0,0.3c0,0.1,0,0.2,0.1,0.5c0,0.1,0.1,0.1,0.1,0.2
		c0.1,0.1,0.2,0.2,0.2,0.2l0.3,0.1c0,0,0.2,0,0.3,0c0.5-0.1,0.6-0.2,0.7-0.3c0.1-0.1,0.1-0.1,0.1-0.2c0.1-0.1,0.1-0.1,0.1-0.2
		c0.2-0.6,0.6-1.5,1-2.8c0.5-1.4,1-3.1,1.7-4.9l0,0c6-18.1,12.4-32.1,19.4-44.1c2.2-0.1,4.3-0.1,6.5-0.2h1.9c1,0,2,0,3-0.1
		c-3.1,7.3-6,16.8-10.6,31.1v0.1c-0.6,3.4-0.9,5.6-1,6.8c-0.1,0.7-0.1,1-0.1,1.4c0,0.1,0,0.1,0,0.3c0,0.1,0,0.2,0.2,0.5
		c0,0.1,0.1,0.1,0.1,0.2c0.1,0.1,0.3,0.2,0.3,0.2l0.5,0.1c0,0,0.2,0,0.3,0c0.5-0.1,0.6-0.3,0.6-0.5c0.1-0.1,0.1-0.1,0.1-0.2
		s0.1-0.1,0.1-0.2c0.2-0.6,0.5-1.5,0.7-3c0.3-1.4,0.7-3.2,1.1-5c5.1-15.1,8.4-24.8,11.6-32.1c0.1,0,0.1,0,0.2,0
		c1.9-0.1,3.9-0.1,5.9,0l1.6,0.1c1.4,0.1,2.7,0.2,4,0.3c-1.1,7.2-2,15.3-2.5,21.9l0,0c-0.1,3.3-0.1,5.4-0.1,6.6c0,0.6,0,1,0,1.3
		c0,0.1,0,0.1,0.1,0.3c0,0.1,0,0.1,0.1,0.3c0.1,0.1,0.1,0.2,0.3,0.3c0.1,0,0.3,0.1,0.3,0.1h0.3c0,0,0.2-0.1,0.3-0.1s0.1-0.1,0.2-0.1
		c0.1-0.1,0.2-0.2,0.2-0.2c0.1-0.1,0.1-0.2,0.1-0.2c0-0.1,0.1-0.2,0.1-0.2c0.1-0.6,0.2-1.5,0.3-2.8c0.1-1.4,0.2-3.2,0.3-5l0,0
		c0.6-7.6,1.7-15.5,2.8-21.6c1.1,0.1,2.4,0.2,3.5,0.2l1.3,0.1c0.7,0,1.3,0,1.9,0c-0.3,6-0.8,13-0.7,18.6l0,0
		c0.2,3.3,0.3,5.4,0.5,6.6c0,0.6,0.1,1,0.1,1.3c0,0.1,0,0.1,0.1,0.3c0,0.1,0,0.1,0.2,0.3c0.1,0.1,0.2,0.2,0.3,0.2
		c0.1,0,0.3,0.1,0.3,0.1h0.3c0,0,0.2-0.1,0.3-0.1s0.1-0.1,0.2-0.1c0.1-0.1,0.1-0.2,0.2-0.2c0.1-0.1,0.1-0.2,0.1-0.2
		c0-0.1,0-0.2,0-0.2c0.1-0.6,0.1-1.5,0.1-2.8s0-3.2,0-5l0,0l0,0c0-6.3,0.6-13.2,1-18.6c0.9,0,1.8-0.1,2.7-0.2l1.3-0.2
		c0.6-0.1,1.1-0.2,1.8-0.3c0.6,4.6,1.3,9.8,2.5,15.6l0,0c0.9,3.2,1.5,5.2,1.8,6.4c0.2,0.6,0.3,0.9,0.5,1.3c0,0.1,0.1,0.1,0.1,0.2
		c0,0.1,0.1,0.1,0.2,0.2c0.1,0.1,0.2,0.1,0.5,0.2c0.1,0,0.3,0,0.3,0l0.3-0.1c0,0,0.2-0.1,0.3-0.2c0.1-0.1,0.1-0.1,0.2-0.2
		c0.1-0.1,0.1-0.2,0.1-0.3c0-0.1,0-0.2,0-0.2c0-0.1,0-0.2,0-0.2c0-0.6-0.2-1.5-0.6-2.8c-0.3-1.4-0.7-3.1-1.1-4.9l0,0
		c-1.4-6.1-2.4-11.6-3-15.5c0.6-0.1,1-0.3,1.6-0.6l1.3-0.5c0,0,0.1,0,0.1-0.1c0.8,2.7,1.8,6.1,2.7,9.3l0,0c1,3.1,1.8,5.1,2.2,6.3
		c0.2,0.6,0.3,0.9,0.5,1.1c0,0.1,0.1,0.1,0.1,0.2c0,0.1,0.1,0.1,0.2,0.2c0.2,0.1,0.7,0.3,1.1,0c0.5-0.2,0.6-0.6,0.6-0.7
		c0-0.1,0-0.2,0-0.3c0-0.1,0-0.2,0-0.2c-0.1-0.6-0.3-1.5-0.7-2.8c-0.3-1.4-0.9-3.1-1.4-4.9l0,0c-0.9-3.4-1.9-7.1-2.6-9.8
		c0.1-0.1,0.2-0.1,0.3-0.2l1-0.6c1.1-0.7,2.3-1.3,3.4-2c1.4-0.9,2.7-1.9,3.9-3l0.2-0.2c3.8,5.6,7.5,10.6,13,16.6l0,0
		c2.3,2.3,3.9,3.8,4.7,4.7c0.5,0.5,0.7,0.7,0.9,0.9c0.1,0,0.1,0.1,0.2,0.1c0.1,0,0.1,0.1,0.3,0.1c0.1,0,0.2,0,0.5,0
		c0.1,0,0.3-0.1,0.3-0.1s0.2-0.2,0.3-0.2c0,0,0.1-0.2,0.1-0.3c0-0.1,0-0.2,0-0.2c0-0.1,0-0.2,0-0.3s-0.1-0.2-0.1-0.2
		c0-0.1-0.1-0.2-0.1-0.2c-0.3-0.5-0.9-1.1-1.8-2.2s-2-2.4-3.4-3.8l0,0c-6.3-7.1-10.2-12.2-13-16.5c1.1-1.1,2.3-2.4,3.4-3.6l0.6-0.7
		c0.2-0.3,0.5-0.6,0.8-0.9c0.7,0.7,1.4,1.4,1.7,1.7l0,0c2.5,2.2,4.1,3.5,5,4.3c0.5,0.3,0.8,0.6,1,0.8c0.1,0,0.1,0.1,0.2,0.1
		c0.1,0,0.1,0.1,0.3,0.1c0.1,0,0.2,0,0.5-0.1c0.1,0,0.3-0.2,0.3-0.2l0.2-0.3c0,0,0.1-0.2,0.1-0.3c0-0.1,0-0.2,0-0.2
		c0-0.1,0-0.2,0-0.3s-0.1-0.2-0.1-0.2c-0.1-0.1-0.1-0.1-0.1-0.2c-0.3-0.5-1-1.1-2-2c-1-1-2.3-2.2-3.6-3.5l0,0
		c-0.3-0.3-1.1-1.1-1.8-1.8c3.1-3.6,6.1-7.3,10.5-10.4c5.6-4.1,14.6-14.9,13.1-23.7c-2.7-16.5-34.5-44.2-52.6-62.8
		c-3.6-7.4-8.8-11.4-15.6-12.4c-5-4.4-11.7-10.6-17.1-15.7c1-5.1,2.7-13.1,3.1-15.6c1-5.9,2-13,1.5-19.4c-1-11.8-2.5-29.1-4.6-43.7
		c-1-7.3-2.2-13.8-3.5-18.9c-0.7-2.6-1.4-4.8-2.6-7.1c-0.6-1.1-1.4-2.4-2.8-3.6c-1.5-1.4-4.6-2.8-7.7-2.4c-4.8,0.7-8.3,3.8-10.5,6.3
		c-2.2,2.5-3.5,4.9-5,6.8c-6.5,8.5-13,19.1-19.4,26.2c-0.8,0.9-5.1,6.7-7.4,9.7c-13.2-10.6-39.7-30.7-57.3-40.8
		c-7.6-4.4-17.6-10.2-24.8-14.6c8.1-14.7,32.2-58.1,47.7-75.2c18.3-20.5,34.2-33.1,53.8-49c11.5-9.2,29.9-21.5,45.2-31.5
		c7.6-5,14.6-9.6,19.6-13.1c4.4-3.2,2.3-1.1,8.8-7.2c0.6-0.9,3.6-6.3,1.4-9.9c-1-1.8-2.3-4-6.6-5.8C474.6,8.1,473.8,8,473.3,8z"/>
</g>
</svg>
