<?xml version="1.0" encoding="utf-8"?>
<!-- Generator: Adobe Illustrator 24.0.1, SVG Export Plug-In . SVG Version: 6.00 Build 0)  -->
<svg version="1.1"
	 id="svg8" inkscape:export-filename="musculature.png" inkscape:export-xdpi="12.095238" inkscape:export-ydpi="12.095238" inkscape:version="1.0 (4035a4fb49, 2020-05-01)" sodipodi:docname="musculature.svg" xmlns:cc="http://creativecommons.org/ns#" xmlns:dc="http://purl.org/dc/elements/1.1/" xmlns:inkscape="http://www.inkscape.org/namespaces/inkscape" xmlns:rdf="http://www.w3.org/1999/02/22-rdf-syntax-ns#" xmlns:sodipodi="http://sodipodi.sourceforge.net/DTD/sodipodi-0.dtd" xmlns:svg="http://www.w3.org/2000/svg"
	 xmlns="http://www.w3.org/2000/svg" xmlns:xlink="http://www.w3.org/1999/xlink" x="0px" y="0px" viewBox="0 0 595.3 595.3"
	 style="enable-background:new 0 0 595.3 595.3;" xml:space="preserve">
<style type="text/css">
	.st0{fill:#69C8BE;}
</style>
<sodipodi:namedview  bordercolor="#666666" borderopacity="1.0" id="base" inkscape:current-layer="layer1" inkscape:cx="385.50924" inkscape:cy="405.57615" inkscape:document-rotation="0" inkscape:document-units="mm" inkscape:pageopacity="0.0" inkscape:pageshadow="2" inkscape:snap-global="false" inkscape:window-height="1008" inkscape:window-maximized="0" inkscape:window-width="1421" inkscape:window-x="483" inkscape:window-y="0" inkscape:zoom="0.7071068" pagecolor="#ffffff" showgrid="false">
	</sodipodi:namedview>
<g id="layer1" inkscape:groupmode="layer" inkscape:label="Layer 1">
	<path id="circle898" class="st0" d="M297.6,0C133.3,0,0,133.3,0,297.6C0,462,133.3,595.3,297.6,595.3S595.3,462,595.3,297.6
		S462,0,297.6,0z M414.5,45.7c2.3,0,4.1,0.9,6.6,0.9c3.6,0,7.6-1,10.9,0.4c5.8,2.4,10.9,8.5,13.6,14.1c1.7,3.6,3.5,7.4,4.5,11.3
		c3.3,13.5,11.6,23.9,14.3,37.5c0.7,3.5,1.5,9.3,1,13c3.4,1.2,4.1,3.5,5.4,6.9c1.1,3-0.1,9.7-1,12.8c-1,3.6-4.6,4.9-7.9,6.2
		c-1.9,8.8-9.7,11-14.3,9.6c-5.2-1.2-9.7-6.5-13.5-13.8c-0.2,4-7.9,9-9.6,9.5c-6.6,2-10.5-0.6-19.7,0.7c-1.5,6.4-3.9,8.4-10.3,9.4
		c-7.8,1.1-19.2-1.2-30.1-8.7c-3.1-2.2-2.9-12.9-2.1-16.9c-1.9,0-4.1-1.1-4.1-1.1s-6.5,7.3-13.6,10.8c-7.1,3.5-13.6,3.7-17.5,5.4
		c-17.5-0.1-17.5-5.3-23.9-9.2l-0.6-0.4l-0.5,0.5c-3.7,4.1-10.3,7.8-16.4,11.6l-0.1,0l0,0c-11.1,9.5-28.5,34.3-27.7,34.7
		c0.8,0.4,18.4-23.6,29.2-32.8c5.7-3.6,11.8-4.9,15.9-9.1c5.1,3.4,6.5,6.6,20.1,7.6c-6.9,5.3-12.9,13.6-17.9,20.2
		c-14.9,19.5-28.6,40.2-38.5,62.6c-14.1,31.6-20.1,73.8-28.2,96.8c-9,10.4-6.2,11.7-36.1,33.9l-0.1,0l-0.1,0c0,0-6.8,6.5-14.4,13.5
		c-3.8,3.5-4.4,5.4-7.8,8.3c-3.4,3-16.5,10.4-15.7,11.3c0.7,0.8,13.2-7.5,16.6-10.5c3.4-3,5.5-4.9,9.2-8.4
		c7.5-7,14.3-11.9,14.3-11.9c29.5-21.9,30-24.6,38.4-34.4c18.1-1.5,42.6-3.9,67.9-3.4c17,0.3,37.5,5.6,54.5,6
		c16.9,0.4,33.7-3.5,50.6-4.8c20.9-1.6,47.7-3.1,68.6-1.5c45.3,3.4,56.7,14.5,92.6,22.3c-1,4.5-2,9-3.2,13.5
		c-16.3-6.4-46.2-18.2-55-20.7c-20.3-5.8-39.6-9.3-60.6-9.3v0c-0.7,0-1.4,0-2,0c-10.7,0.1-25.5,1.6-39.6,3.4c1.3,0,2.7-0.1,4-0.1
		c34.5-1,65.3,1.8,97.8,11.4l0,0l0,0c22.2,8.6,30.5,13.2,51.7,24c0.4,0.2,0.7,0.4,1.1,0.6c-0.2,0.6-0.4,1.2-0.6,1.8
		c-0.4-0.2-0.9-0.5-1.4-0.7c-21.2-10.7-29.4-15.3-51.5-23.9c-28.3-8.4-55.2-11.5-84.5-11.5v0c-12.5,0-25.4,0.6-39,1.5
		c-11.4,1.7-19.5,3.1-19.5,3.1s1.7,0.8,4,2c49.4,2.8,85.9,5.2,126.8,23.8l0,0l0,0c20.7,11.5,29.2,13.9,48.7,27.5
		c2.3,1.6,4.4,3.2,6.5,4.8c-0.2,0.6-0.5,1.2-0.7,1.8c-2.2-1.7-4.4-3.4-6.8-5c-19.4-13.5-27.8-15.8-48.5-27.3
		c-39.4-17.9-74.7-20.7-121.8-23.4v0c2.4,1.2,5.2,2.7,8.2,4.3c47.8,8.7,83.4,15.7,121.3,38.9l0,0l0,0c17.2,12.6,25.6,16.6,40,28.9
		c-0.3,0.6-0.6,1.2-0.9,1.7c-14.6-12.4-22.8-16.4-40.2-29.1c-36.1-22.1-70-29.4-115-37.6c4.9,2.7,10,5.6,14.5,8.5
		c45.3,16,64.7,29.6,98.5,58.2l0,0l0,0c8.6,8.5,18,16.6,27.6,25c-0.3,0.5-0.7,1.1-1,1.6c-9.7-8.3-19.1-16.5-27.9-25.2c0,0,0,0,0,0
		c-31.9-27-50.7-40.5-91-55.4c1.2,0.8,2.2,1.7,3.2,2.5c2.4,2,4.7,4.1,6.9,6.3c34,21.8,32.5,24.8,65.1,52.4l0,0l0,0
		c9.9,9.9,20.3,23.3,32.1,35.6c-0.4,0.5-0.8,1-1.2,1.5c-12-12.4-22.4-25.9-32.2-35.8c-30.3-25.7-31-29.9-58.3-48
		c4.9,5.4,9.7,11,14.7,16.2c9.4,9.5,18.8,18.3,28.3,27.7c9.8,9.7,17.5,21.4,27.1,31.3c4.2,4.3,9.6,10,15,15.3
		c-15,18.3-32.3,34.6-51.3,48.7c-3.4-8-7.1-15.2-13.2-21.8c-3.8-4.1-6-7-11.3-8.7c-7.7-2.5-17.2-1.9-25.3-1.5
		c-18,0.9-35.1,7.8-53,10.2c-18.3,2.5-37,5.1-55.4,3.6c-27.1-2.1-54.6-7.2-81-13.5c-20.5-5-40.5-12.7-60.8-18.4
		c-26.7-7.4-55.2-11.1-78.6-25.9c-15.1-9.6-28.5-23.6-36.1-39.7c-3.5-7.3-4.2-13.9-2.1-21.7c2.3-8.9,6.5-14.1,10.9-22.1
		c10-18.2,15.6-35.4,26.8-53.8c20.9-34.4,50.5-69.1,77.7-98.8c23-25.2,52.3-47.6,74.3-73.6c10.4-12.2,17.5-26.9,30-36.9
		c21.4-17.2,50.1-26.2,76.7-39.2c13-6.4,26.6-9,40.7-12.8c8.8-2.3,17.4-6,26.5-7.2C413.9,45.7,414.2,45.7,414.5,45.7z M288.1,340.1
		c-15.1,0.1-24,1.1-39.7,5.3c-6.5,1.7-23.3,12.4-35.7,23.1c2-1.1,2.5-1.1,4.8-2.2c10-5,21.4-10.3,28-11.3
		c20.2-3.1,40.4-7.5,60.7-7.6c6.8,0,13.5,0.4,20.3,1.5c23.4,3.9,50.3,8.6,69.1,23.7c12.6,10.1,27.3,21.9,38.7,30.8
		c0.3,0.3,0.6,0.5,0.9,0.7c-6.9-8.6-13.1-17.9-21.6-24.8c-16.7-13.6-31.3-22.7-51.8-29.2c-13.6-4.3-33.6-9.3-47.9-9.6
		c-7.9-0.2-15.4-0.4-22.8-0.5C290.1,340.1,289.1,340.1,288.1,340.1L288.1,340.1z M306,349.3c-20,0.1-40.1,4.4-60.4,7.5
		c-5.9,0.9-17.5,6.1-27.4,11.1c-5.6,2.8-7.4,5.5-10.8,7.3c-4.4,3.7-8.6,7-12.1,9.3c0,0,7.6-1.3,13.4-3.5c7-2.6,23.4-8.8,33.6-10.4
		c13.5-2.1,27.3-3.2,41.1-3.2c13.8,0,27.6,1,41.1,3.2c23.5,3.9,46.4,12.4,67.7,23c19.3,9.6,51.4,34.1,58.8,39.8
		c9.3,1.7,28.7,7.7,28.7,7.7s-26.8-18.7-34.9-26.2c-1.3-1.2-2.5-2.4-3.7-3.7c-2.4-1.9-5.2-4-8.1-6.3c-11.4-8.9-26.1-20.7-38.7-30.8
		c-18.3-14.6-44.8-19.4-68.2-23.3C319.4,349.7,312.7,349.3,306,349.3z M283.4,369.3c-13.7,0-27.4,1.1-40.8,3.2
		c-7,1.1-17.8,4.7-25.7,7.5c4.1-0.3,7.7-0.3,9.9,0.6c1.4,0.5,2.8,1.2,4.1,1.9c5.7-0.7,11.5-0.9,17.3-0.8
		c21.4,0.5,43.5,5.9,62.9,12.8c22.7,8,55.2,14.9,77.8,18.3c23.9,3.7,39.7,12.9,50.7,20.2c2.5,0,5.1-0.1,7.7,0
		c-10.2-7.8-38.5-29-56-37.7c-21.2-10.6-43.9-19-67.2-22.8C310.8,370.3,297.1,369.2,283.4,369.3z M245.6,383.5c-4,0-8,0.2-11.9,0.5
		c3.2,2.1,6.2,4.5,9,7.2c21.9,6.8,37.6,14.2,61,22.5c22.6,8,53.6,10,75.3,10.8c28.4,1,40.7,3.9,50.6,8.7c2.2-0.1,4.5-0.1,6.7-0.2
		c-10.8-7-25.6-15.1-47.6-18.4c-22.7-3.5-55.3-10.3-78.2-18.4C290.5,389.1,267.4,383.6,245.6,383.5z M245.8,394.2
		c5.8,5.6,11.5,11.4,18.4,15.3c22.3,12.4,46.5,22.4,71.7,26.5c20.8,3.4,42.1-1.6,63.2-1.8c9.7-0.1,17.9-0.5,26.3-0.8
		c-9.2-3.8-21.3-6.1-46.5-7c-21.8-0.8-52.9-2.8-75.9-10.9C280.8,407.6,265.7,400.6,245.8,394.2z M99.1,441.7
		c0,0,29.2,10.7,44.6,16.4c29,5.6,71.5,16.6,94.9,24.9c22.5,8,60.8,8.8,82.5,9.6c16.7,0.6,38.6-1.2,57.7-2.3
		c5.2-0.3,10.2-0.5,14.8-0.7c28.4-3.8,74.9-7.9,74.9-7.9s-11.1-1.3-24.1-2.9c-25.3,2-64.5,0.5-96.9-7.3c-21.6-5.2-50.4-5-75.3-2.7
		c-26.9,2.5-74.1,0.5-100.2-8.2c-3.9-0.7-7.7-1.5-11.6-2.3C143.8,455,99.1,441.7,99.1,441.7z M292,447.9c-5.5,0-11,0.2-16.4,0.7
		c-13.4,1.2-26.2,6.4-39.1,10.5c12.1-1.2,23.8-3,36.9-4.2c6.3-0.6,12.8-0.9,19.3-0.9c19.7-0.2,40.1,1.9,56.6,5.8
		c17.5,4.2,32.7,8,46.8,10.3c-18.4-5.5-36-13.9-54.9-17.4C325.1,449.9,308.5,447.9,292,447.9z M295.2,455.9
		c-7.4,0-14.7,0.3-21.6,0.9c-16.3,1.5-30.6,3.9-46.1,4.9c-5,1.3-10,2.2-15.1,2.5c-5.7,0.4-11.5,0.2-17.2-0.3c25.3,4.1,57,4.8,77,2.9
		c24.9-2.3,53.9-2.5,75.9,2.8c28.1,6.8,61.7,8.7,86.5,7.8c-8.5-1.1-16.8-2.4-22.8-3.4c-18.9-1.4-38.7-6.5-62.9-12.3
		C333.3,458,314,455.9,295.2,455.9z M155.4,462.4c26.1,9.6,52.4,18.7,79.2,26c24.4,6.6,48.8,12.6,74.1,13.1
		c22.9,0.4,45.2-5,67.8-9.2c-18.5,1.1-39.3,2.7-55.5,2.1c-21.7-0.8-60-1.5-83.1-9.7C217.8,477.6,183.1,468.4,155.4,462.4z"/>
	<g id="g1854" transform="matrix(-1,0,0,1,763.13502,-3.6666667e-7)">
	</g>
	<g id="g1879" transform="matrix(-1,0,0,1,779.01003,0)">
	</g>
</g>
</svg>
