<?xml version="1.0" encoding="utf-8"?>
<!-- Generator: Adobe Illustrator 24.0.1, SVG Export Plug-In . SVG Version: 6.00 Build 0)  -->
<svg version="1.1"
	 id="svg8" inkscape:export-filename="neoplasm.png" inkscape:export-xdpi="12.1" inkscape:export-ydpi="12.1" inkscape:version="1.0 (4035a4fb49, 2020-05-01)" sodipodi:docname="neoplasm.svg" xmlns:cc="http://creativecommons.org/ns#" xmlns:dc="http://purl.org/dc/elements/1.1/" xmlns:inkscape="http://www.inkscape.org/namespaces/inkscape" xmlns:rdf="http://www.w3.org/1999/02/22-rdf-syntax-ns#" xmlns:sodipodi="http://sodipodi.sourceforge.net/DTD/sodipodi-0.dtd" xmlns:svg="http://www.w3.org/2000/svg"
	 xmlns="http://www.w3.org/2000/svg" xmlns:xlink="http://www.w3.org/1999/xlink" x="0px" y="0px" viewBox="0 0 595.3 595.3"
	 style="enable-background:new 0 0 595.3 595.3;" xml:space="preserve">
<style type="text/css">
	.st0{fill:#69C8BE;}
</style>
<sodipodi:namedview  bordercolor="#666666" borderopacity="1.0" id="base" inkscape:current-layer="layer1" inkscape:cx="214.84175" inkscape:cy="422.39908" inkscape:document-rotation="0" inkscape:document-units="mm" inkscape:pageopacity="0.0" inkscape:pageshadow="2" inkscape:snap-global="false" inkscape:window-height="1040" inkscape:window-maximized="0" inkscape:window-width="1698" inkscape:window-x="182" inkscape:window-y="0" inkscape:zoom="0.35" pagecolor="#ffffff" showgrid="false">
	</sodipodi:namedview>
<g id="layer1" inkscape:groupmode="layer" inkscape:label="Layer 1">
	<path id="path1052" class="st0" d="M298.9,0C186.8,1.1,75.8,68,28.6,172.5C14,200.9,5.3,230.9,1.8,261.3c0.3-0.3,0.5-0.6,0.8-0.8
		c1.7-1.3,3.5-1.5,5-1.5c2.2-0.1,4.2-0.1,5.9-0.3c1.4-11,3.6-22,6.5-32.8c7.7-0.9,15.4-1.6,23.2-2.2c11.8,1.7,35.8,1.9,38.2,2.8
		c8.3,3.4,24.6-0.6,36.3-3.3c6.5,0.8,11.3,2.1,15.2,4.1c-1.5,1.7-3.2,3.2-4.9,3.9c-4.9,2.1-10.3-7.1-15.2-5.1
		c-3.5,1.4-2,7.9-5.1,10.1c-7.7,5.6-20.6-1.4-28.4,4c-5.3,3.7-3.6,13.7-9.1,17.2c-6.3,4-10.2,3-17.1,0.3c-3.1-1.2-3.8-6.6-7.1-7.1
		c-7.4-1,5.7,7.1-8.5,8.2c-14.2,1-4.4-6.1-9.9-5.1c-5.3,1-6,5.5-10.9,7.6c-6,2.6-13.3-1.4-13.3,5.1c0,6.2,7.1-0.5,12.3,2.9
		c2.4,1.6,2.2,6.4,5.1,7.1c7.1,1.7,6.8-5.7,13.7-7.9c9.1-2.9,5.3,1,14.7-0.7c15.6-2.8,25.6-10.8,41.4-9.4
		c8.7,0.8,16.7,14.4,24.3,10.1c3.9-2.2-1.2-10.1,2-13.1c7-6.4,19.8-6.1,28.4-2c8.5,4.1,12,14.8,16.2,23.2c3,6,8.3,12.9,6.1,19.2
		c-5.1,14.4-36.9,10-38.5,25.3c-0.1,0.9,1.1,1.9,2,2c12.8,1.9,21.5-17.4,34.4-18.2c4.7-0.3,12.3,0.4,13.2,5.1
		c3.3,16.6-22,27-37.1,34.7c-7.7,3.9-17.3,1.9-25.3,5.1c-4.1,1.6-12.2,2.8-11.1,7.1c1.4,5.2,15-4.2,16.2,1c0.6,2.6-7.1,1.3-7.1,4
		c0.1,7.2,17.4,3.1,19.2,10.1c2.5,9.7-4.8,20.4-12.7,29c-7.6,6.9-15,13.9-22.2,20.9c-6.7,6.3-15.3,14.2-25.1,22.3
		c-10,8.3-38.5,34.8-39.2,36.5c-0.8,1.9-0.7,4.9,1,6.1c1.2,0.8,3.2,5.9,8.7,1.8c1.1-0.8,4.5-12,7.4-13.4c2.4-1.2,4.3,7.5,6.7,4.8
		c1.2-1.3,2.4-2.7,3.6-4.2c3.1-3.6,1.5-6.7,3.9-10.9c3.5-5.9,10.8-12.7,12.9-14.7c13.5-12.7,30.6-25.5,32.7-23.8
		c3.1,2.6-2.9,9.3,0,12.1c1,1,3.1,1,4.1,0c5-5-2.3-14.5,0-21.2c0.6-1.8,1.4-4.1,2.4-6.5c4.5-4.2,9-8.3,13.6-12.3
		c8.5,5.4-7,21.5-8.7,32.2c-0.7,4.7-1.2,9.4-1,14.1c0.2,4.2,1.8,8.2,2.1,12.4c0.1,0.9-1,2.6,0,2.8c8.8,1.6,0.2-25.7,9.1-25.3
		c10.8,0.5-1.2,25.8,8.1,31.3c2.4,1.4,6.2,0,8.1-2c4.8-5-2.6-18.4,4.1-20.2c3.5-0.9,5.6,4.8,7.1,8.1c3.1,6.8-1.7,16.5,3,22.2
		c0.7,0.8,2.2,1.6,3,1c9.1-6.4-9.2-28.9,1-33.3c3.7-1.6,6.4,5,9.1,8.1c19,21.7,22.8,58.1,48.2,71.7c1.8,1,5.1,1.8,6.1,0
		c14-24.2-59.7-50.9-42.2-72.7c4.2-5.2,13.8,10,19.2,6.1c3.8-2.8,1.7-9.7,0-14.1c-5.3-14-24.3-19.9-29.6-33.9c-1.9-5-4.9-14,0-16.2
		c5-2.2,7.3,8.6,12.2,11.1c2.8,1.4,7.6,4.7,9.1,2c5.5-10-21.3-19.2-24.3-24.2s5.6-12.9,9.2-18.9c0.9-1.5,1.6-3.2,2.5-4.8
		c2.8-1.8,5.6-3.5,8.3-5.1c11.4-7,27-9.7,43.3-11c20.6-1.7,37.5-3.5,52.6-3.6c8.9,6.4,17.5,18.9,22.9,28.9
		c4.7,8.8,4.4,16.5,11.8,12.4c3.1-1.7-1.4-7-3-10.1c-6.3-11.7-28.3-29.4-25.7-31.1c7.5,0.3,14.7,1.1,21.7,2.7
		c17.9,4.2,35.3,19.6,53.7,36.1c9.1,8,10.5,16.9,2.9,26.3c-30.6,33.7-52,64-68.4,92c-4.5,10.3-10.4,16.6-18.5,22.6
		c-5.2,3.8-11.6,8.2-18.1,12.7c-6.5,4.4-13,8.8-18.2,12.5c-5,3.5-8.7,6.2-10.7,8.1c-13.5,8.8-24.8,14.5-34.7,18.3
		c-56.1-18.1-103.5-55.1-137.6-102c-0.2,0.3-0.4,0.6-0.6,0.9c-0.9,1.5-1,2.6-1.3,4.5c-0.3,1.9-0.9,4.5-3,6.9c0,0.1-0.1,0.1-0.1,0.2
		c35.7,46.7,84.5,83.3,142,101.1c182.2,67.7,396.8-89.6,388.9-282.4c0.7-28.7-3.4-57-11.6-84.1c-0.7,0.2-1.4,0.3-2.2,0.4l0.1,0
		c-4.5,0.4-5.7,0.9-8.3,1.4c-0.3,0.1-0.6,0.1-0.8,0.1c8.2,26.5,12.3,54.2,11.6,82.3c0,0.1,0,0.2,0,0.4c1,24.2-1.7,47.8-7.6,70.5
		c-20.9-0.7-42.9-1.3-65.5-0.7c-21.4,0.6-43.3,2.2-65.1,5.7c-18.3-3-35.9-4.9-39.6-6.7c-6.1-3-17.2-24.2-20.3-28.3
		c-3-4-15.1-2.9-21.3-7.1c-9.1-6.2-24.5-15-21.1-25.5c1.6-5,9-1.8,14.1-0.6c15.6,3.4,28.1,20.2,40,29.5c4.4,3.4,5.8,10.4,11.5,8.8
		c2.1-0.6,2.6-4,2-6.1c-0.9-3.2-7.1-3.4-9.7-5.8c-33-30.4-41.5-25.3-41.7-30.1c-0.1-3.3-4.8-5.6-3.3-9.4c3.9-9.4,20.3,1.7,30.3,2.8
		c9.8,1.1,24.1,12.4,29.4,4c4.5-7.2-20-15-14.2-21.2c2.5-2.7,6.2,4.4,9.8,5.5c7.8,2.4,17.6,6.5,24.3,2c4.7-3.2,0.3-13.2,5.1-16.2
		c3.8-2.3,9.7,4.8,13.2,2c3.2-2.5,2.8-8.5,1-12.1c-2.1-4.4-12.1-3.2-12.2-8.1c0-6.5,9.8-9.7,16.2-11.1c9.7-2.1,26.1,14.4,29.4,5.1
		c1.4-4-7.2-4.4-11.1-6.1c-5.5-2.3-11.7-2.9-17.2-5.1c-4.2-1.7-9.8-2.2-12.2-6.1c-1.1-1.7-1.2-4.5,0-6.1c6.8-8.9,21.3-7.8,32.4-9.1
		c9.1-1.1,18.6,3.6,27.4,1c2.8-0.8,4.3-4.3,7.1-5.1c13.8-3.5,29.6,4.5,43.8,4.3c15.7-0.3,12.8-1.6,22.1-2.5c8.1-0.5,7.5-11.6-4.1-4
		c-2.4,2.5-11.6,4.4-18.5,3.8c-17-1.5-38.6-11-54.6-9.7c-30.1-0.6-81,7-90.1,7c-6.7,0-9.8-0.4-11.2-2.3c3.1-3.9,6.2-7.7,9.5-11.5
		c6.5-3.4,13.5-6.9,13.6-10c4.9-3,10.8-6.3,17.4-9.8c15.4-8,34.6-17,54.1-25.8c11.5-5.2,22.9-10.2,33.8-14.9
		c16.1,22.4,29,47,38.1,72.9c3-0.7,5.4-2,5.4-2l0.3-0.3l0.3-0.2c1.6-1,3-1.8,4.3-2.3C558,139.7,515.9,86.1,461.8,50.2
		c-5.1,1.3-10.3,2.6-15.1,3.7c1.5,0.9,3,1.8,4.4,2.8c2-0.3,4-0.2,6.1,0.4c2.1,0.7,3.7,2,5,3.7c0.9,1.2,1.6,2.8,1.7,4.5
		c24.4,17.5,46,38.8,64,62.9c-10.6,4.6-21.7,9.5-32.8,14.5c-19.5,8.8-38.8,17.8-54.4,25.9c-8.4,4.6-14.6,7.9-20,9.7
		c-4.7-1-12-0.2-18.5-0.2c-4.1-1.4-8.6-3.7-14.1-7c-0.6-0.4-1.3-0.7-1.9-1.1c-3.9-6.4-6.6-13.9-3.9-20.5c1.4-3.4,5.8-7.7,9.1-6.1
		c5.7,2.8,0.2,9.5,5.4,13c6.2,4.2-1.4-5.8,6.1-6.5c6.1-0.6,24.5,4.8,29.8,1.6c4.7-2.8,7.2-4.3,5.4-9.4c-2.2-6.3-19.7-5.1-20.9-11.7
		c-1.2-6.8,20.7-10.8,19.2-17.6c-0.5-2.2-2.4,3.2-4.5,4.2c-9.6,4.4-18.7,8.2-27.3,13.3c-6,3.6-14.2,5.6-20.3,9
		c-9.5,5.4-17.9,14.2-28.6,16c-8.5-3.5-17.1-6.6-25.6-9.5c-0.8-1.5-1.1-3,0-4.3c8.6-10.2,41.3-10.8,46.2-13c0.4-0.2,0.9-0.4,0.8-0.8
		c0-0.1-0.5-0.3-0.7-0.3c-0.4,0-1.2,0.1-1.9,0.1c-3,0-10.1,1.2-12.1,1c-3.3-0.4-6.7-1.1-10-0.8c-4.7,0.4-10.5,6.8-13.8,3.5
		c-3-2.9,5.6-8.8,3-12.1c-1.5-1.9-6.6,2.3-7.1,0c-1.7-7.6,17-3.5,21.3-10.1c1.3-2.1-1.5-5.5,0.1-7.3c1.6-1.8,4.8-0.4,7.1-1
		c2.8-0.7,5.5-1.8,8.1-3c7-3.2,13-8.6,20.3-11.1c7.4-2.6,15.9-1.4,23.3-4c5.8-2.1,10.4-6.8,16.2-9.1c9.4-3.7,25.7,2.3,29.4-7.1
		c0.9-2.3-1.7-5.3-4.1-6.1c-9.4-2.9-17.8,8.7-27.4,11.1c-6.6,1.6-13.8-0.1-20.3,2c-3.7,1.2-6.6,4.4-10.1,6.1
		c-10.4,4.8-26.3,11.1-32.4,11.1c-6.1,0-0.7-7.8,1-11.1c3.7-7.2,10.6-13.3,18.2-16.2c8.2-3.1,17.9,2.5,26.3,0
		c4.7-1.4,7.3-7.9,12.2-8.1c5.7-0.3,33.7-7.8,53.3-12.4c9.1-2.1,18.7-1.3,21.1-2c1.9-0.5,5.9-1.7,4.7-5.4c-0.6-1.9-6.3-3.6-11.7-1.5
		c-4.5,1.8-8.5,5.4-14.4,6.7c-20.8,4.8-48.3,10.4-54,10.5c-5.3,0-7.9-8.3-13.2-9.1c-7.4-1.1-14.7,3.6-21.3,7.1
		c-6.8,3.6-10.9,16.4-18.2,14.1c-3.1-0.9-2.5-5.9-3-9.1c-1.2-7.3-2-15.1,0-22.2c1.6-5.7,16.9-21.3,12.9-25.6c-0.3-0.3-0.6-0.5-1-0.5
		c-1.6-0.1-3.8,2.2-5.1,3.5c-5.5,5.6-10.2,24.7-13.9,31.6c-5.6,10.4-8.1,24.2-18.2,30.3c-5.2,3.1-8.1,1-18.2,1
		c-10.1,0-4.3,8.8-3,13.1c1.1,3.7,7.7,4.3,8.1,8.1c0.5,4.8-3.8,9.8-8.1,12.1c-3.9,2.1-10.2-3.2-13.2,0c-2.3,2.5,2.4,7,1,10.1
		c-1.4,3.1-4.7,6-8.1,6.1c-5.4,0-12.5-11.7-12.1-18c0.4-1,0.7-2,1.1-3.1c6.5-17.8,8.7-36.8,9.2-56c0.3-11.1,0-22.3-0.5-33.5
		c3.8-0.1,7.5,0,11.3,0.1c18.7,0.5,37.4,2.9,55.7,7.5c1.5-3.9,3.2-7.5,5.3-10.3c-19.9-5.2-40.2-7.9-60.6-8.5
		C306.1,0,302.5,0,298.9,0L298.9,0z M292.8,11.6c0.4,11.1,0.8,22.3,0.5,33.2c-0.5,21.9-3.4,42.9-12.1,62.3
		c-3.8,10.4-8,16.4-13.3,20.5c-3.1-0.7-6.3-2.4-9.3-3.3c-7-2.1-16.4-1.9-20.3-8.1c-2.1-3.4,2.4-8.3,1-12.1c-1.1-3.1-5.8-4-7.1-7.1
		c-3.1-7-3.1-19.8-2.7-25.8c0.1-0.8,0.9-0.8,1.4-1.4c0.5-0.7,0.5-1.9,0.3-2.1c-0.6-0.8-2.3-0.7-3,0c-0.2,0.2,0.3,2,0.1,4
		c-0.4,6-1.1,17.7-0.1,25.6c0.6,5,0.2,9.6-3,12.8c-4.1,4-12.7,4.5-17.2,1c-5.5-4.2-6.4-27.2-8.1-31.6c-0.6-1.6-1.1-0.6-1.2,1.1
		c-0.3,4.7,4.8,25.9,3.3,31.9c-1.6,6.5-5.7,11.6-11,15.6c-6.1,4.6-14.7,4.3-21.3,8.1c-9.8,5.6-20.2,11.8-26.3,21.2
		c-5,7.6,0.9,22-7.1,26.3c-1.9,1-4.2-1-6.1-2c-3.8-2.1-7.7-4.5-10.1-8.1c-2.5-3.5-2.9-8.8-4.1-13.3c-0.8-3.3-1.7-6.1-3-7.9
		c-2.5-3.4-7.7-7.4-10.1-12.1c-1.3-2.5-0.5-5.8-2-8.1c-2.8-4.2-6.5-2.7-11.2-4.7c-1.9-0.8-10.4-7.1-10.5-6.6
		c-0.2,1.3,0.1-0.3-0.1,0.8c-0.2,0.9,15.3,10.8,18.4,15.8c3.4,5.5,2.5,12.9,3.9,19.3c1,4.4,4.2,8,6.6,11.8c2.2,3.7,7.1,5.3,9.1,9.1
		c1.8,3.3,2.6,7.4,2,11.1c-0.6,3.4-4.2,8.4-6.6,10.9c-1.9,2-39.5-5.1-44.8-5.5c-0.4,0-0.6-0.2-0.8-0.3c-0.2-0.1-0.6-0.2-0.8,0.2
		c-0.2,0.4,0.2,0.5,0.5,0.6c0.2,0,0.6,0,1,0.2c7.2,2.4,54.3,11.2,53.5,16.2c-1.8,11.3-27,1.6-38.8,2.6c-2.7,0.2-24.8,2.3-37.1,4.8
		c-7.8,0.5-15.6,1.2-23.4,2.1c4.3-14.6,9.9-29,17.1-43c0-0.1,0.1-0.2,0.1-0.3c13-28.7,31-54.5,52.7-76.7
		c4.9,11.8,18.6,20.6,32.1,20.5c24,5.6,53.3-4.5,61.8-29.2c7.3-21-12-35.7-31.4-39.9C196.2,27.5,244.3,13.2,292.8,11.6z M383.3,12.4
		c-0.1,0.2-0.1,0.3-0.2,0.5c-1.1,2.6-2.8,5.2-4.6,7.9c-0.4,0.5-0.8,1.1-1.1,1.6c13.7,4.1,27.1,9.4,40.2,16c0.1,0,0.1,0.1,0.2,0.1
		c5.4,2.5,10.7,5.1,15.9,7.9c3-0.5,6.3-1.1,10-1.9c2.3-0.4,4.6-0.9,7-1.4c-9.1-5.4-18.4-10.4-28.1-14.8
		C409.8,21.9,396.6,16.6,383.3,12.4z M419.6,45.7c1.5,1.5,2.5,2.3,3.2,2.3c0.9,0,3.7-0.3,7.2-0.9c-2-0.6-4.2-0.9-6.6-0.9
		C422.3,45.9,421,45.8,419.6,45.7L419.6,45.7z M440.8,55.4c-3,0.7-5.8,1.4-8.2,1.9c-3.8,0.8-6.5,1.4-8.5,1.5c-1,0-2.2,0.9-3.9,2.6
		c-1.8,1.7-3.9,4.2-7.4,5.3c-5.2,1.6-10.3,0.6-14.8-0.1c-4.5-0.7-8.3-1.1-11.4,0c-6.8,2.6-13.2,8.2-16.4,14.5
		c-0.1,0.3-0.3,0.6-0.5,0.9c-0.3,1.6-0.6,3.1-0.7,4.7c2.5-0.5,6.3-1.5,10.6-3c5.9-2.1,12.4-4.9,17.5-7.2c2.7-1.2,5.6-4.6,10.5-6.2
		c7.7-2.5,15-0.7,20.5-2.1c3.7-0.9,8.1-4.1,12.7-7.1c0.7-0.4,1.4-0.9,2.1-1.3C442.4,58.3,441.6,56.8,440.8,55.4L440.8,55.4z
		 M444.3,75.6c-4.8,0-9.3,0-12.1,1.1c-4.8,1.9-9.5,6.7-16.3,9.1c-8.5,3-16.9,1.8-23.3,4c-6.3,2.2-12.2,7.4-19.7,10.9
		c0.8,1,1.6,2.1,2.6,3c18,12.6,48.4,12.8,60-8.7C440.4,89.6,443.4,82.6,444.3,75.6L444.3,75.6z M189.7,135.3c4.6,1,9.2,4.3,11.4,8.6
		c2.5,4.9,0.1,11.4-5.2,13.1c-4.8,3-13.8,3.9-13-4.2C182.4,146.3,183.7,139.2,189.7,135.3L189.7,135.3z M166.8,180.8
		c6.2,0.8,0.2,6.7-2,8.8c-3.6,4.1-8.1,9-14.1,8.3c-3.1-1.5-2-6.8-6.5-7.3c-4.2-0.5-5.3-6.4-0.9-7.6c2.2-1.3,4.7-2.1,7.2-1.9
		C155.9,182.5,161.4,180.9,166.8,180.8L166.8,180.8z M223.5,191.8c1.2,0,2.3,0.2,3.5,0.4c12.2,1.9,21.1,13.6,20.2,25.7
		c-0.2,5-0.4,15.2-1.5,25c-0.6,4.9-1.3,9.8-2.5,13.9c-1.1,4.1-2.5,7.5-4.9,9.6c-3.1,3.1-7,4.6-11.2,4.8c-4.2,0.2-8.6-0.7-13-2.4
		c-8.8-3.2-17.6-9.1-23.8-14.3c0,0-0.1,0-0.1-0.1c-5.1-4.8-7-11.3-6.9-17.7c0.1-6.4,2.3-12.9,5.6-18.1c0,0,0,0,0,0
		c4-6.3,9.3-13.6,15.6-19c4.8-4.1,10.3-7.1,16.3-7.8c0.5-0.1,1-0.1,1.5-0.1C222.8,191.8,223.1,191.8,223.5,191.8L223.5,191.8z
		 M224.2,195.9c-0.3,0-0.6,0-0.9,0c-0.4,0-0.8,0-1.3,0.1c-5,0.5-9.6,3.1-14,6.8c-5.8,5-10.9,12-14.9,18.1c-2.9,4.6-4.9,10.4-5,16
		c-0.1,5.6,1.5,10.8,5.6,14.7c5.9,5,14.4,10.6,22.5,13.6c4.1,1.5,8,2.3,11.4,2.1c3.4-0.2,6.2-1.2,8.5-3.6c0,0,0.1-0.1,0.1-0.1
		c1.2-1.1,2.7-4,3.7-7.7c1-3.8,1.8-8.5,2.4-13.3c1.1-9.6,1.3-19.7,1.5-24.8c0,0,0-0.1,0-0.1c0.7-10-6.8-19.9-16.8-21.4
		c0,0,0,0-0.1,0C226.1,196,225.1,195.9,224.2,195.9L224.2,195.9z M407,219.4c5.4,0.1,10.7,5.4,16.5,2.4c3.9-4.5,15.7-0.2,10,5.5
		c-1.3,1.7-3.6,2-5.5,1.6c-6.8-2.5-13.1,2-19.9,2c-7.2,2-13.2-7.5-4.9-10.7C404.5,219.7,405.8,219.4,407,219.4z M503.8,249.2
		c-30.7,1.6-45.9,35.3-48.6,62c2.7,11.2,9.7,22,20.9,26.2c25.8,11.1,69.7-0.5,69.9-33.5C545.2,279.9,527.8,254.2,503.8,249.2z
		 M424.3,253.2c1.6,0,3.1,0.3,4.3,1c3.8,1.3,10.9,10.1,4.2,11.9c-5.9-1.9-14.1-1.1-18.4-5.4C414.3,256.1,419.6,253.2,424.3,253.2z
		 M394.7,255.7c0.5,0,1,0.1,1.5,0.2c4.7,2.9,5.3,9.9,3.4,14.7c-0.9,2-2.8,5-5.4,3.7c-5.1-0.5-11.7-4.1-10.6-10.1
		C386,260.6,390,255.6,394.7,255.7z M0.9,270.1C-4.5,336.3,14.4,403.8,51,459.7c2.9-2.7,5.8-5.3,8.6-7.9
		C25.2,398.5,7.4,334.5,12.2,271.7c-1,0-2.3,0.2-3.9,0.5c-1.3,0.3-2.8,0.8-4.9-0.1C2.4,271.8,1.5,271,0.9,270.1z M67.1,295.4
		c-2.3,0-4.5,0.1-6.8,0.4c-24.1,1.5-43.5,43-31.5,60.2c9.5,18.4,52.3,15.1,65-3.2c14.1-15,11.7-42.2-7.4-52
		C80.6,297.4,73.9,295.5,67.1,295.4z M338.4,323.9c0.5,0,1,0.1,1.5,0.2c2.8,0.7,4.2,3.9,6.3,5.8c6,5.4,14.2,8.9,18.3,16
		c4.1,7.1,20.7,13.6,30.4,21.2c4.7,3.7,8.1,9.5,12.8,12.9c-11.6,1-23.5-0.9-31.2-8.1c-10.7-9.6-21.1-19.1-31.9-26.3
		c-11.6-6.4-15.5-10.7-15.4-15.9c1.8-1.2,3.6-2.6,5.1-4.3C335.2,324.4,336.9,323.9,338.4,323.9L338.4,323.9z M530.7,372.1
		c15.1,0,29.8,0.4,44.1,0.9C546,475.3,453.2,556.8,349.1,578.3c-5.5-4.1-11.1-9-17.4-15.3h0v0c-11.8-11.7-18.6-26.4-23.3-38.4
		c-3.1-9.7-2.4-19.5,3.7-29.7c15.6-26.4,35.7-54.9,63.8-86.3c11.4-16.8,27.5-21.5,45.1-25.6c11.2-2.6,22.6-4.7,33.9-6.2
		c0.6,0.1,1.3,0.1,1.9,0.2c14.5,2.2,26.3,13.7,40.5,17.2c3.9,1,11.1,4.9,12.2,1c3.1-11.2-20.4-11.5-31.4-15.2
		c-4.7-1.6-10.3-2.9-16.2-4.2C485.1,373,508.2,372.1,530.7,372.1L530.7,372.1z M240.1,426.7c-9.4-0.1-19.4,2.8-26.4,8.7
		c-1.2,1-2.4,1.8-3.6,2.7c0.3,0.6,0.5,1.1,0.7,1.7c0.9,2.3,1.9,5.3,2.2,8.5c0.3,3.2-0.2,7.2-3.4,9.5c-2.6,1.9-5.9,1.4-8.1,0.3
		c-2.3-1-4.2-2.5-6-3.9c-1.8-1.3-3.5-2.5-4.4-2.8c-0.2-0.1-0.2-0.1-0.2-0.1c-1.6,2-2,3.7-1.8,5.7c0.2,2,1.3,4.5,3.2,7.2
		c3.8,5.4,10.8,11.5,18,17.7c7.2,6.2,14.7,12.5,19.8,19.3c0.5,0.7,1,1.4,1.5,2.1c18.5-9.4,30.9-30.8,35.3-50.7
		C270,435.3,255.8,426.8,240.1,426.7z M420.8,452.1c-28.4-0.3-52.4,39.9-28.1,60.9c18.6,19.4,68.3,26.7,72.4-8.7
		c2.7-23.7-15.9-43.6-37-51.2C425.6,452.5,423.2,452.1,420.8,452.1z M179.3,459.8c-1.1,1.6-2,3.4-2.8,5.4c-9.2,20,8.2,41,28.3,42.8
		c-3.8-5.5-7-11.5-9.9-17.6C189.7,479.8,185.2,468.9,179.3,459.8L179.3,459.8z M296.7,517.9c3.1,0,5.1,2.8,7.2,7.9
		c4.6,12.2,11.7,27.6,24.5,40.4c5.2,5.2,10,9.5,14.7,13.2c-42.7,7.9-87.2,5.5-129.7-9.6c9-3.8,19.1-9.2,30.7-16.8l0.2-0.1l0.2-0.2
		c1-1,5-4.1,10.2-7.7c5.2-3.6,11.7-8,18.2-12.5c4.8-3.3,9.7-6.7,14-9.7C291.2,519.5,294.2,517.9,296.7,517.9L296.7,517.9z"/>
</g>
</svg>
