<?xml version="1.0" encoding="utf-8"?>
<!-- Generator: Adobe Illustrator 24.0.1, SVG Export Plug-In . SVG Version: 6.00 Build 0)  -->
<svg version="1.1"
	 id="svg8" inkscape:export-filename="respiratory.png" inkscape:export-xdpi="12.0952" inkscape:export-ydpi="12.0952" inkscape:version="1.0 (4035a4fb49, 2020-05-01)" sodipodi:docname="respiratory.svg" xmlns:cc="http://creativecommons.org/ns#" xmlns:dc="http://purl.org/dc/elements/1.1/" xmlns:inkscape="http://www.inkscape.org/namespaces/inkscape" xmlns:rdf="http://www.w3.org/1999/02/22-rdf-syntax-ns#" xmlns:sodipodi="http://sodipodi.sourceforge.net/DTD/sodipodi-0.dtd" xmlns:svg="http://www.w3.org/2000/svg"
	 xmlns="http://www.w3.org/2000/svg" xmlns:xlink="http://www.w3.org/1999/xlink" x="0px" y="0px" viewBox="0 0 595.3 595.3"
	 style="enable-background:new 0 0 595.3 595.3;" xml:space="preserve">
<style type="text/css">
	.st0{fill:#69C8BE;}
</style>
<sodipodi:namedview  bordercolor="#666666" borderopacity="1.0" id="base" inkscape:current-layer="layer1" inkscape:cx="464.02845" inkscape:cy="491.32319" inkscape:document-rotation="0" inkscape:document-units="mm" inkscape:pageopacity="0.0" inkscape:pageshadow="2" inkscape:snap-global="false" inkscape:window-height="1040" inkscape:window-maximized="0" inkscape:window-width="1698" inkscape:window-x="182" inkscape:window-y="0" inkscape:zoom="0.7" pagecolor="#ffffff" showgrid="false">
	</sodipodi:namedview>
<g id="layer1" inkscape:groupmode="layer" inkscape:label="Layer 1">
	<path id="path844" class="st0" d="M297.6,0C133.3,0,0,133.3,0,297.6C0,462,133.3,595.3,297.6,595.3S595.3,462,595.3,297.6
		S462,0,297.6,0z M297.6,12c7.6,0,15.2,0.3,22.6,0.9c0.1,45.1-0.8,114.8-0.3,162.9c0.1,5,3.9,12.8,8.1,17.6
		c0.1,14.6,1.4,29.2,4.1,43.8c-2.7-0.6-5.7-1-8-1.9c-3.8-1.6-3.9-7.3-9.2-6.2c-2.2,0.4-4.4,1.6-6.6,1.2c-2.9-0.5-5.7-2.5-8-0.5
		c-2.3,2.1-4.8,4.8-7.7,6.6c-3,1.9-5.3,2.9-7.3,4.3c-1.8-13.1-4.1-28.4-4.6-40.4c2.3-7.4,4.4-17.8,4.5-21.3
		c1.9-54.9-1-125-0.4-166.7C289.1,12.1,293.3,12,297.6,12z M367.6,59.3c0.4,0,0.8,0,1.3,0l0,0c1,0,1.9,0.2,2.9,0.4
		c24.1,5.1,43.3,20.5,64.7,36.2c12.9,9.4,27.9,28.9,37.2,44.3c8.7,14.4,17.8,23.9,25,39.2c7.8,16.3,8.8,33.2,11.8,50.5
		c0,0.5,0,1.1,0,1.2c0,0.5,0,1,0,1.6c0,1.3,0.1,3.2,0.2,5.4c0.2,4.5,0.4,10.8,0.2,17.7c-0.2,13.8-1.9,30.1-7.1,39.9
		c-11.3,21.3-24.7,52.3-38.8,70c-20.2,25.3-36.9,42.5-59.8,51.3c-2.4,0.9-6.6,1.8-10.6,2.1c-1.3,0.1-2.7,0.1-3.9,0
		c-0.7-0.1-1.4-0.1-2.1-0.2c-1.6-0.2-2.9-0.6-3.8-1c-3.3-1.7-4.4-2.8-5-4.2c-0.6-1.4-0.8-3.7-1.1-7.7c-0.4-5.8,3.5-11.6,8.2-17.7
		c4.8-6.1,10.3-12.5,11.6-20.1c3-17.9,3.5-33.1-6.1-49.1c-4.7-7.8-14.5-18.7-25-30.8c-9-10.4-18.5-21.5-25.4-31.6
		c-1.2-5.3-3-11.1-4.5-15.6l0,0c-3.3-16.1-4.4-32.4-4.9-48.3h0c-0.5-10.1-2.7-30-1.5-44.7c0.4-4.7,3.1-11.9,4.1-17.1
		c3.3-8,7.5-17.6,10.2-23.3c1.9-3.8,4.6-8.7,6.1-18c0.1-0.8-0.1-1.3-0.4-1.3c-0.4-0.1-0.7,0.5-0.8,1.1c-1.4,8.8-4.6,13.3-6.7,17.5
		c-2.1,4.3-5.1,10.7-7.9,17.2c0.6-11.9,0.1-26,3.4-36.7c2.4-7.8,4.5-15.7,11-20.7C355.4,62.9,361.3,59.5,367.6,59.3z M232.9,59.9
		L232.9,59.9c13.3,0,21.3,5.6,29.4,15.7c9.5,12,4.7,45.4,3.6,68.4c-2.5-3.9-5-8.3-6.1-11.2c-1.4-3.8-3-12.8-3-12.8
		c-0.1-0.7-0.1-1.4-0.5-1.4c-0.4,0.1-0.4,0.7-0.3,1.5c0,0,0.8,8.8,2.3,13.2c1.5,4.1,4.7,10.2,7.3,14.8c0,0.1,0,0.1,0,0.2
		c6.4,13.9,8.9,31,10.3,51.5h0c0.5,14.8,3.8,34.4,5.7,48.6l0.1,0c1.1,9.7,1.6,19.7,1.6,29.5c0,3.4,0.3,5.7-1.3,8.5
		c-0.4,0.2-0.8,0.4-1.3,0.5c-2.5,1-5.8,2-9.4,2.8c-7.2,1.7-15.9,2.8-22.9,2.8c-12.4-0.1-26.8,4.4-38.1,4.7
		c-24.8,0.5-50.3,0.3-73.4-7.6c-6.5-2.2-12.2-5.4-17.2-9.9c-4.3-3.8-10.1-10-19.4-15.5c-4.9-2.9-7.4-5.3-8.9-7.2
		c-1.4-1.8-3-5.4-3.7-7.2c1.1-7.5,5.4-17.9,8.9-26.7c9.8-25.3,24.9-47.9,37.4-72.1c7.3-14.2,14.2-31.5,24.7-43.6
		C178,85.8,202.8,61.3,230.2,60C231.1,59.9,232.1,59.9,232.9,59.9z M515.4,251.5c3.8,14.4,9.1,34.3,11.7,45
		c6.9,28.7,11.3,44,13,73.6c1.4,24.9,3.9,58.1-3.8,81.1c-1.5,4.6-4.6,7.4-10.9,9.5c-1,0.4-2.1,0.5-3.1,0.5
		c-1.8-1.4-10-7.8-18.5-13.8c-9.5-6.7-20.7-14.1-28.2-17c-13.7-5.3-29.2-9.2-44.3-10.2c-7.2-0.5-14.2-0.5-21-0.5
		c22.2-9.6,38.8-27,58.1-51.2c14.8-18.6,28.1-49.7,39.2-70.7c5.9-11.2,7.3-27.9,7.6-41.9C515.4,254.4,515.4,252.9,515.4,251.5z
		 M86.6,257.5c0.4,0.7,0.9,1.5,1.5,2.3c1.9,2.5,4.9,5.3,10.1,8.4c8.7,5.2,14.1,11,18.7,15c5.5,4.8,11.7,8.4,18.7,10.8
		c24,8.1,50.1,8.3,75,7.8c12.3-0.3,26.7-4.8,37.9-4.7c7.5,0.1,16.4-1.1,23.9-2.9c3.7-0.9,7.1-1.9,9.9-2.9c0.6,0.6,0.9,1.4,0.8,2.6
		c-2.2,26.5-5.9,66.4-13.5,82.4c-3.9,3.9-8.7,8.6-11.9,11.2c-17.7,14.7-45.5,23.7-67.3,33.6c-13,5.9-21.8,11.5-35.3,12.8
		c-3.4,0.3-6.5,0.9-9,0.8c-2.5-0.1-4.4-0.7-6.2-2.6c-10.4-11.3-22.3-30.4-28.5-46.8c-5.4-14-12.9-37.6-25.4-76.3
		c-1.7-5.4-2.4-15.6-2.5-24.2c-0.1-7,0-12,0-14c0,0,0.1,0,0.1,0C83.2,266.3,84.5,260.5,86.6,257.5z M343.6,266.6
		c6.2,8.2,13.4,16.6,20.4,24.6c10.5,12.1,20.4,23.2,24.5,30.2c8.9,14.8,8.4,28.5,5.5,46c-1,5.9-5.8,11.9-10.7,18.1
		c-4.8,6.2-9.7,12.9-9.2,20.8c0.3,3.9,0.3,6.6,1.4,9.2c0.4,0.8,0.9,1.6,1.5,2.3c-0.9,0-1.7,0-2.6,0.1h0c-9,0.6-17.4,4.2-23.9,8.8
		c-4.8,3.5-7.5,8.3-8.8,12.3c0,0,0,0,0,0.1c-3.8-6.7-3.5-17.3-3.8-24.8c-0.7-16.9,3.7-33.5,2.4-50.4c-0.7-9-1-17.6-0.8-26.7
		c0.3-10,3.3-19.1,4.4-29.1C345.6,293.1,345,281.2,343.6,266.6z M78.9,281.9c0,1,0,1.8,0,2.9c0.1,8.8,0.6,18.9,2.7,25.5
		c12.5,38.6,20,62.1,25.5,76.6c6.1,15.9,16.9,33.8,27.3,45.8c-1.6,1.7-3.5,3.3-4.8,4.1c-8.3,5-19.7,5.4-30,9.7
		c-8.3,3.5-15.4,9.9-22.7,11.8c-2.3,0.6-6.2,0.5-9.4,0.2c-1.9-0.2-3.4-0.4-4.4-0.6c0,0,0,0,0-0.1c-3.2-5.2-1.4-16.2-1.7-24.3
		c-0.4-14.5-1.3-28.9-0.8-43.4c0.7-18.1,7.7-43.3,10.8-66.2C73.7,307,76.4,291.7,78.9,281.9z M264.6,387.4c-0.2,3.4-1,6.4-2.1,12.3
		c-1.6,8.3,0.7,20.4-0.4,30c-2.2-1-6.2-2.9-9.1-3.7c-11.7-3-31.5-2.9-42.9-3.3c-4.3-0.1-9.1,0.1-13.6,0.6
		c20.8-9.1,46.6-17.8,64.2-32.4C261.8,390,263.2,388.8,264.6,387.4z M376.8,422.3c2,0,4.1,0.1,6.1,0.4c1.2,0.2,2.5,0.4,3.7,0.5
		c1.4,0.3,2.9,0.4,4.5,0.5c12.8,1.1,26.2,0.2,40,1.1c14.5,0.9,29.6,4.8,42.9,9.9c6.5,2.5,17.8,9.8,27.2,16.5
		c3.4,2.4,6.5,4.6,9.1,6.6c-2.8-1.2-5.7-2.4-8.5-2.8c-13.9-2-27-3.5-41-2.7c-22.3,1.3-43.9,5.9-66.8,4.5
		c-17.9-1.1-36.9-0.9-48.9-13.3c0.2-0.9,0.4-1.9,0.8-3c1.1-3.4,3.4-7.4,7.2-10.1C359.5,425.8,368,422.4,376.8,422.3z M208.1,427.3
		c0.6,0,1.1,0,1.7,0c11.6,0.4,31.5,0.4,41.9,3.1c2.7,0.7,8.4,3.4,9.4,3.9c-0.3,1-0.7,2-1.1,2.9c-4,8.2-11.6,18.8-16.9,19.4
		c-7.1,0.9-18.8,0.1-30,0.6c-20.3,0.9-41,5.2-61.4,5.9c-24.9,0.8-45-0.2-72.1,0.5c-3.1,0.1-6,0.1-8.6-0.4c2.3,0.1,4.8-0.1,6.9-0.6
		c8.9-2.4,16.1-9,23.3-12c9.1-3.8,20.9-4.1,30.6-10c1.9-1.2,3.8-2.9,5.5-4.6c2.5,2.2,5.5,3.1,8.4,3.2c3.3,0.1,6.5-0.5,9.6-0.8
		c10.7-1.1,18.7-4.6,27.3-8.7C188.7,428.7,199.5,427.3,208.1,427.3z"/>
</g>
</svg>
