<?xml version="1.0" encoding="UTF-8"?>
<!DOCTYPE svg PUBLIC "-//W3C//DTD SVG 1.1//EN" "http://www.w3.org/Graphics/SVG/1.1/DTD/svg11.dtd">
<svg version="1.1" xmlns="http://www.w3.org/2000/svg" xmlns:xlink="http://www.w3.org/1999/xlink" x="0" y="0" width="625" height="100" viewBox="0, 0, 625, 100">
  <g id="Layer_1">
    <path d="M21.255,28.788 L21.255,99.476 Q21.197,100 21.022,100 L0.509,100 Q0.276,99.883 0.276,99.476 L0.218,10.897 L0.276,10.839 L0.276,5.478 L0.392,4.604 Q3.19,-0 10.532,-0 L25.043,-0 L42.525,23.951 L46.779,29.779 L50.975,23.951 L68.458,-0 L83.376,-0 Q90.369,0.117 93.108,4.604 L93.225,5.478 L93.225,99.476 Q93.225,99.883 92.991,100 L72.479,100 Q72.304,100 72.246,99.476 L72.246,30.769 L72.187,30.828 L72.187,28.846 L54.239,53.438 L46.896,63.52 L46.779,63.695 L46.663,63.52 L39.262,53.438 z" fill="#7CD3CB"/>
    <path d="M120.031,63.578 L120.031,99.476 Q120.031,99.883 119.74,100 L99.285,100 Q99.11,100 99.052,99.476 L99.052,5.478 L99.169,4.604 Q101.966,-0 109.308,-0 L171.198,-0 Q172.13,-0 172.888,0.117 Q180.813,1.69 180.813,5.827 L180.813,99.476 Q180.813,99.883 180.58,100 L160.067,100 Q159.893,100 159.834,99.476 L159.834,63.578 z M159.834,44.231 L159.834,19.172 L120.031,19.172 L120.031,44.231 z" fill="#484646"/>
    <path d="M247.365,19.172 L207.62,19.172 L207.62,44.231 L247.365,44.231 z M222.48,63.578 L207.62,63.578 L207.62,100 L186.874,100 Q186.699,100 186.641,99.476 L186.641,5.478 L186.757,4.604 Q189.555,-0 196.897,-0 L258.146,-0 Q265.488,-0 268.286,4.604 L268.402,5.478 L268.402,58.1 L268.286,58.974 Q265.488,63.578 258.146,63.578 L244.043,63.578 L273.996,100 L246.84,100 z" fill="#484646"/>
    <path d="M334.396,19.172 L294.65,19.172 L294.65,44.231 L334.396,44.231 z M309.511,63.578 L294.65,63.578 L294.65,100 L273.905,100 Q273.73,100 273.671,99.476 L273.671,5.478 L273.788,4.604 Q276.585,-0 283.928,-0 L345.176,-0 Q352.519,-0 355.316,4.604 L355.433,5.478 L355.433,58.1 L355.316,58.974 Q352.519,63.578 345.176,63.578 L331.073,63.578 L361.026,100 L333.87,100 z" fill="#484646"/>
    <path d="M394.978,100 L389.034,84.732 L385.829,76.399 L384.896,74.009 L376.563,52.622 L359.954,9.615 L356.225,-0 L379.593,-0 L389.5,25.699 L402.728,59.732 L415.899,25.699 L425.805,-0 L449.174,-0 L445.444,9.615 L428.836,52.622 L420.502,74.009 L419.57,76.399 L414.616,89.336 L410.188,100 z" fill="#484646"/>
    <path d="M472.624,44.231 L527.812,44.231 L527.812,63.578 L472.624,63.578 L472.624,80.827 L527.812,80.827 L527.812,100 L461.901,100 Q454.559,100 451.761,95.396 L451.645,94.522 L451.645,5.478 L451.761,4.604 Q454.559,-0 461.901,-0 L527.812,-0 L527.812,19.172 L472.624,19.172 z" fill="#484646"/>
    <path d="M559.096,80.827 L613.776,80.827 L624,100 L548.374,100 Q541.031,100 538.234,95.396 L538.117,94.522 L538.117,0.524 Q538.175,-0 538.35,-0 L558.805,-0 Q559.096,0.117 559.096,0.524 z" fill="#484646"/>
  </g>
  <g id="Layer_2">
    <path d="M625,23.592 L625,29.006 L603.907,29.006 L603.823,23.653 Q614.029,13.59 615.797,10.892 Q617.564,8.194 617.564,6.682 Q617.064,5.522 616.53,4.951 Q616.386,4.528 614.968,4.442 Q612.573,4.341 611.53,5.012 Q610.558,5.645 610.558,7.526 L610.371,10.233 L603.907,10.233 L603.907,9.196 Q603.907,6.805 604.239,5.425 Q604.571,4.046 605.876,2.71 Q607.181,1.374 609.269,0.688 Q611.357,0.003 614.276,0.003 Q618.056,-0.072 620.986,2.028 Q623.917,4.129 623.917,7.346 Q623.917,9.789 622.268,12.514 Q620.619,14.676 612.552,23.518 z" fill="#7CD3CB"/>
  </g>
</svg>
