<?xml version="1.0" encoding="utf-8"?>
<!-- Generator: Adobe Illustrator 24.0.1, SVG Export Plug-In . SVG Version: 6.00 Build 0)  -->
<svg version="1.1"
	 id="svg8" inkscape:export-filename="blood_&amp;_immune.png" inkscape:export-xdpi="12.0952" inkscape:export-ydpi="12.0952" inkscape:version="1.0 (4035a4fb49, 2020-05-01)" sodipodi:docname="blood_&amp;_immune.svg" xmlns:cc="http://creativecommons.org/ns#" xmlns:dc="http://purl.org/dc/elements/1.1/" xmlns:inkscape="http://www.inkscape.org/namespaces/inkscape" xmlns:rdf="http://www.w3.org/1999/02/22-rdf-syntax-ns#" xmlns:sodipodi="http://sodipodi.sourceforge.net/DTD/sodipodi-0.dtd" xmlns:svg="http://www.w3.org/2000/svg"
	 xmlns="http://www.w3.org/2000/svg" xmlns:xlink="http://www.w3.org/1999/xlink" x="0px" y="0px" viewBox="0 0 595.3 595.3"
	 style="enable-background:new 0 0 595.3 595.3;" xml:space="preserve">
<style type="text/css">
	.st0{fill:#69C8BE;}
</style>
<sodipodi:namedview  bordercolor="#666666" borderopacity="1.0" id="base" inkscape:current-layer="layer1" inkscape:cx="465.7566" inkscape:cy="366.29879" inkscape:document-rotation="0" inkscape:document-units="mm" inkscape:pageopacity="0.0" inkscape:pageshadow="2" inkscape:snap-global="false" inkscape:window-height="1040" inkscape:window-maximized="0" inkscape:window-width="1275" inkscape:window-x="629" inkscape:window-y="0" inkscape:zoom="0.49497475" pagecolor="#ffffff" showgrid="false">
	</sodipodi:namedview>
<g id="layer1" inkscape:groupmode="layer" inkscape:label="Layer 1">
	<path id="path906" class="st0" d="M297.6,0C133.3,0,0,133.3,0,297.6c0,164.3,133.3,297.6,297.6,297.6s297.6-133.3,297.6-297.6
		S461.9,0,297.6,0z M446.4,53.6c35.2,21.5,65.4,50.4,88.4,84.5c-1.4,0.1-2.9,0.3-4.3,0.6c-7.8,1.8-16.1,5.3-20.8,11.6
		c-4.2,5.7-5.5,13.8-4.6,20.8c1.2,9.4,5.6,19.3,13,25.3c7.8,6.4,19.1,7.9,29.3,8.3c6.5,0.3,14,0.7,20.4-0.9
		c6.5,18.7,11.1,38.2,13.5,58.4c-18.4,12.1-36.9,23.9-54.1,33.7c-16.7,9.6-34.3,19.8-53,29.9c-10.4,11.4-37.3,41.3-43.9,51.2
		c-13,19.7-27.3,49.4-30.4,60.5c-6.1,21.7,2.7,64.4-12.3,120.9c-1,3.8-2.1,7.6-3.3,11.5c-11.5,3.6-23.2,6.6-35.2,8.7
		c-4-9-12.9-15.4-21.4-20.5c-7.2-4.3-15.7-9.7-24-9.7c-1.5,0-3,0.2-4.5,0.6c-7,1.9-11.4,9.7-14.3,16.2c-2.4,5.4-3.7,11.4-3.7,17.4
		c-7.1-0.4-14.1-1.1-21.1-2c9.2-19.7,18.6-41,21.1-50.5c5.2-19.6-1.3-55.5,7.9-102.5c4.1-20.8,11.3-31.9-0.4-32.2v0
		c-3.9-0.1-9.9,0.9-18.8,3.2c-73.6,11.7-122.7,4.4-140.2,11.2c-9.3,3.6-35.3,24.1-67.9,48.9c-16.9-24.6-30-52-38.5-81.4
		c6.2,0.5,12.6-0.4,18.6-1.5c9.8-1.8,21.9-3.8,27.3-12.1c3.9-6.1,2.1-14.8-0.1-21.6c-2.6-8.1-7.7-15.9-14.6-20.9
		c-8.1-5.9-18.7-8-28.7-8.6c-0.6,0-1.3-0.1-1.9-0.1c-3.9-0.1-7.8,0.5-11.4,1.9c-0.3-5.6-0.5-11.3-0.5-17c0-41.8,9-81.5,25.1-117.3
		c0.8-0.3,1.6-0.7,2.5-1c116.9-45.7,202.7-25.7,232.2-34.5c38.1-11.4,82-34.9,132-63.7C414,75.3,429.5,65.1,446.4,53.6z M469.3,88.1
		c-1.8,0-3.7,0.2-5.4,0.5c-9.3,1.6-19,6.5-24.7,14.2c-6.1,8.1-7,19.5-6.9,29.7c0,10-0.2,22.2,7.1,29.1c5.3,4.9,14.2,4.7,21.3,3.8
		c8.4-1.1,17-4.8,23.1-10.7c7.2-6.9,11.2-17,13.6-26.7c1.2-5,1.6-10.4,0.2-15.4c-2.1-7.7-6-15.8-12.6-20.2
		C480.5,89.3,474.8,88.1,469.3,88.1z M473.5,102.5c3.7,0,7.2,1.1,9.1,4c0.9,1.8,0.7,2.9-1.5,0.9c-0.6-0.9-4.9-2.3-7.9-1.9
		c-3,0.3-5.6,3.3-7.1,6.4c-2.8,5.8-3.6,10.3-4.7,16.8c-0.6,3.3-0.9,8.3,0.4,11.3c0.9,1.9,1.6,3.6,2.6,4.9c1.1,1.3,2.1,2,3.7,2.2
		c0.4,0.1,2.6-0.5,4.4-1.5c1.9-1,2.1-1.1,3.2-1.8c1-0.6,3.4-3.1,4-2.2c0.6,0.8-1.6,3.8-2.4,4.6c-1.1,1.2-1.3,1.5-3.1,2.9
		c-1.9,1.5-3.8,2.9-6.8,2.5c-2.8-0.4-4.9-2-6.5-3.8c-1.6-1.8-2.6-4-3.5-6.1c-1.8-4-2.3-8.9-1.6-13.2c1.2-6.8,2.9-12.8,5.9-19.1
		c2.3-4.7,6-6.5,10.3-6.9C472.5,102.5,473,102.5,473.5,102.5z M387,119.3c-1.1,0-2.1,0.1-3.2,0.2c-9.9,1.1-19.3,6.6-27.1,12.9
		c-4,3.2-7.6,7.3-9.5,12.1c-3,7.4-4.9,16.2-2.4,23.7c2.2,6.7,8.1,12.4,14.4,15.7c8.4,4.4,19.1,6.4,28.2,3.9
		c9.8-2.7,17.4-11.2,23.6-19.2c6.1-7.9,13.7-17.5,12.2-27.3c-1.1-7.1-8.3-12.4-14.6-16C402.3,121.4,394.5,119.2,387,119.3z
		 M388.1,129.7c2.4,0,4.8,0,6.9,2.2c1.9,2,2.7,4.6,2.8,7c0.1,2.4-0.4,4.8-0.9,7c-1,4.3-3.6,8.5-6.8,11.4
		c-5.1,4.7-10.1,8.4-16.4,11.5c-4.7,2.3-8.7,1.4-12.4-0.8c-3.6-2.2-6.4-5.7-6-9.6c0.4-2,1.2-2.7,1.8,0.2c-0.1,1.1,2.5,4.8,5.1,6.4
		c2.6,1.6,6.5,0.9,9.6-0.7c5.8-2.9,9.1-6,14-10.5c2.5-2.3,5.8-6,6.5-9.2c0.5-2.1,1-3.8,0.9-5.5c-0.1-1.7-0.5-2.9-1.6-4
		c-0.3-0.3-2.4-1.1-4.4-1.5c-2.1-0.4-2.3-0.4-3.6-0.5c-1.2-0.1-4.5,0.4-4.6-0.7c0-1,3.6-2,4.7-2.2
		C385.5,129.8,385.8,129.7,388.1,129.7z M525.5,152.9c0.6,0.1,0.5,0.7-0.8,2c-1,0.6-2.5,4.8-2.3,7.8c0.2,3,3,5.8,6,7.4
		c5.7,3.1,10.1,4.1,16.6,5.5c3.2,0.7,8.2,1.3,11.2,0.1c0.7,1.4,1.3,2.9,2,4.3c-0.1,0.1-0.3,0.1-0.4,0.2c-4.1,1.6-9,1.9-13.2,0.9
		c-6.7-1.5-12.7-3.5-18.8-6.8c-4.6-2.5-6.2-6.3-6.4-10.6c-0.2-4.3,1-8.5,4.5-10.4C524.5,153,525.1,152.8,525.5,152.9z M224,164.4
		c-0.9,0-1.9,0-2.9,0c-1.1,0-2.3,0-3.4,0.1c-6.6,0.2-11.5,4.9-15.1,9.5c-1.8,2.3-3.2,4.7-4.3,6.6c-1.1,1.9-2,3.6-2.3,4
		c-0.8,1.2-2.8,3.7-4.8,6.5c-2,2.8-4,6.1-4.9,9.5c0,0.1-0.1,0.2-0.1,0.4c-5.9-1.8-12.4-3.9-18.6-4c-0.4,0-0.9,0-1.3,0
		c-3.1,0.1-6.1,0.8-8.9,2.3c-6.3,3.5-8.7,12.1-10,19.2c-1.5,8.4-0.5,17.7,3.2,25.3c4.4,8.9,12.9,15.8,21.4,21
		c4.4,2.7,9.5,4.6,14.6,4.8c8,0.3,16.9-1,23.1-6c3.2-2.5,5.6-6,7.3-9.9c5.6,1.2,11.8,0,18.2-0.8c7.3-0.9,13.5-2.4,14.8-2.7
		c1-0.3,5.8-1.2,10.9-2.9c5.1-1.7,11.8-6.4,15.2-10.1c0.9-0.9,1.6-1.9,2.3-3l-0.1,2.5c0,0,0,0,0,0c1.2,2.4,2.7,4.7,4.6,6.6
		c3.8,3.9,8.4,7.5,13.4,9.7c3.4-3.8,7.5-7.2,12.4-9.3c4.9-2.2,10.3-3.1,15.7-3.1c2.1,0,4.3,0.2,6.4,0.5c4.1-5.1,7.1-11.1,7.9-17.4
		c1.4-10.1-3.3-20.5-8.2-29.3c-4.8-8.7-10.5-19.6-20.2-22.1c-1-0.3-2-0.4-3-0.4c-0.3,0-0.7,0-1,0c-5.8,0.3-11.8,3.9-16.5,7.3
		c-2.8,2.1-5.5,4.5-7.8,7.3c0-0.1,0-0.1-0.1-0.2l-0.1,1.2c-2-6.7-5.6-13.4-11.7-17c-5-3-11.2-3.7-16.9-3.9
		c-5.7-0.2-11.1-0.1-13.9-0.8C236.2,165,230.6,164.5,224,164.4z M221.2,168.5c7.7-0.1,14.3,0.5,17.5,1.3c4,0.9,9.2,0.6,14.7,0.9
		c5.5,0.2,9.5,2.1,13.5,4.5c6.4,3.9,10,13,11.4,21.1c2.2,13.4,3.5,28.7-5,38.1c-2.3,2.6-7.5,5-12.3,6.6c-4.8,1.6-9.2,2.5-10.7,2.8
		c-1.2,0.3-7.3,1.8-14.3,2.6c-7.1,0.9-15.1,1-19.9-0.8c-2.6-1-4.1-3.8-5.6-7.5c-1.5-3.7-2.8-8.1-5.9-11.3c-3.1-3.2-6.3-4.8-8.9-6.2
		c-2.5-1.3-2.9-2.3-3.8-4c-2.8-5.4-2-8.5-0.2-14.9c0.7-2.5,2.5-5.5,4.3-8.2c1.9-2.7,3.7-5,4.8-6.6c0.6-1,1.4-2.4,2.4-4.3
		c1.1-1.9,2.4-4.1,4-6.1c3.2-4.2,6-7.7,10.6-7.9C218.9,168.6,220.1,168.6,221.2,168.5z M237,174c-2.1,0-4.1,0.3-5.6,1
		c-3.5,1.5-5.9,5.6-6.5,9.3c-0.4,2.5,2,4.9,2,7.5c0.1,2.7-0.4,5.6-1.8,8c-1.4,2.4-4.7,3.2-6.4,5.4c-2.5,3.3-5.5,7.1-5.2,11.3
		c0.2,2.2,1.6,4.6,3.6,5.5c3.1,1.4,6.8-2.7,10-1.7c2.3,0.7,3,4.2,5.2,4.9c2.8,0.9,6.2-2.2,8.7-0.8c1.6,0.9,1.5,3.4,2.4,5
		c1.1,1.9,1.7,4.3,3.6,5.5c1.7,1.2,4.4,2.5,6.2,1.3c1.2-0.8,0-3.1,0.8-4.3c1.2-1.8,4.3-1.7,5.5-3.5c1.9-2.8,3.1-8.5,1.8-10.1
		c-1.3-1.6-5.2-7.1-9.1-7.2c-3.4-0.1-6,3.3-8.4,5.7c-1.6,1.6-2,4.3-3.9,5.4c-2,1.2-4.8,1.8-6.9,0.9c-1.7-0.7-3.7-2.4-3.4-4.1
		c0.3-1.9,3.8-1.5,4.9-3.1c1.8-2.6,2.7-6.4,1.6-9.4c-1.3-3.2-6.9-3.1-8.3-6.3c-0.8-1.9-0.4-4.8,0.3-6.8c0.7-1.9,3.3-1.3,5.3-1.4
		c3.5-0.2,7,2,10.4,1.4c3.8-0.6,8.8-1.4,10.3-4.9c1.5-3.4-3-9.1-3.2-10.8C251,176.4,243.4,174,237,174z M438.4,177.9
		c-0.4,0-0.9,0-1.3,0c-3.1,0.1-6.1,0.8-8.9,2.3c-6.3,3.5-8.7,12.1-10,19.2c-1.5,8.4-0.5,17.7,3.2,25.3c3.6,7.2,9.7,13,16.4,17.7
		c2.7-0.6,5.4-0.8,8.1-0.9l0.1,0h0.3c9.6,0,20.1,1.2,29,6.1c1.9-0.8,3.7-1.9,5.3-3.1c5.6-4.4,8.9-11.9,9.8-19
		c1.2-9.4-0.5-20.1-6.1-27.8c-5.9-8.2-16.5-12.5-26.2-15.5C452,180.3,445,178,438.4,177.9z M293.7,193.9L293.7,193.9
		c1.6-0.1,3.2,0.3,4.6,0.8c2.3,0.9,4.2,2.2,6,3.6c3.5,2.6,6.3,6.7,7.7,10.8c2.2,6.5,3.6,12.6,4,19.6c0.3,5.3-2.2,8.6-5.7,11
		c-3.5,2.4-7.8,3.6-11.2,1.7c-1.7-1.2-2-2.2,0.9-1.5c1,0.5,5.4-0.4,7.9-2.1c2.5-1.7,3.4-5.6,3.2-9c-0.3-6.5-1.8-10.8-4-17
		c-1.1-3.1-3.2-7.7-5.8-9.7c-1.7-1.3-3.1-2.4-4.6-3c-1.5-0.6-2.8-0.7-4.3-0.2c-0.4,0.2-2,1.7-3.1,3.4c-1.2,1.8-1.3,2-1.9,3.1
		c0,0.1-0.1,0.2-0.1,0.2c-0.2-0.4-0.4-0.8-0.6-1.2c-0.8-1.5-1.3-2.3-1.2-2.9c0,0,0,0,0,0c0.1-0.4,0.3-0.8,0.6-1.4
		c1-2.2,1.9-4.4,4.7-5.4v0C291.7,194.1,292.7,193.9,293.7,193.9z M70.6,195.5c-1.3,0-2.5,0-3.8,0.1c-5.1,0.2-10.5,1.5-14.8,4.2
		c-6.7,4.2-13.4,10.3-15.8,17.9c-2.1,6.8-0.7,14.8,2.5,21.2c4.2,8.5,11.7,16.4,20.6,19.6c9.5,3.5,20.7,1.1,30.4-1.8
		c9.5-2.9,21.4-6.1,25.8-15.1c3.2-6.4,0.5-14.9-2.4-21.5c-3.4-7.8-9.4-14.9-16.8-19.1C88.7,196.7,79.4,195.4,70.6,195.5z
		 M443.4,203.2c3.9-0.1,8,0.8,11.4,2.6c6.1,3.1,11.4,6.6,16.4,11.4c3.8,3.6,4.4,7.7,3.5,11.9c-0.9,4.2-3.2,8-7,9
		c-2,0.3-2.9-0.2-0.4-1.7c1.1-0.3,3.6-4,4.2-7c0.6-3-1.4-6.3-4-8.7c-4.7-4.5-8.8-6.5-14.6-9.5c-3-1.5-7.7-3.4-10.9-3
		c-2.1,0.3-3.9,0.4-5.4,1c-1.5,0.6-2.6,1.4-3.3,2.9c-0.2,0.4-0.3,2.6,0.1,4.6c0.4,2.1,0.5,2.3,0.8,3.6c0.3,1.1,1.9,4.1,0.9,4.5
		c-0.9,0.3-3.1-2.7-3.7-3.7c-0.8-1.4-1-1.7-1.8-3.9c-0.8-2.3-1.7-4.5-0.3-7.2c1.2-2.5,3.4-4.1,5.6-5.1c2.2-0.9,4.6-1.3,6.8-1.6
		C442.2,203.2,442.8,203.2,443.4,203.2z M85.9,208.4c1.3,0.1,3.4,0.9,4.2,1.2c1.4,0.7,1.8,0.8,3.7,2.2c2,1.4,3.9,2.8,4.3,5.8
		c0.4,2.8-0.5,5.3-1.8,7.3c-1.3,2-3.1,3.6-4.8,5.1c-3.3,2.9-7.9,4.8-12.2,5.3c-6.8,0.8-13.1,0.9-20-0.2c-5.2-0.9-7.9-3.9-9.5-7.9
		c-1.6-4-1.8-8.4,0.8-11.3c1.5-1.4,2.6-1.5,1.3,1.2c-0.7,0.8-0.8,5.4,0.4,8.2c1.2,2.8,4.7,4.5,8.2,5c6.4,1,10.9,0.5,17.5-0.3
		c3.3-0.4,8.2-1.5,10.7-3.6c1.6-1.4,3-2.5,3.9-3.9c0.9-1.4,1.3-2.6,1.1-4.2c-0.1-0.4-1.2-2.3-2.7-3.8c-1.5-1.6-1.7-1.7-2.6-2.5
		c-0.9-0.8-3.9-2.4-3.3-3.2C85.2,208.5,85.5,208.4,85.9,208.4z M172.6,222.3c3.9-0.1,8,0.8,11.4,2.6c6.1,3.1,11.4,6.6,16.4,11.4
		c3.8,3.6,4.4,7.7,3.5,11.9c-0.9,4.2-3.2,8-7,9c-2,0.3-2.9-0.2-0.4-1.7c1.1-0.3,3.6-4,4.2-7c0.6-3-1.4-6.3-4-8.7
		c-4.7-4.5-8.8-6.5-14.6-9.5c-3-1.5-7.7-3.4-10.9-3c-2.1,0.3-3.9,0.4-5.4,1c-1.5,0.6-2.6,1.4-3.3,2.9c-0.2,0.4-0.3,2.6,0.1,4.6
		c0.4,2.1,0.5,2.3,0.8,3.6c0.3,1.1,1.9,4.1,0.9,4.5c-0.9,0.3-3.1-2.7-3.7-3.7c-0.8-1.4-1-1.7-1.8-3.9c-0.8-2.3-1.7-4.5-0.3-7.2
		c1.2-2.5,3.4-4.1,5.6-5.1c2.2-0.9,4.6-1.3,6.8-1.6C171.5,222.4,172,222.3,172.6,222.3z M324.6,244.5c-4.9,0-9.8,0.8-14.1,2.7
		c-9.3,4.1-15.7,13.5-20.6,22.4c-4.9,8.7-11.1,19.3-8.2,28.8c2.1,6.9,10,11.1,16.7,13.8c7.9,3.2,17.2,4.2,25.4,2.1
		c9.7-2.5,18.1-9.3,25-16.6c3.5-3.7,6.5-8.3,7.7-13.3c1.9-7.7,2.5-16.7-1-23.8c-3.2-6.4-9.8-11.1-16.5-13.5
		C334.4,245.4,329.5,244.5,324.6,244.5z M446.3,245.4c-5.1,0-10.5,1-15,3.5c-6.9,3.9-13.9,9.6-16.6,17.1c-1.7,4.6-1.7,9.9-0.6,14.9
		l1,2c-3.3-0.1-6.2-0.2-8-0.6c-4.4-1.1-12.6-1.6-21.9-1.3c-6.6,0.2-11.5,4.9-15.1,9.5c-1.8,2.3-3.2,4.7-4.3,6.6
		c-1.1,1.9-2,3.6-2.3,4c-0.8,1.2-2.8,3.7-4.8,6.5c-2,2.8-4,6.1-4.9,9.5c-1.8,6.5-2.8,11.5,0.5,17.9c1.5,3,4.2,4.4,6.8,5.8
		c2.6,1.4,6.4,3.9,9,6.5c2.1,2.2,3.5,6,5,10c1.6,3.9,2.4,10.5,6.8,12.2c6.2,2.4,13.5,0.9,20.8,0c7.3-0.9,13.5-2.4,14.8-2.7
		c1-0.3,5.8-1.2,10.9-2.9c5.1-1.7,11.8-6.4,15.2-10.1c10.1-11.1,9.8-28.8,7.5-42.7c-0.1-0.3-0.1-0.6-0.2-1
		c5.1-0.3,10.3-1.3,15.2-2.6c9.7-2.4,21.6-5.1,26.5-13.8c3.5-6.3,1.2-14.9-1.4-21.6c-3.1-7.9-8.7-15.4-15.9-19.9
		C467,246.8,456.3,245.4,446.3,245.4z M142.6,247.8c-4.9,0-9.8,0.8-14.1,2.8c-9.3,4.2-15.6,13.6-20.5,22.5c-4.8,8.7-11,19.3-8,28.8
		c1.6,4.9,6,8.4,10.8,11c-0.1,0.1,1,0.7,2.1,1.2c-2.1,2.7-4.1,5.9-6.1,9.5c-2.4,4.5-4.5,9.9-5.2,15.3c-0.2,0-0.4,0-0.6,0L96,339
		c-6.4,0.5-12.8,2.4-18,5.8c-1.2,0.8-2.3,1.6-3.4,2.5c1.4,6.1,1.7,13-2.1,18.8c-3.8,5.9-9.8,9-16,10.8c-0.4,2.1-0.5,4.2-0.4,6.3
		c0.6,7.9,2.7,16.7,8.3,22.4c5,5.1,12.8,7.6,19.9,7.8c9.5,0.3,19.9-2.6,27-8.9c4.8-4.3,7.8-10.3,9.9-16.6l1.5-5.2
		c0.5-2,0.9-4,1.3-5.9c0.2-1.2,0.5-2.4,0.7-3.6c2.8,3.5,5,6.3,11.4,10.8c6.5,4.6,20,6.1,25.6,4.6c2.8-0.8,5.4-1.8,7.4-2.6
		c2.1-0.9,3.7-1.6,4.3-1.8c1.4-0.5,4.5-1.2,7.8-2.3c3.3-1.1,4.1-2.1,6.9-4.2c5.3-4.1,9.2-7.4,10.5-14.5c0.6-3.3-0.7-6.1-1.9-8.7
		c-1.2-2.7-2.8-6.9-3.2-10.6c-0.4-3,0.9-6.9,2-11c1.1-4.1,2.1-16.2-0.4-20.2c-3.5-5.7-8.6-3.2-15-6.9c-5.9-3.4-10.5-5.3-12.2-6
		c3.1-3.6,5.7-7.8,6.8-12.4c1.3-5.2,1.9-11.1,1.1-16.5c-2-0.8-3.9-1.8-5.8-2.9c-8-4.9-16.2-11.3-21.3-19.8
		C146.7,247.9,144.7,247.8,142.6,247.8z M241.9,253.9l-2.5,0.2c0.3,0,0.6,0,0.9,0C240.9,254.1,241.4,254,241.9,253.9z M464.5,259
		L464.5,259c1.2,0,3.6,1,4.4,1.5c1.4,0.8,1.7,0.9,3.6,2.3c1.9,1.5,3.7,3,4,6h0c0.3,2.8-0.7,5.3-2.1,7.2c-1.4,2-3.3,3.5-5,4.9
		c-3.5,2.7-8.1,4.4-12.4,4.7c-6.9,0.5-13.1,0.3-20-1.2c-5.1-1.1-7.7-4.3-9.2-8.3c-1.4-4-1.4-8.4,1.3-11.3c1.6-1.3,2.6-1.3,1.3,1.3
		c-0.8,0.8-1,5.3,0,8.2c1,2.9,4.5,4.7,7.9,5.4c6.4,1.4,10.9,1,17.4,0.5c3.3-0.2,8.3-1.1,10.9-3.1c1.7-1.3,3.1-2.4,4.1-3.7
		c1-1.3,1.4-2.6,1.3-4.1c0-0.4-1.1-2.4-2.5-3.9c-1.4-1.6-1.6-1.7-2.5-2.7c-0.8-0.8-3.8-2.5-3.1-3.4C464,259.1,464.2,259.1,464.5,259
		z M333.8,261.8c1.8,0.1,3.5,0.5,5.3,1.3c3.9,1.7,7.1,4.7,7.3,8.7c-0.1,2.1-0.8,2.8-1.8,0c-0.1-1.1-3.2-4.4-6-5.6
		c-2.8-1.2-6.5,0.1-9.4,2.1c-5.3,3.7-8.2,7.2-12.4,12.3c-2.1,2.6-4.9,6.8-5.2,10c-0.2,2.1-0.4,3.9-0.1,5.5c0.3,1.6,0.9,2.8,2.1,3.8
		c0.4,0.3,2.5,0.8,4.5,0.9c2.2,0.1,2.3,0,3.6,0c1.2,0,4.5-1,4.6,0.1c0.1,1-3.3,2.5-4.4,2.8c-1.5,0.5-1.8,0.7-4.1,1
		c-2.4,0.3-4.7,0.7-7.1-1.2v0c-2.2-1.7-3.3-4.1-3.8-6.5c-0.4-2.4-0.3-4.8-0.1-7c0.4-4.4,2.4-8.9,5.1-12.2c4.3-5.3,8.8-9.7,14.6-13.7
		C329.2,262.4,331.5,261.8,333.8,261.8L333.8,261.8z M152,265.1L152,265.1c1.8,0.1,3.5,0.5,5.3,1.3c3.9,1.7,7.2,4.7,7.4,8.6
		c-0.1,2.1-0.8,2.8-1.8,0.1c-0.1-1.1-3.2-4.4-6-5.6c-2.8-1.2-6.5,0.1-9.4,2.1c-5.3,3.7-8.2,7.3-12.3,12.4c-2.1,2.6-4.8,6.8-5.1,10.1
		c-0.2,2.1-0.4,3.9-0.1,5.5c0.3,1.6,0.9,2.8,2.1,3.8c0.4,0.3,2.5,0.8,4.5,0.9c2.2,0.1,2.3,0,3.6,0c1.2,0,4.4-1,4.6,0
		c0.1,1-3.3,2.5-4.3,2.8c-1.5,0.5-1.8,0.7-4.1,1c-1.7,0.3-3.4,0.5-5.1,0c-0.7-0.3-1.3-0.7-2-1.1c0,0,0,0,0,0v0
		c-2.2-1.7-3.4-4.1-3.8-6.5c-0.5-2.4-0.3-4.8-0.1-7c0.4-4.4,2.3-8.9,5-12.3c4.3-5.4,8.8-9.8,14.5-13.8
		C147.3,265.7,149.7,265,152,265.1z M267.6,268.3c-7,0-14.2,1.7-20.2,5.1c-8.6,5-14.9,13.9-19.6,22.7c-2.4,4.5-4,9.8-3.8,14.9
		c0.3,8,2.1,16.8,7.4,22.7c4.8,5.3,12.5,8.1,19.6,8.5c9.5,0.6,20-1.8,27.3-7.9c6.4-5.3,9.9-13.4,12.3-21.5
		c-5.4-2.8-10.6-6.9-12.7-13.4c-3.2-10.2,1.9-20.1,6.4-28.2c-3.8-1.6-8.1-2.3-12-2.8C270.8,268.4,269.2,268.3,267.6,268.3z
		 M260.3,279.7c0.7,0,1.4,0.2,2.2,0.5c2.6,1.1,4.3,3.1,5.4,5.3c1.1,2.2,1.6,4.5,2,6.7c0.8,4.3,0.1,9.2-1.6,13.2
		c-2.7,6.3-5.9,11.8-10.3,17.1c-3.4,4.1-7.4,4.8-11.6,4.3c-4.2-0.6-8.2-2.6-9.4-6.4c-0.5-2,0-3,1.7-0.5c0.4,1.1,4.2,3.4,7.2,3.8
		c3,0.4,6.2-1.8,8.5-4.5c4.1-5,5.9-9.2,8.6-15.2c1.3-3.1,2.9-7.9,2.3-11.1c-0.4-2.1-0.7-3.9-1.4-5.4c-0.7-1.5-1.6-2.5-3.1-3.1
		c-0.4-0.2-2.6-0.1-4.6,0.4c-2.1,0.5-2.3,0.6-3.5,1c-1.1,0.3-4,2.2-4.5,1.2c-0.4-0.9,2.5-3.3,3.4-3.9c1.3-0.9,1.6-1.1,3.7-2.1
		c1.4-0.6,2.7-1.2,4.2-1.3C259.9,279.7,260.1,279.7,260.3,279.7z M388.7,285.1c7.7-0.1,14.3,0.5,17.5,1.3c4,0.9,9.2,0.6,14.7,0.9
		c5.5,0.2,9.5,2.1,13.5,4.5c6.4,3.9,10,13,11.4,21.1c2.2,13.4,3.5,28.7-5,38.1c-2.3,2.6-7.5,5-12.3,6.6c-4.8,1.6-9.2,2.5-10.7,2.8
		c-1.2,0.3-7.3,1.8-14.3,2.6c-7.1,0.9-15.1,1-19.9-0.8c-2.6-1-4.1-3.8-5.6-7.5c-1.5-3.7-2.8-8.1-5.9-11.3c-3.1-3.2-6.3-4.8-8.9-6.2
		c-2.5-1.3-2.9-2.3-3.8-4c-2.8-5.4-2-8.5-0.2-14.9c0.7-2.5,2.5-5.5,4.3-8.2c1.9-2.7,3.7-5,4.8-6.6c0.6-1,1.4-2.4,2.4-4.3
		c1.1-1.9,2.4-4.1,4-6.1c3.2-4.2,6-7.7,10.6-7.9C386.5,285.1,387.6,285.1,388.7,285.1z M390.3,302.1c-1.1,0-4.4,1.6-6.5,1.8
		c-2.2,0.2-0.5,3.8-1.1,5.6c-0.5,1.5-2.2,3.4-2.2,4.3c0,0.8,1.3,4.8,3.4,6.1c0,1.1,0.3,2.1,0,3.1c-0.5,1.5-1.6,3.4-2.8,3.9
		c-0.1,0-0.1,0-0.1,0.1c-2.3,0.9-4.6,4.3-5.4,4.5c-0.9,0.2-1.9,5.6-1.1,8.3c0.6,2.1,2.5,3.7,4.3,4.9c2.4,1.8,5.3,3,8.3,3.6
		c0.8,0.2,2.1,0.8,2.5,0c0.5-1.2-2.4-1.6-2.7-2.9c-0.3-1.3,1.6-2.5,1.3-3.8c-0.3-1.7-2.5-2.5-3.1-4c-1.3-3,1.2-6.9-0.5-9.6
		c-0.7-1.3,0.3-2.9,0.4-4.4c0.1-0.9-0.3-1.7-0.2-2.6c0-0.3,0.2-0.6,0.3-0.8c2.2,0.5,4.9-0.6,6.6-2.2c1.1-1.1,0.2-3.4,1.3-4.5
		c1.3-1.3,4-0.1,5.4-1.3c1.2-1.1,1.8-3.1,1.3-4.7c-0.4-1.6-2.2-2.5-3.6-3.4c-1.6-1-4.5-1.8-5.4-2h0
		C390.4,302.1,390.4,302.1,390.3,302.1z M412.3,302.8c-1.3,0-2.6,0.2-3.7,0.7c-1.6,0.8-3.7,2.8-3.1,4.5c0.4,1.2,2.5,0.5,3.6,1.1
		c2.2,1.3,3.9,3.5,5.6,5.4c1.6,1.8,2.3,4.6,4.5,5.6c1.6,0.7,4,1,5.1-0.2c0.2-2.4,1.3-5.6,1.3-7c0-1.3,0-2.7-0.9-3.6
		c-1.4-1.3-4-0.1-5.6-1.1c-1.5-1-1.5-3.6-3.1-4.5C414.9,303.1,413.6,302.8,412.3,302.8z M163.3,304.7c5,2.3,9.3,4.4,13.2,6.6
		c6.1,3.6,11.5,1.2,14.1,5.6c1.5,2.4,2.2,12.7,1.1,16.5c-1.1,3.8-2.7,8.1-2.2,12.6c0.5,4.4,2.1,7.7,3.3,10.3
		c1.2,2.6,0.9,3.6,0.6,5.5c-1.1,6-3.6,8-8.9,12c-2.1,1.6-2.6,2.5-5.7,3.5c-3.1,1-6,1.7-7.8,2.3c-1.1,0.4-2.5,1.1-4.5,1.9
		c-2,0.8-4.4,1.8-6.9,2.4c-5.1,1.4-16.2,0.3-21.8-3.7c-5.6-4-7.7-6.8-10-9.7c-0.6-0.8-1.4-1.5-2.2-2.3c1.2-7.6,1.4-15.4-2.7-21.3
		c-3.2-4.6-9.3-6.6-15.2-7.4c0.6-4.8,2.4-9.7,4.7-13.9c1.7-3.2,3.5-6.5,5.5-9.6c6.7,2.5,14.3,3.4,21.3,2.2c4.1-0.9,8.1-2.3,12-4.2
		c1.6-0.9,2.9-1.7,3.8-2.4C157.7,309.3,160.5,307,163.3,304.7z M163.8,311.5c-1,0-2,0.2-3,0.6c-5.1,2.1-5.9,7.4-3.7,12.3
		c1.8,3,2,5.4,1.3,9.4c-2.3,6-6.6,5.2-11.2,3.2c-5.2-2.8-9.4-2.3-13.1-2.3c-5.2,0.1-6.9,6.2-5.8,10.4c0.8,3.9,1.6,10.4,7.2,18.2
		c6.2,7.6,12.3,14.2,23.7,13.9c11.2-1.2,21.9-5.6,25.7-15.9c3.7-9.3-2.3-19.5,1.5-28.9c0.7-7.2-4.9-14.1-10.6-17.1
		C172.2,313.9,168.1,311.3,163.8,311.5z M421.6,323.8c-0.8,0-1.6,0.2-2.1,0.8c-0.7,0.8,0.2,2.3,0,3.4c-0.3,1.7-0.8,3.5-2,4.7
		c-0.9,0.9-2.7,1.3-3.6,1.6c-0.9,0.2-1.4,2.6-0.9,3.8c0.7,1.7,3.1,1.7,4.5,2.9c1,0.9,1.6,2.3,2.7,3.1c1,0.8,2.2,2.3,3.4,1.8
		c1-0.5,0-2.3,0.7-3.1c1-1.1,4-0.7,4.3-1.6c0.2-0.9,1.5-2.5,1.3-3.8c-0.1-1.9-1.8-3.3-2.7-4.9c-1.5-2.8-1.5-6.9-4.3-8.3
		C422.6,324,422.1,323.8,421.6,323.8z M43.1,327.7c1.2,0,3.6,1.2,4.3,1.7c1.3,0.9,1.7,1,3.4,2.6c1.8,1.6,3.6,3.2,3.6,6.2
		c0.1,2.8-1.1,5.2-2.6,7.1c-1.5,1.9-3.5,3.3-5.3,4.6c-3.6,2.5-8.4,3.9-12.7,3.9c-5.8,0.1-11.2-0.4-16.8-1.7c-0.3-1.8-0.7-3.5-1-5.3
		c6,1.6,10.5,1.6,16.9,1.5c3.3,0,8.4-0.6,11-2.4c1.8-1.2,3.3-2.2,4.3-3.5c1.1-1.3,1.6-2.5,1.5-4c0-0.4-1-2.4-2.2-4.1
		c-1.3-1.7-1.5-1.8-2.3-2.8c-0.8-0.9-3.6-2.8-2.9-3.6C42.6,327.7,42.8,327.6,43.1,327.7z M400.5,339.5c-1,0-2,0.2-2.8,0.6
		c-2.2,1-4.3,3-4.9,5.4c-0.3,1.1,0.2,2.5,0.9,3.4c0.8,1,2.2,1.2,3.4,1.8c1.8,1,3.3,2.9,5.4,3.1c2,0.3,4.2-0.4,5.8-1.6
		c1.7-1.3,2.7-3.5,3.4-5.6c0.4-1.4,1.1-3.3,0.2-4.5c-1.2-1.8-4.1-1.7-6.3-2C403.9,339.8,402.1,339.5,400.5,339.5L400.5,339.5z
		 M91.4,350.6c0.6,0,1.3,0.2,2,0.4c2.6,1,4.5,2.9,5.6,5c1.2,2.1,1.8,4.4,2.3,6.6c1,4.3,0.5,9.2-1.1,13.2c-2.5,6.4-5.4,12-9.6,17.5
		c-3.2,4.2-7.2,5.1-11.5,4.7c-4.3-0.4-8.3-2.3-9.6-6c-0.5-2-0.1-3,1.7-0.6c0.4,1,4.4,3.2,7.4,3.5c3,0.3,6.2-2.1,8.3-4.8
		c3.9-5.2,5.6-9.4,8-15.5c1.2-3.1,2.6-8,1.8-11.1c-0.5-2.1-0.8-3.8-1.6-5.3c-0.8-1.5-1.7-2.4-3.2-2.9c-0.4-0.2-2.6,0-4.6,0.6
		c-2.1,0.6-2.2,0.7-3.5,1.1c-1.1,0.4-3.9,2.3-4.4,1.4c-0.4-0.9,2.4-3.4,3.3-4c1.3-0.9,1.5-1.2,3.6-2.2
		C87.9,351.3,89.5,350.5,91.4,350.6z M350.7,378.7c-7,0-14.2,1.7-20.2,5.2c-8.6,5.1-14.9,13.9-19.4,22.8c-2.3,4.6-3.9,9.8-3.7,14.9
		c0.3,7.9,2.2,16.8,7.6,22.6c2.5,2.7,5.8,4.8,9.3,6.2c3.9-3.4,8.6-6,13.8-7c2.3-0.4,4.6-0.6,6.9-0.4c4.9,0.3,9.7,1.8,14,3.8
		c1-0.6,1.9-1.3,2.9-2.1c7.8-6.5,11.3-17.3,13.6-27.2c2.3-9.7,5.4-21.6-0.1-29.9c-4-6-12.7-7.9-19.8-8.6
		C353.9,378.8,352.3,378.7,350.7,378.7L350.7,378.7z M343.5,390.1L343.5,390.1c0.7,0,1.4,0.2,2.2,0.5c2.6,1.1,4.4,3.1,5.4,5.2
		c1.1,2.2,1.6,4.5,2,6.7c0.8,4.3,0.2,9.2-1.5,13.2c-2.7,6.3-5.8,11.8-10.2,17.2c-3.3,4.1-7.4,4.9-11.6,4.3c-4.2-0.6-8.2-2.6-9.4-6.3
		c-0.5-2,0-3,1.7-0.5c0.4,1.1,4.3,3.3,7.3,3.7c3,0.4,6.2-1.9,8.4-4.6c4.1-5,5.9-9.2,8.5-15.3c1.3-3.1,2.8-7.9,2.2-11.1
		c-0.4-2.1-0.7-3.9-1.4-5.4c-0.7-1.5-1.6-2.4-3.1-3c-0.4-0.2-2.6-0.1-4.6,0.4c-2.1,0.5-2.3,0.6-3.5,1c-1.1,0.3-4,2.2-4.5,1.2
		c-0.4-0.9,2.5-3.3,3.4-3.9c1.3-0.9,1.6-1.1,3.7-2.1c1.4-0.6,2.7-1.2,4.2-1.3C343.1,390.1,343.3,390.1,343.5,390.1z M343.2,446.9
		c-1.5,0-3,0.1-4.5,0.4c-7,1.3-13.4,6.4-17.5,12.2c-5.5,7.7-8.9,18-7.5,27.4c1.4,10,8.8,18.8,16,25.9c7.1,7,15.5,15.9,25.5,15.7
		c7.2-0.2,13.4-6.6,17.8-12.3c5.2-6.7,8.7-15.4,8.9-23.9c0.2-10-4-20-9.2-28.5c-2.6-4.4-6.3-8.5-10.7-11
		C356.4,449.5,349.7,446.9,343.2,446.9z M345.7,458.8c0.5,0,1,0.1,1.4,0.2c2,0.7,2.5,1.6-0.4,1.7c-1.1-0.3-5.1,1.9-7,4.2
		c-1.9,2.3-1.7,6.3-0.6,9.6c2.1,6.1,4.7,9.8,8.5,15.2c1.9,2.7,5.2,6.5,8.3,7.7c2,0.8,3.7,1.5,5.3,1.6c1.6,0.1,2.9-0.1,4.2-1
		c0.4-0.3,1.4-2.2,2.1-4.1c0.7-2.1,0.7-2.2,1-3.5c0.3-1.1,0.2-4.6,1.3-4.4c1,0.1,1.5,3.8,1.5,5c0,1.6,0.1,1.9-0.2,4.3
		c-0.3,2.4-0.6,4.7-3.1,6.5h0c-2.3,1.7-4.9,2.1-7.3,1.9c-2.4-0.2-4.7-1-6.8-1.8c-4.1-1.6-7.9-4.7-10.4-8.2c-3.9-5.6-7-11.1-9.3-17.7
		c-1.7-5-0.3-8.8,2.4-12.1C339.2,460.8,342.4,458.7,345.7,458.8z M302.2,574.6c1.5,0,2.9,0.1,4.3,0.3c4.4,0.5,8.8,2.6,12.1,5.5
		c0.8,0.7,1.5,1.4,2.3,2.1c-2.6,0.2-5.3,0.4-7.9,0.5c-2.3-1.6-5-3.1-7.2-3.4c-1.6-0.2-3-0.4-4.3-0.4c-0.4,0-0.8,0-1.3,0.1
		c-1.6,0.3-2.8,0.8-3.8,2c-0.2,0.2-0.4,1-0.7,2.1c-1.5,0-2.9,0-4.4-0.1c-0.1-1.7,0.2-3.3,1.6-5h0c1.8-2.1,4.2-3.2,6.6-3.6
		C300.5,574.6,301.4,574.6,302.2,574.6z"/>
	<g id="g1025">
	</g>
</g>
</svg>
