<?xml version="1.0" encoding="utf-8"?>
<!-- Generator: Adobe Illustrator 25.3.1, SVG Export Plug-In . SVG Version: 6.00 Build 0)  -->
<svg version="1.1"
	 id="svg8" inkscape:export-filename="fission_yeast_black_nucleus.png" inkscape:export-xdpi="12.1" inkscape:export-ydpi="12.1" inkscape:version="1.0 (4035a4fb49, 2020-05-01)" sodipodi:docname="fission_yeast_black_nucleus.svg" xmlns:cc="http://creativecommons.org/ns#" xmlns:dc="http://purl.org/dc/elements/1.1/" xmlns:inkscape="http://www.inkscape.org/namespaces/inkscape" xmlns:rdf="http://www.w3.org/1999/02/22-rdf-syntax-ns#" xmlns:sodipodi="http://sodipodi.sourceforge.net/DTD/sodipodi-0.dtd" xmlns:svg="http://www.w3.org/2000/svg"
	 xmlns="http://www.w3.org/2000/svg" xmlns:xlink="http://www.w3.org/1999/xlink" x="0px" y="0px" viewBox="0 0 595.3 595.3"
	 style="enable-background:new 0 0 595.3 595.3;" xml:space="preserve">
<style type="text/css">
	.st0{stroke:#FFFFFF;stroke-miterlimit:10;}
</style>
<sodipodi:namedview  bordercolor="#666666" borderopacity="1.0" id="base" inkscape:current-layer="layer1" inkscape:cx="531.97306" inkscape:cy="417.4862" inkscape:document-rotation="0" inkscape:document-units="mm" inkscape:pageopacity="0.0" inkscape:pageshadow="2" inkscape:snap-global="false" inkscape:window-height="1040" inkscape:window-maximized="0" inkscape:window-width="1339" inkscape:window-x="565" inkscape:window-y="0" inkscape:zoom="0.35" pagecolor="#ffffff" showgrid="false">
	</sodipodi:namedview>
<g id="layer1" inkscape:groupmode="layer" inkscape:label="Layer 1">
	<path id="path859" class="st0" d="M561.5,154.1c-1.8,5-3.9,9.9-6.2,14.7c-9,19.3-21.1,37.4-32.6,54
		c-43.8,62.6-110.8,103.4-166.5,151.8c-72.9,63.6-138,146.2-226.8,188.5c-29.7,14.1-69.9,5-93.6-16.8C15.9,528,10.4,502,16.1,476.3
		c16.1-72.5,90.1-121.6,140.8-169.1c26-24.3,42.6-35,69.4-57.2c40.5-33.5,85.9-84.4,125.1-121.6C371,109.9,390.9,90,414.8,75
		c22.8-14.2,43.7-21.6,69-28.9c15.5-4.5,35.4-0.1,52.7,10.2c17.3,10.4,32.2,27.9,33.1,50.9C570.3,123.6,567,139.2,561.5,154.1z
		 M552.1,150.8c5.1-14,8.1-28.4,7.5-43c-0.8-19-13-33.6-28.2-42.7c-15.5-9.3-33-12.6-44.7-9.1c-24.9,7.3-44.6,14.2-66.5,27.9
		c-22.6,14.1-42.1,33.5-61.9,52.1c-38.7,36.6-84.1,87.6-125.6,122c-27.1,22.5-43.4,32.9-68.9,56.8C112,363.1,41,411.5,25.9,478.7
		c-5.2,22.9-0.5,44.8,16.6,60.5c20.7,19,57.3,27.1,82.5,15.2c86-40.9,150.6-122.7,224.6-187c56.6-49.2,122.5-89.5,164.9-150
		c11.5-16.4,23.2-34,31.8-52.5C548.4,160.1,550.4,155.4,552.1,150.8z M543.2,149.5c-1.6,4.5-3.6,9.1-5.6,13.6
		c-8.4,18-20,35.4-31.4,51.8c-40.6,57.9-99.6,97.4-155.3,145.2c-33.9-11.5-86.3-57.8-99.6-103.1c39.7-34.5,77.4-82.9,114-117.4
		c19.8-18.7,35.2-38.2,57.3-51.9C444,74.3,463.2,67.5,488,60.3c9.7-2.8,26.5-0.1,41.1,8.6c14.3,8.6,20.8,22.3,21.4,39.4
		C551,122.1,548.2,136,543.2,149.5z M433.1,199.3c2.8-7.8,3.6-16.2,1.9-23.8c-3.2-13.9-19.7-25-33.4-27.4
		c-15.1-2.7-33.6,3.2-42.7,15.9c-5.9,8.3-11,21.4-11.6,32.6c-0.6,11.3,2,22.6,9.5,30c6.7,6.7,18,7.1,28,6.5
		c9.9-0.7,19.9-4.2,27.4-9.2c7.4-5,15.9-12.6,19.6-21.3C432.2,201.5,432.6,200.4,433.1,199.3z M422.4,197.6c-0.4,1-0.8,2-1.2,2.9
		c-3.4,7.7-5.9,14.6-12.1,18.8c-6.5,4.5-15.8,7.6-24.6,8.2c-8.9,0.6-17.1-3.8-22.3-8.9c-6.1-6-8.5-15.6-8-25.8
		c0.6-10.2,4.2-20.8,9.2-28.1c7.4-10.4,24.2-13.6,37-11.3c11.4,2.1,21.2,12.5,23.8,23.4C425.7,183.4,424.9,190.6,422.4,197.6z
		 M339,370.4c-71.2,63.4-132.6,137.8-214.3,176.7c-22.9,10.9-58.3,3.2-77.4-14.4c-15.8-14.6-21.7-31.4-16.8-53.3
		c14.4-64.7,93.9-111.8,146.1-160.5c23.8-22.2,39.6-32.9,64.2-53C265.1,305.9,314.6,350.3,339,370.4z M190.4,445.9
		c2.5-7.2,3.8-15.4,2.6-22.5c-2-10.8-7-21.2-14.8-27.7c-7.1-6-20-6.8-29.9-6.8c-9.2,0.1-18.5,2.7-25.9,7.3L122,396l-1.1,0.8
		c-16.5,11.2-23.1,35-20.8,54.2c0.7,6,2.9,12.4,6.5,17.9s7.8,12,14,13.9c11.2,3.4,24.3,2.2,36.1-2.2c11.8-4.4,23.1-14.1,28.8-24.3
		c1.2-2.2,2.4-4.7,3.5-7.4C189.6,447.9,190,446.9,190.4,445.9z M182.1,449.3c-0.3,1-0.7,1.8-1.1,2.7c-0.4,1-0.9,2-1.4,3
		c-4.9,8.8-13.3,14.6-24.2,18.7s-23,5.1-32.6,2.2c-4.6-1.4-8.6-5.1-11.7-9.8c-3-4.7-5-10.6-5.7-15.7c-2.2-17.3,7.9-38.2,18.1-45.2
		c10.2-7,15.8-10.8,24.6-10.8c8.9,0,17.5,2.3,23.2,7.3c6.5,5.5,10,16.1,11.8,25.9C184.6,435,184.3,442.7,182.1,449.3z"/>
</g>
</svg>
