<?xml version="1.0" encoding="utf-8"?>
<!-- Generator: Adobe Illustrator 25.3.1, SVG Export Plug-In . SVG Version: 6.00 Build 0)  -->
<svg version="1.1"
	 id="svg8" inkscape:export-filename="fruit_fly_sq_v2.png" inkscape:export-xdpi="12.1" inkscape:export-ydpi="12.1" inkscape:version="1.0 (4035a4fb49, 2020-05-01)" sodipodi:docname="fruit_fly_sq_v2.svg" xmlns:cc="http://creativecommons.org/ns#" xmlns:dc="http://purl.org/dc/elements/1.1/" xmlns:inkscape="http://www.inkscape.org/namespaces/inkscape" xmlns:rdf="http://www.w3.org/1999/02/22-rdf-syntax-ns#" xmlns:sodipodi="http://sodipodi.sourceforge.net/DTD/sodipodi-0.dtd" xmlns:svg="http://www.w3.org/2000/svg"
	 xmlns="http://www.w3.org/2000/svg" xmlns:xlink="http://www.w3.org/1999/xlink" x="0px" y="0px" viewBox="0 0 595.3 595.3"
	 style="enable-background:new 0 0 595.3 595.3;" xml:space="preserve">
<sodipodi:namedview  bordercolor="#666666" borderopacity="1.0" id="base" inkscape:current-layer="layer1" inkscape:cx="-169.8691" inkscape:cy="650.67534" inkscape:document-rotation="0" inkscape:document-units="mm" inkscape:pageopacity="0.0" inkscape:pageshadow="2" inkscape:snap-global="false" inkscape:window-height="1017" inkscape:window-maximized="1" inkscape:window-width="1920" inkscape:window-x="-8" inkscape:window-y="-8" inkscape:zoom="0.25" pagecolor="#ffffff" showgrid="false">
	</sodipodi:namedview>
<g id="layer1" inkscape:groupmode="layer" inkscape:label="Layer 1">
	<path id="path844" d="M171.5,94.2c-10,0-21,0.4-31.2,1.7c-13.6,1.7-28.2,4.3-34.9,10.8c-3,2.9-4.2,7.2-4.2,11.5c0,1.9,0.7,4,1.7,6
		c-8.3,3.3-16.2,8-20.9,15.5c-4.2,6.7-7.3,17-3.7,24.3c10.5,21.2,39.8,28.4,60.1,38.1c13.4,6.4,27.3,10.9,41.1,14.9l-0.1,0.4
		c0,0.1,0,0.1,0,0.2c-2,11.4,1.6,21.6,5,30.9c1.1,3,2.1,6,3.2,9c-0.1,0.2-0.4,0.5-0.5,0.7c-0.6,0.8-1,0.8,0,0.4
		c-12.6,5.2-22.8,16.4-29.7,26.4c-6.2,9-10.6,14.2-18.7,19.1c-12.6,7.6-28.4,9-46.6,15c-6.8,2.3-11.8,5.7-14.9,6.5
		c-15.2,4-47.2,7.2-47.2,7.2c-0.1,0-0.2,0-0.3,0c-1.5,0.2-3.4,0.5-5.2,0.9c-1.8,0.4-3.2,0-6.2,2.7c-1.1,1-2.5,2.8-2.5,5.5
		c0,2.6,1.6,4.5,2.6,5.4c2.1,1.8,3.5,1.9,4.9,2.3c2.9,0.7,5.5,1,7.9,0.9c0,0,0,0,0,0c0,0,32.4-1.2,51.6-6.2c7.5-2,13.5-6.3,16.7-7.3
		c14.9-5,33.7-5.9,48.3-13.4c-1.4,0.7-0.4,0.2,1.1,0.2s3.9,0.5,7.2-1.6c0,0,0,0,0,0c9.7-6,17.4-15.4,22.9-23.4
		c5-7.2,11.3-11.8,17.1-19.8c0.9,0.6,1.9,1.3,3.4,1.9c0.4,0.5,0.8,1,1.3,1.5c4.3,4.6,11.5,11.1,18.4,14.3
		c10.1,4.6,20.9,7.9,31.5,10.8c2.8,16.7,7.7,33.2,10.1,46.3c0.2,1.1,0.2,0.6-0.1,1.2c-0.3,0.6-1.4,2.4-1.9,5.4c0,0,0,0,0,0
		c-0.9,5.5-0.3,8.2-1.1,10.6c-2.6,7.7-8.5,16.4-14.5,26c-11.9,19.2-23.1,38.3-37.8,53.6c-1,1.1-3.6,2.9-6.7,6.1
		c-3.7,3.9-6.5,8.4-6.7,8.8c-1.1,1.5-2,2.4-2.4,5.2c-0.2,1.4,0.1,4.3,2.2,6.1c2,1.8,4,1.7,5,1.7c2.1-0.1,2.9-0.6,3.9-1
		c0.9-0.4,1.8-0.8,2.4-1c1-0.4,1.9-1.1,2.5-1.9c0,0,3.4-4.3,5.3-6.3c-0.5,0.6,0.6-0.3,2.3-1.2c1.7-0.9,4.1-2.1,6.4-4.4
		c13.9-14.4,23.8-30.6,33.7-46c0,0,0.3-0.3,1.8-1.2s4.2-2.7,5.8-6.1c5.3-11.7,8.9-20.8,20.2-34.7c-1.1,1.3,0.2-0.1,1.2-0.9
		c1.1-0.8,2.3-1.8,3.7-3.4c2.6-3.1,3.9-6.5,3.4-10c-0.4-3.5-2.1-6.4-3-7.7c-0.4-0.6-0.6-0.7-0.6-0.7c0,0,0,0,0-0.1
		c-2.5-13.2-5.6-25.2-7.9-37.3c12.7,3,24.9,5.9,38.1,9.2c4.5,1.1,8.4,3.7,14.2,5.5c5.8,1.8,13.4,1.8,22.5-2.3
		c2.5-1.1,4.4-3.5,5.2-5.5c0.5-1.2,0.6-2.2,0.7-3c0.3,0.1,0.6,0.3,0.9,0.4c0,1.4-0.1,2.9-0.1,4.1c0,2.7-1.1,5.1-0.1,3.6
		c-2.8,4.3-2.9,5.7-3.8,6.1c-1.3,0.5-3.8,1.1-6.7,2.2c-2.9,1.2-6.6,3.4-8.6,7.5c-1.6,3.4-1.8,6.4-1.9,9.6c-0.1,3.1-0.1,5.7,1.1,8.9
		c2.4,6.1,7.2,10.7,9.9,13.3c2.6,2.6,5.3,3.1,6.7,3.6c0.2,1.1,0.2,2.9,0.8,6.6c2.9,17.4,1.6,36.4,6,55.7c1.2,5.3,2.5,8.5,3.2,10.3
		s0.6,1,0.6,1.4c-0.4,5.2-0.9,11.8-1,17.4c-0.1,3.3,1,5.3,1.6,6.8s0.5,2.4,0.6,1.5c-1.7,10.8,0.6,19.7,0.9,27.7
		c0.3,8.5-0.6,17.1-2,25.8c0.1-0.4-0.8,2.2-1.8,4.1s-1.9,3.3-1.9,3.3c-1.1,1.8-1.2,4.1-0.3,6c0.9,1.9,4,4.3,6.5,4.3
		c1.3,0,2.2-0.2,2.9-0.4c0.9,0.8,2.2,1.7,4.1,2.1c2.2,0.4,4.4-0.2,6.1-1.1c3-1.6,4.2-5.4,2.6-8.4c0-0.1-0.1-0.1-0.1-0.2
		c0,0-0.8-1.4-1.4-3.1c-0.6-1.7-0.1-3.3-0.8-2.1c3.9-7.6,3-14.7,3.5-20.9c0.8-10.6,0.2-20.2-0.4-29.6c2.1-1.7,3.1-3.8,3.8-6.4
		c0.6-2.6,0.3-4,0-5.7c-0.3-1.7-0.8-3.4-1.4-5.1c0,0,0,0,0,0c-0.8-1.9-1.8-3.3-2.5-4.3c-0.1-8.7,0.9-14.3,2-25.5
		c2.1-21.1-7.1-41.8-10.6-59.1c-0.3-1.4-0.7-2.7-1.1-4.1c0.1-0.2,0.1-0.3,0.2-0.6c0.5-1.2,1.3-2.4,1.8-5c0.6-3.1,0.2-5.3-0.4-8.1
		s-1.4-5.8-3.4-8.6c-0.4-0.6-0.8-1-1.1-1.4c3.5-2.1,6.4-5,8.8-8.7c1-1.6,1.8-3.3,2.5-5c1,0.9,2,1.9,3.1,2.7
		c7.2,5.6,17.1,8.8,22.9,11.7c6,3,11.2,3.1,16.3,3.6c4.2,0.4,7.6-0.5,10-1.1c2.4-0.5,3.8-0.6,5-0.3c0.6,0.2,0.2-0.1,1.2,0.9
		c1,1,3.6,3.3,7,4.1c4,0.9,8.1,0.3,11.4-1.3c3.2-1.6,5.7-3.9,7.8-6.4c2.1-2.5,2.4-5,2.6-6.4s0.4-1.9,0.2-1.5c1-2,2.5-3.9,4.1-5.9
		c1.9,1,3.8,1.3,4.7,1.3c0.5,0,0.6,0.1,0.7,0.1c6.8,3.3,6.4,3.7,13.7,6.2c2.3,0.8,4.1,0.9,5.7,1.2c1.6,0.3,2.9,0.7,3,0.7
		c13.6,7.1,33,13.6,46.9,17.8c4.5,1.3,13.4,5.3,13.4,5.3c0.4,0.2,0.8,0.3,1.2,0.4c2.8,0.7,5.4,0.4,7.5-0.2c1.9-0.5,3.3-1.2,4.7-2.3
		c2.1-1.6,3.4-2.3,4.9-4.8c0.8-1.3,1.6-4.6,0-7.2c-1.7-2.6-3.6-2.9-4.7-3.1c-2.1-0.4-3.3-0.3-4.7-0.2c-1.1,0-2.2,0.1-3.2,0.1
		c-1.1-0.4-8.1-2.8-12.9-4.4c-12.2-4-31-12.5-46.4-18c-1.8-0.6-3.9-2.7-8.3-4.1c0,0,0,0,0,0c-3.7-1.3-3.4-1.2-3.7-1.4
		c-0.2-0.2-1.8-1.3-4.2-2.6c-0.1,0-0.4-0.2-0.7-0.6c-0.2-0.4-0.7-1-1.2-1.6c0.6-1.1,1.1-2.3,1.5-3.6c0.7-2.3,0.7-4.4,0.4-6.2
		c1.2,0.2,2.5,0.2,3.8-0.2c6-1.6,11.4-7.1,11-14.2c-0.3-5.3-3.8-8.7-6.5-11c-1-0.8-1.5-1.2-2.4-1.8c0.4-0.9,0.8-1.9,1-3.6
		c0.8-8.9-1.4-20.3-6.5-29.7c-6-10.9-16.7-21.5-30.6-25c-3.2-0.8-6.1-0.7-9.8-0.4c-3.1,0.3-6.2,0.6-9.3,2c-1.6-1.9-3.5-3.2-5.2-4.1
		c-2-1.1-3.7-1.7-5.1-2.3c0-2.2-0.4-7.2-3.9-11.1c-4-4.4-8-6.9-11.3-8.7c-3.2-1.7-5.4-2.7-7.4-4.5c-4.8-4.3-8.1-11.3-17.1-15.9
		c0,0,0,0,0,0c-6.5-3.3-13.2-4.4-19.5-4.9c-0.1-0.2-0.2-0.4-0.3-0.6c-1.6-2.9-3.7-6.3-5.7-8.4c-18.3-19-42.1-32.9-66.2-43.2
		c-9.7-4.1-19.6-7.9-29.6-11.2c-30.1-9.9-61.5-15.9-93.1-16.6C178,94.2,174.8,94.2,171.5,94.2z M201.5,281.3
		C201.6,281.3,201.7,281.4,201.5,281.3L201.5,281.3z M385.3,461.9c0,0,0.2,0.1,0.4,0.5C385.5,462.2,385.3,461.9,385.3,461.9z"/>
</g>
</svg>
