<?xml version="1.0" encoding="utf-8"?>
<!-- Generator: Adobe Illustrator 24.0.1, SVG Export Plug-In . SVG Version: 6.00 Build 0)  -->
<svg version="1.1"
	 id="svg8" inkscape:export-filename="C:\Users\art\Dropbox\projects\scientific\Yamamoto at Baylor\integument.png" inkscape:export-xdpi="12.0952" inkscape:export-ydpi="12.0952" inkscape:version="1.0 (4035a4fb49, 2020-05-01)" sodipodi:docname="integument.svg" xmlns:cc="http://creativecommons.org/ns#" xmlns:dc="http://purl.org/dc/elements/1.1/" xmlns:inkscape="http://www.inkscape.org/namespaces/inkscape" xmlns:rdf="http://www.w3.org/1999/02/22-rdf-syntax-ns#" xmlns:sodipodi="http://sodipodi.sourceforge.net/DTD/sodipodi-0.dtd" xmlns:svg="http://www.w3.org/2000/svg"
	 xmlns="http://www.w3.org/2000/svg" xmlns:xlink="http://www.w3.org/1999/xlink" x="0px" y="0px" viewBox="0 0 595.3 595.3"
	 style="enable-background:new 0 0 595.3 595.3;" xml:space="preserve">
<style type="text/css">
	.st0{fill:#69C8BE;}
</style>
<sodipodi:namedview  bordercolor="#666666" borderopacity="1.0" id="base" inkscape:current-layer="layer1" inkscape:cx="274.02316" inkscape:cy="399.84818" inkscape:document-rotation="0" inkscape:document-units="mm" inkscape:pageopacity="0.0" inkscape:pageshadow="2" inkscape:snap-global="false" inkscape:window-height="1017" inkscape:window-maximized="1" inkscape:window-width="1920" inkscape:window-x="-8" inkscape:window-y="-8" inkscape:zoom="0.70710678" pagecolor="#ffffff" showgrid="false">
	</sodipodi:namedview>
<g id="layer1" inkscape:groupmode="layer" inkscape:label="Layer 1">
	<path id="path844" class="st0" d="M297.6,0C133.3,0,0,133.3,0,297.6C0,462,133.3,595.3,297.6,595.3S595.3,462,595.3,297.6
		S462,0,297.6,0z M268.2,39.8c0.6,0.4-7.1,16.6-20,38.2c-34.9,58-60.3,126-74.1,198.4l-6.3-0.7C176.6,222.5,192,169.9,246,77
		C258.9,57.5,266.8,40.6,268.2,39.8C268.2,39.8,268.2,39.8,268.2,39.8z M445.9,53.5c0.7,0.5,1.5,0.9,2.2,1.4
		c-47.8,56.5-89.4,125.1-114.7,199.2c-3.5,8.8-7.1,17.7-10.6,26.7c-2.8,0.7-4.6,0.5-6.1,0.2c3.7-10,7.4-19.8,11.1-29.1
		C354.2,186.7,372.1,137.4,445.9,53.5z M13.3,271.1c32.1,2.2,63.2,4.3,95.5,5.2c0,1,0.6,2,1.8,2.2c1.1,0.2,3.4,2.2,4.5,5.5
		c1.1,3.2,2,6.5,2.8,9.8c-1.3-0.2-2.6-0.2-3.6,0c-7.2,1-14.3,1.8-21.5,2.1c-26.2-7.7-53.4-9.4-80.6-9.7
		C12.5,281.1,12.8,276.1,13.3,271.1z M470.5,271.7c20.1,0,40.3,1.3,60.3,4.7l0.1,0l0.1,0c17.3,1,34.3-1.6,51.1-3.5
		c0.3,4.1,0.6,8.1,0.8,12.2c-13-2.3-26.2-3-39.3-2.9l0,0l0,0c-28.3,2-56.7-0.2-85.1,3.5h0l0,0c-33.1,5.9-66.6,2-100.2,1.4h0
		c-8.2-0.5-16.4-0.6-24.5-0.8c-1.2,0-2.4,0.1-3.5,0.3c0.3-0.4,0.6-0.8,0.9-1.2c0.7-0.9,6.1-6.2,8.1-6.6c1.4-0.3,2-0.1,3-0.1
		C385.1,277.1,427.9,271.6,470.5,271.7z M114.4,276l3.2,0.8l5.6,0.1c-0.4,0.4-0.6,0.8-0.8,1.2c0,0,0,0,0,0c-0.3,0.7-0.4,1.4-0.4,2.2
		c0,0.1,0,0.1,0,0.2c0,0.2,0,0.4,0.1,0.6c0,0.1,0,0.2,0.1,0.2c0,0.2,0.1,0.4,0.2,0.6c0,0.1,0,0.2,0.1,0.2c0.1,0.3,0.2,0.6,0.4,0.9
		c0.2,0.7,0.5,1.3,0.7,2c2.9,9.6,7.8,27.7,5,47.1c-0.4,2.5-0.9,4.9-1.6,7.3c-0.2,0.8-0.5,1.6-0.7,2.4c-1,3.2-2.3,6.5-3.9,10
		c-4,9.2-6.3,19.4-7.7,29.9c-0.5,3.9-0.9,7.8-1,11.8c-0.1,2.6-0.2,5.3-0.1,8c0,2.7,0.1,5.3,0.3,8s0.5,5.3,0.8,8
		c1.2,9.3,3.5,18.5,6.8,27.2c-0.6,0.3-2.7,1.6-3.2,1.9c-1-2.6-1.9-5.1-2.7-7.8c-0.8-2.6-1.6-5.3-2.2-7.9c-1.3-5.3-2.3-10.7-2.9-16.2
		c-1.8-16.6-0.5-33.5,3.6-49.5c1.4-5.3,3.1-10.5,5.1-15.6l0-0.1l0-0.1c10.6-21.8,6.2-46.6,2.3-58.9c-1.4-4.4-2.2-7.9-3.3-10.2
		c-0.1-0.2-0.2-0.4-0.3-0.5c-0.1-0.1-0.1-0.2-0.2-0.3c0,0,0,0,0,0c-0.1-0.1-0.1-0.2-0.2-0.3c-0.1-0.2-0.2-0.3-0.3-0.5
		c-0.1-0.1-0.1-0.2-0.2-0.2c-0.1-0.1-0.2-0.3-0.3-0.4c-0.1-0.1-0.1-0.1-0.2-0.2c-0.1-0.1-0.2-0.3-0.3-0.4c0,0-0.1-0.1-0.1-0.1
		c-0.1-0.2-0.3-0.3-0.4-0.4l0,0l0,0C115.4,276.6,114.9,276.2,114.4,276z M154.7,276.5c45.2,9.8,89.9-0.9,134.7,1.9
		c10.6,0.5,14.1,1.3,16.1,4.4c0.4,0.4,0.8,1.2,0.9,1.7c0.4,1.7,0,3.6-0.5,4.6c-0.1,0.1-0.1,0.2-0.1,0.3c-2.5-1.6-5.7-2.3-8.2-2.2
		c-29.8,1.2-59.6,2.8-89.3,0.1c-25.2-4.8-50-0.6-74.7,3.5c-1.2,0.2-2.6,0.8-3.8,1.6c-0.8-3.1-1.7-6-2.6-8.3c-0.3-1.1-0.7-2.2-0.8-3
		c-0.2-0.9,0-1.2-0.1-1.1c1-1.1,1.2-1.1,2-1.2c1.1-0.1,1.9-1.1,1.9-2.2C139.2,276.7,145.5,276.7,154.7,276.5z M308.9,279.1
		c0,0,2,0.3,2,0.3c0.5,0.1,1.2,0.4,1.7,0.6c1.2,0.6,2.4,1.3,4,1.8c0,0,0,0,0,0.1h0c-0.1,0.2-0.1,0.4-0.2,0.6
		c-8.5,23.2-16.7,47.7-23.4,70.8c-25.1,86-35.1,98.4-40,146.8c-0.9,8.4-1.1,16.8,2.6,21.7c10.8,14.2,3-0.4,3.1-7.1
		c0.2-9.7,5.4-17,10-16.6c4.6,0.5,9.3,9,6.5,18.2c-2.8,9.3-9.7,17.4,1.7,6.8c4.5-4.1,5.5-12.5,5.8-20.7
		c2.2-54.2,4.6-100.3,16.3-148.6c5.9-24.3,14.4-48,18.9-59.7c4.5-11.7,4.6-12,4.7-12.2c2-0.3,3.6-0.8,5.1-1.6
		c0.9-0.5,1.8-0.5,1.9-0.5c0,0,1.6-0.5,1.6-0.5c0.1,0.5,0,1-0.4,1.4c-0.6,0.5-1.2,1-1.9,1.5s-1.3,1.1-1.4,1.2
		c-2.6,3.2-4.1,5.8-5,8.2c-0.4,1-0.7,2-1.1,3l-1.1,2.9c-2.7,7.2-5.3,14.4-9,25.7c-3.7,11.3-6.8,21.8-9.4,32.4
		c-11.5,47.5-10,93.1-12.2,147.3c-0.4,8.6-0.6,18.6-8.1,25.5c-2.9,2.7-4.4,4.1-6.5,5.5c-0.5,0.3-1.1,0.7-2,1
		c-0.9,0.2-2.9,0.8-6.2,0.7c-0.1-0.1-0.2-0.3,0-0.6c-0.1-2,0-3.9,0.6-5.9c0.7-2.9,2-5.6,2.6-8.6c0.2-1.5,0.4-2.9,0.3-4.4
		c-0.2-1.3-0.8-2.6-1.8-3.5c-0.5-0.3-1.1-0.4-1.6-0.5c-1.4-0.2-2.9,0.3-3.7,1.5c-0.4,0.7-1.2,1.7-0.6,2.6c0.9,0.7,1.5-0.6,2-1.1
		c0.6-0.7,2.1-0.9,2.5,0.2c0.9,2.2,0.3,4.7-0.6,6.8c-1.3,3.3-3.3,6.5-3.4,10.1c0,1,0,2.1-0.1,3.1c-3.6-0.5-5.7-1.5-7.5-2.7
		c-1.5-1.1-2.3-1.9-3-2.7c-0.7-0.9-1.3-1.9-2.7-3.8c-6.1-8.1-4.9-17.9-4-26.7c2.5-24.6,7.3-40.3,14.6-60.4
		c7.3-20.2,17-44.8,29.5-87.7c2.9-10.1,5.9-19.4,9.2-29.5c3.4-10.1,5.9-17.3,8.5-24.8l0.8-2.3c0.5-1.4,1-2.8,1.5-4.2
		c0.6-1.6,1.1-4.7,0.5-7.6c-0.2-0.9-0.7-1.9-1.2-2.7S308.9,279.3,308.9,279.1z M549.5,285.4c11.3,0.1,22.5,0.9,33.6,2.9
		c0.1,3.1,0.2,6.2,0.2,9.4c0,2.8,0,5.6-0.1,8.4c-2.3,0.3-4.7,0.6-7,0.8c-71.7-3.6-143.5,0.2-215,3.2c-12.9-1.3-21-1.6-33.8-1.4
		c-2.9,0-5.2,0.8-7.2,1.9c1.3-3.5,3.4-8.3,5.5-13.9c0.1-0.2,0.2-0.4,0.3-0.7l1-3.6l0.5-1.1c2.3-1.2,4.6-1.7,6-1.7
		c8.2,0,16.5,0.2,24.7,0.7l0,0h0c33.4,0.7,67.1,4.5,100.5-1.4l0,0c28.1-3.6,56.5-1.4,85-3.5l0,0
		C545.6,285.4,547.6,285.4,549.5,285.4z M184.8,288.3c7.7,0,15.5,0.6,23.2,2.1l0,0l0,0c29.6,2.7,59.2,1.2,88.8-0.1
		c2.5-0.1,5.5,0.8,7.7,2.3l-1.8,6c-1.1,3.3-3,8.2-4.9,13.8c-1.7-1.9-4.4-3.5-9.1-3.3c-35,1.4-61.2,4.8-96.2,4.5
		c-18.6-1.9-37.2-3-55.9-3.6c-0.9,0-2.3,0-3.7,0.4c-0.1-0.2-0.2-0.3-0.3-0.4c-0.5-4.5-1.2-8-2-11.7c0.1-0.3,0.1-0.7,0.1-1.1
		l-0.3-1.7c1-0.8,2.2-1.3,3.4-1.5C150.9,291.1,167.8,288.2,184.8,288.3z M29.8,290.8c16,0,39.9,1.4,62.8,8.2v0l0.1,0l0.1,0
		c7.3-0.3,14.5-1.1,21.7-2.1c0.9-0.1,2.3-0.1,3.6,0.2l0.2,1.3c0.1,0.5,0.3,1,1.2,3.1c0.9,2,1.1,4.8,1.5,8.4
		c-1.1-0.4-2.1-0.5-2.5-0.6c-35.4-0.8-70.8-0.6-106.2-1.3c-0.1-3.5-0.2-6.9-0.2-10.4c0-2.2,0-4.5,0.1-6.7c2.4,0,5.1,0,7.9,0
		C22.8,290.9,26.1,290.8,29.8,290.8z M508.9,308.9c22.4-0.1,44.8,0.3,67.2,1.5h0.1h0.1c2.3-0.2,4.5-0.4,6.8-0.7
		c-0.7,16.1-2.7,31.8-5.9,47.1c-0.7-4.2-1.6-7.2-2.9-9.4c-1.4-2.5-3.7-4.3-6.4-4.1c-2.5,0.2-4.4,1.6-6,3.2c-1.7,1.6-3.2,3.5-4.8,5.4
		c-3.1,3.9-6.5,8-8.5,9.3c-1.1,0.7-1.1,0.6-1.5,0.4c-0.2-0.1-1.3-1-2.3-3.6c-4-9.8-9.2-19.9-16.3-25.1c-1.8-1.3-3.7-2.3-5.8-2.8
		c-2.1-0.5-4.3-0.5-6.6,0.2c-4.4,1.3-8.4,4.9-12.3,10.9l0,0c0,0,0,0,0,0l0,0c-0.1,0.1-0.2,0.3-0.2,0.5l0,0.1
		c-2,5.3-6.1,11.1-10.6,14.6c-2.2,1.7-4.5,2.8-6.6,3.1c-2.1,0.3-3.9,0.1-5.9-1.2c-2.3-1.5-3.9-6.1-6-10.6c-1-2.2-2.3-4.6-4.7-6.1
		c-2.5-1.5-5.7-1.6-9.1-0.2c-2.6,1.1-3.8,3.4-5,5.4c-1.3,2.1-2.5,4.4-3.7,6.1c-1.2,1.7-2.4,2.6-2.9,2.7c-0.3,0.1-0.5,0.1-1.1-0.2
		c-0.5-0.3-1.4-0.9-2.4-2.1c-4.1-4.6-9.1-8.6-14.2-9.5c-2.7-0.5-5.7,0.3-7.4,2.9c-1.6,2.4-2,5.7-1.5,9.8c0.7,6.4-2.3,11.3-7.1,14.9
		c-4.8,3.7-11.4,5.7-16.4,5.8c-1.4,0-1.8-0.3-2-0.4c-0.1-0.1-0.3-0.2-0.4-1c-0.2-1.5,0.4-4.8,1.2-8.3c0.7-3.4,1.6-7.2,0.7-10.9
		c-0.4-1.9-1.4-3.7-3.1-5c-1.7-1.3-3.9-2-6.5-2.2c-3.4-0.2-6.1,0.9-8.1,2.3c-2,1.4-3.3,3-4.4,4c-1.1,1-1.8,1.4-2.8,1.5
		c-1,0-2.9-0.4-6-2.4c-1.6-1-3.3-3.2-5.2-5.8c-1.9-2.6-4.2-5.6-7.3-8.1c-3-2.3-6-4.4-9.6-4.6c-2.8-0.2-5.5,1-7.5,3.4
		c-1.1,0.8-2.1,2-2.9,3.6c-1.7,3.4-3.1,5.6-4.3,7.1c0,0,0,0,0,0c-0.2,0.1-0.7-0.2-1.2-0.8c-1.1-1.3-2.5-3.7-4.4-6
		c-1.9-2.3-4.5-4.7-8.3-4.8c-2.7-0.1-5,0.8-6.7,2.3c1.6-5.5,3.4-10.9,4.5-14.1c0,0,2.2-6.8,3.6-11c2.7-2.2,5.9-4,8.7-3.9
		c12.9,0.4,21.1,0.1,34,1.4l0.1,0h0.1C410.4,311.5,459.6,309,508.9,308.9z M12.4,311.6c35.5,0.7,70.8,0.5,106.2,1.3
		c0.5,0,1.4,0.3,2.4,0.8l0.1,2.1c0,0.4,0.1,0.7,1,6.8c0.6,6.3-2.9,6.7-7.2,14.9c-1.7,3.3-3.1,6.8-4.4,9.8c-1.3,3.1-2.7,5.7-3.8,6.9
		c-1.5,1.7-2.7,2.6-3.6,3.1c-0.9,0.5-1.3,0.5-1.7,0.4c-0.6-0.1-2.1-1.4-3.4-3.9c-2.6-5.1-4.4-13.7-6.5-19.1
		c-0.5-1.3-1.5-2.3-2.6-2.8c-1-0.5-2-0.6-2.7-0.6c-0.8,0-1.4,0-3.3-0.3c-1.9-0.3-4.3,0-6.4,0.9c-2.3,1-4.2,2.6-6,4.4
		c-3.5,3.6-6.5,8.1-9.1,11.5c-1.3,1.7-2.6,3.1-3.6,3.9c-1,0.8-1.5,0.9-1.8,0.8c-0.3,0-0.9-0.3-2.1-1.8c-1.1-1.5-2.5-4.3-3.3-6.5
		c-0.8-2.2-1.2-2.8-3.7-4.6c-2.5-1.8-6.1-3.5-9.5-4c-3.4-0.5-6.5,0.6-8.6,2.7c-4.1,4-5,10.5-6.3,16.6c-0.8,3.7-1.6,7.3-2.7,10.3
		C15.9,347.9,13.3,330,12.4,311.6z M289.1,312.7L289.1,312.7c3.8,0,5.9,1.8,7.2,4c-0.7,2-1.5,4.3-2.9,8.4c-2.1,6.1-4.5,14.5-7.5,25
		c-6.9,23.6-12.9,41.6-16.7,47.8c-3.8,6.3-7,5.1-11.1,4.9c-6.3-0.3-11.1,4.1-13.9,5.5c-0.7,0.4-1.3,0.6-1.7,0.6
		c-0.4,0-1.6-1.1-2.7-4.5c-1.2-3.8-1.9-7.4-1.6-10.3c0.2-1.5,0.5-2.9,1.2-4.1c0.4-0.6,0.9-1.2,1.3-1.8c0.5-0.5,1.1-1.1,1.8-1.6
		c1.6-1.2,3.2-2.5,5-3.8c0.4-0.3,0.9-0.5,1.3-0.8l0.2-0.3c2.1-1.5,4.5-3,7.5-4.6c6.9-3.6,13.8-7.2,17.9-10.9
		c2.2-1.9,6.1-5.4,8.1-9.1c0.5-0.9,1-1.9,1.1-3.1c0.2-1.2-0.1-2.7-1-3.9c-0.9-1.2-2.3-1.7-3.6-2c-1.3-0.3-2.8-0.3-4.5-0.1
		c-6.9,0.7-13.8,5.2-20.7,8.4c-3.7,1.7-5.7,3-7.1,3.4c-1.3,0.4-2.1,0.4-4.8-1c-0.7-0.4-1.2-1.2-1.6-3c-0.4-1.8-0.6-4.3-1.1-6.9
		c-0.5-2.5-1.5-5.5-4.1-7.3c-2.7-1.9-6.4-2.1-11-0.9c-0.6,0.1-2.6-0.3-5-2c-2.5-1.7-5.3-4.3-8-6.8c-2.7-2.5-5.2-4.9-7.8-6.4
		c-1.3-0.7-2.8-1.4-4.6-1.2c-2,0.2-3.5,1.7-4.3,3.4c-2.7,6.5-2.6,15.2-3.9,20.7c-0.6,2.7-1.7,4.4-2.2,4.8c-0.3,0.2-0.6,0.3-1.5,0.2
		c-0.8-0.1-2.1-0.5-3.8-1.5c-6-3.3-12.4-6.3-18.2-6.3c-2.9,0-6,1.1-7.8,3.8c-1.8,2.6-2.2,6.1-1.5,10.5c0.4,3.2-0.1,4.6-1,5.6
		c-0.8,0.9-2.4,1.6-4.6,1.9c-4.5,0.6-11.1-0.5-15.8-1.1c-1.4-0.2-1.7-0.5-2-0.9c-0.3-0.4-0.6-1.1-0.6-2.3c-0.1-2.5,0.9-6.7,2.2-11
		c1.3-4.3,2.8-8.8,3.3-13c0.2-2.1,0.3-4.1-0.4-6.1c-5.5-6.6-3-8.8-3.3-16.2c0.1-0.3,0.1-0.6,0.1-0.8l-0.1-2c1.1-0.5,2.3-0.4,3.3-0.4
		c18.6,0.7,37.2,1.8,55.8,3.6l0,0h0c35,0.3,61-3,95.8-4.4C288.6,312.7,288.9,312.7,289.1,312.7z M201.5,332.5c1.6,0,3.5,1.7,5.5,3.6
		c2.7,2.5,5.6,5.2,8.6,7.3c3,2.1,6.4,3.9,10.1,2.9c3.7-1,5.3-0.5,6,0c0.7,0.5,1.2,1.6,1.6,3.5c0.4,2,0.6,4.5,1.1,7
		c0.6,2.6,1.8,5.5,4.7,7c3.6,1.9,6.4,2.3,9.1,1.6c2.3-0.6,4.2-1.8,6.9-3.2c2.2-0.7,4.3-1.6,6.4-2.6c3.9-1.8,7.7-3.8,11.2-5.4
		c0.9-0.3,1.7-0.4,2.4-0.5c1-0.1,1.6,0,1.3,1c-0.3,1.1-4,4.7-5.9,6.5c-3.1,2.7-9.9,6.5-16.8,10.1c-7.1,3.7-11.1,7.3-14.8,10.1
		c-4.1,3.1-6.1,7.1-6.7,11.4c-0.5,4.3,0.3,8.8,1.7,13.2c1.2,4.1,2.8,6.9,5.4,8.2c2.7,1.4,5.5,0.4,7.6-0.6c4.1-2.1,7.8-5,10.7-4.8
		c3.2,0.2,4.7,1,5.5,1.8c0.8,0.8,1.2,1.9,1.1,3.6c-0.1,1.7-0.3,2.2-0.4,2.7c-1.1,2.9-2.1,5.8-3.2,8.7c-1.5,4.1-3,8.1-4.3,11.9
		c-7.3,20.3-12.3,36.4-14.9,61.4c-0.9,8.6-2.4,20.1,4.9,29.7c1.3,1.7,1.8,2.6,2.7,3.8c0.9,1.2,2.1,2.3,4.2,3.8
		c2.1,1.5,5.3,2.8,9.8,3.4c1.1,2.7,2.7,5.2,5.2,6.8c1.8,1.1,2.6,2.8,3.4,4.7c-7.4-1.7-14.8-4.7-22.5-8.3
		c-11.9-5.5-24.5-12-39.8-15.3c-15.3-3.2-25.9-11.8-30.9-20.7c-3-5.3-5.1-11.5-5.2-17.2c-0.1-5.7,1.7-10.7,6.6-14.7
		c12.4-9.9,18.4-20.7,21.8-33.4c3.4-12.7,4.4-21.8,8.3-26.1c3.9-4.3,6-7.3,7.1-9.7c1.1-2.4,1.2-4.2,1.8-9.9
		c0.6-5.7,1.9-12.3,2.9-16.5c0.5-2.1,0.9-3.5,1.3-4.5c0.2-0.5,0.3-0.8,0.4-1.2c0.1-0.4,0.2-0.4,0.2-1c0-0.6-0.4-1.3-0.4-1.3
		c0,0-0.9-0.6-0.9-0.6c0,0-1-0.1-1-0.1c0,0-0.6,0.2-1.4,0.7c-0.8,0.5-1.4,1.2-1.8,2.1c-1,1.8-1.9,5-2.6,8.5c0,0-2.7,18.5-2.7,18.5
		c0,1.3-0.6,2.6-1.9,4.5c-1.3,1.8-3.5,4-6,7.3c-5.5,7.1-6.8,17.6-9.5,27.8c-3,11.1-9.2,18.8-14.6,23.4c-5.4,4.6-5.7,4.8-6,5
		c-0.3-0.2-0.7-0.6-1.3-1.2c-6.9-6.4-14.5-14.7-18.9-22.5c-5.3-9.5-7-19-2.3-26.8c4.7-7.9,6.9-14.2,6.8-19.6
		c-0.2-5.4-0.7-8.4-0.7-10.7c0-2.8,0.7-4.8,1.4-6.2c0.4-0.7,0.7-1.2,1.2-2.7c0.5-1.5,0.2-2.1-0.3-2.6c-0.6-0.5-1.6-0.4-2.9,0.6
		c-1.3,1-1.8,1.9-2.3,2.9c-1,2-2,4.8-2.1,7.9c0,2.8,0,6,0,10.3c0,4.3-2.1,9.6-4.6,14.9c-7.7,11.7-6.5,24.6-0.5,35.4
		c4.9,8.8,12.4,18.3,16.3,22.1c3.9,3.8,4.1,4.1,4.3,4.3c-6.2,9.5-4.2,27.4,0.4,36c4.9,8.7,8.9,12.6,13.8,16.5
		c-2.5-0.1-5-0.1-7.6-0.1c-10.6,0.1-21.3,1-32.2,3.5c-2.6,0.6-5.6,1.3-8.6,2c-54-37.5-94.5-93.3-112.5-158.3
		c3.9-4.9,5.1-11.8,6.4-17.9c1.3-6.2,2.9-11.8,4.6-13.5c0.9-0.9,1.5-1.2,3.4-1c1.7,0.2,4.6,1.5,8.1,3.9c1.3,3.6,2.6,6.6,4.1,8.7
		c1.7,2.3,3.8,4,6.2,4.3c2.5,0.3,4.6-0.7,6.3-2.1c1.7-1.3,3.2-3,4.7-4.9c2.9-3.7,5.8-8.1,8.7-11c1.4-1.5,2.9-2.5,4.1-3.1
		c1.3-0.5,2.2-0.7,3.5-0.3c1,0.3,1.8,0.2,2.2,0.2c0.5,0,1,0,2,2.1c1,2.2,2.8,10.8,6,17c1.6,3.2,3.9,6.3,7.6,7.1
		c3.7,0.8,7.5-1.3,11.1-5.4c1.2-1.7,1.3-0.9,0.9,0.6c-8.7,28.4-8.6,59.6,2.1,87.9c-3.1,2-6.6,4.6-9.3,8.2
		c-6.5,1.1-12.2,6.6-11.9,14.1l0,0c0,0,0,0,0,0c0,0.1,0,0.2,0,0.3c0,0.2,0.1,0.4,0.1,0.5c-0.1,3.3,0.7,6.6,2.6,9.3
		c2.1,3,5.6,5.4,9.8,5.7c0.1,0.1,0.1,0.2,0.3,0.4c0.2,0.2,0.4,0.5,0.7,0.9c0.3,0.4,0.5,0.6,0.9,1c0.4,0.4,0.7,0.7,1,1
		c0.3,0.3,0.6,0.5,1,0.8c0.4,0.3,0.7,0.5,2.1,1.3c1.4,0.9,4.2,1.7,5.9,1.6c1.7-0.1,1-0.1,3.2-0.1c2.2-0.1,7.5-1.5,11.4-4.4
		c0.3,0,0.6-0.1,0.9-0.1c5.6-1.2,9.7-5.2,11.7-9.8c2.1-4.5,2.5-9.8,1-14.8c-0.8-2.6-2.5-4.9-4.5-7c0-0.1,0.1-0.3,0.3-1.9
		c0.2-1.6,0.4-4.4-2.6-8.2c-3.1-3.8-7.4-5.2-11.2-4.9c-1.2,0.1-2.2,0.5-3.3,0.8c-10.4-28.6-9.3-60.9,1.7-88.8
		c2.9-7.4,4.3-10.9,1.8-2.5c-1.3,4.4-2.6,8.8-2.5,12.9c0.1,2.1,0.5,4.2,1.9,5.9c1.4,1.8,3.6,2.8,6,3.1c4.4,0.6,11.3,2,17.4,1.1
		c3.1-0.4,6.2-1.5,8.4-4c2.2-2.5,3-6.1,2.4-10.4c-0.5-3.5,0.1-5.4,0.6-6.2c0.5-0.8,1.1-1.1,2.8-1.1c3.3,0,9.6,2.4,15.2,5.5
		c4.4,2.4,8.4,3,11.4,1.1c3-1.9,4.2-5.2,4.9-8.6c1.5-6.5,1.8-14.6,3.5-16.4C200.5,332.7,201,332.5,201.5,332.5z M519.6,335.8
		c1.7-0.1,3.4,0.6,5.3,2c5,3.7,10.4,13.1,14.2,22.5c1.3,3.3,3,5.6,5.4,6.8c2.5,1.2,5.2,0.5,7.2-0.8c3.9-2.4,7-6.9,10.1-10.7
		c1.5-1.9,3-3.6,4.2-4.8c1.2-1.1,2.3-1.5,2.2-1.5c0.1,0.1,0.3,0.3,0.7,1c0.7,1.3,1.6,4,2.3,8.3c-0.3,4.8,0.2,10,2,14.5
		c-19.7,72.1-66.9,132.9-129.7,170.2c-2.3,0-2.7-0.1-3.2-0.4c-0.4-0.3-1-1.1-1.8-2.2v0c-3.2-4.8-5.7-10.1-7-15.5
		c-2.4-9.3-1.9-18.9,2.1-27.2c4.6-9.4,2.3-17.2,0.2-20.7c-2.1-3.4-2.1-3.6-2.1-3.7c0-0.2,0.1-0.6,0.6-1.3c0.5-0.7,1.1-1.4,1.3-1.5
		c10.4-7.6,17.5-17.8,21.6-27.7c4.1-9.9,5.3-19.4,4.5-22.8c0,0-5.4-20-5.4-20c-1.3-4.7-3.9-8.4-6.2-11c-1.2-1.3-2.2-2.2-3.1-2.9
		c-0.4-0.3-0.8-0.6-1.3-0.8c-0.2-0.1-0.5-0.2-1-0.3c-0.3,0-0.7,0-1.2,0.2c-0.5,0.2-1,0.8-1.2,1.4c-0.4,1.2,0.1,1.6,0.3,1.9
		c0.2,0.3,0.3,0.4,0.4,0.5c0.3,0.3,0.6,0.6,0.9,0.9c0.7,0.6,1.6,1.5,2.5,2.5c1.9,2.1,3.8,5,4.6,8.5l4.2,19.3
		c0.6,2.6-0.3,11.2-4,20.2c-3.7,8.9-10.1,18.2-19.4,25c-0.8,0.5-1.5,1.4-2.3,2.3c0,0,0,0,0,0v0c-2.7-3.3-5.8-6.4-8.7-9.3
		c-4.7-4.9-9-9.6-11.2-14.7c-2.3-5.2-3.1-10.9-2.4-12.4c0.6-1.5,1.5-2.9,2.2-4c0.4-0.5,0.7-1,1-1.6c0.1-0.3,0.3-0.5,0.3-1.3
		c0-0.4-0.1-1.1-0.6-1.6c-0.5-0.5-1.2-0.7-1.6-0.7h0c-0.1,0-0.6,0-1.1,0.2c-0.5,0.2-1,0.5-1.5,0.9c-0.9,0.8-1.9,2-3.7,5.8
		c-1.8,3.7-1.1,10.9,1.7,17.2c2.8,6.4,7.7,11.6,12.5,16.5c4.8,5,9.6,9.7,12.5,14.8c2.9,4.9,4,11.5,0.9,17.7
		c-5.4,10.9-6.1,20.7-3.5,31.2c1.4,5.5,3.2,10.5,4.5,13c1.2,2.5,1.3,2.6,1.4,2.8c-0.2,0-0.3,0-0.6-0.1c-27.6-2.4-55,0-69.5,1.7
		c-14.5,1.8-15.8,1.9-16.5,1.8c-0.7,0-0.8-0.1-1-0.3c-0.5-0.4-1.4-2.3-3.4-4.8c-2-2.5-3.8-4.5-5.6-6.5c-3.8-4.2-6.5-7.7-7.3-12.7
		c-0.2-5.4,2.6-9.6,6.3-14.1c3.7-4.5,8.5-8.7,12.5-11c4.6-2.7,7.7-6,9.7-10c2.1-4.2,2-9.2,0.2-13.8c-1.8-6.4-5.3-11.7-9.1-16.6
		c-2.3-2.9-3-7.9-3-12.2c0-2.1,0.1-4.1,0.3-5.5c0.1-0.7,0.1-1.3,0.2-1.7c0-0.2,0-0.4-0.2-1.2c-0.2-0.9-0.7-1.3-0.7-1.3
		c0,0-0.8-0.3-0.8-0.3c0,0-0.8,0-1.6,0.7c-0.8,0.6-0.9,0.9-1,1.1c-0.2,0.5-0.4,1-0.7,1.7c-0.4,1.3-0.8,3.1-0.9,5.3
		c-0.3,4.3,0.4,10.2,3.7,16.5c2.9,5.6,6.6,10.3,8,15.5c0,0,0,0.1,0,0.1l0,0l0,0c0,0,0,0.1,0,0.1c1.2,3.1,0.9,5.9-0.5,8.7
		c-1.4,2.7-3.9,5.2-8.1,7.6c-4.2,2.4-9.7,6.5-12,9.2c-2.3,2.7-2.4,2.9-2.5,3.1c-1.1-1.4-2.6-2.8-4.8-3.2c-1.2-0.2-1.5-0.4-2.1-0.9
		c-0.5-0.5-0.4-0.2-0.5-0.6c-0.2-0.4-0.4-1.5-0.7-3.8c-0.6-5-2.4-12.5-1.5-19.6c0.1-0.7,0.6-2.4,1.3-4c0.6-1.6,1.2-3,1.5-4.3
		c0.4-2.3,0.1-4.9-0.4-7.1c-0.2-1.1-0.5-2-0.8-2.8c-0.1-0.4-0.3-0.7-0.5-1.1c-0.1-0.2-0.2-0.4-0.5-0.6c-0.3-0.2-0.7-0.7-1.7-0.7
		c-0.9,0-1.7,0.8-2,1.3c-0.2,0.5-0.2,0.7-0.2,1c0,0.5,0,0.8,0.1,1.2c0.1,0.8,0.3,1.6,0.4,2.6c0.3,1.9,0.5,4.2,0.3,5.1
		c-0.1,0.3-0.9,2-1.7,3.7c-0.8,1.7-1.6,3.3-1.9,5c-1.3,8.1-0.3,13.6,0.6,21.3c0.2,1.2,0.5,3,0.9,4.6c0.5,1.7,0.8,3.2,2.2,4.5
		c1.4,1.3,3.1,2.7,5.4,3.1c1,0.2,0.9,0.3,1.3,1.2c0.4,0.9,0.3,1.2,0.2,1.8c-0.2,0.6-0.6,1.5-1.3,3.4c-0.7,1.9-1.2,4.6-0.9,7.5
		c0.6,7,3.2,12.2,7.4,16.9c1.7,1.8,2.6,3.4,3.5,5.2c0.6,1.5,1.2,2.6,1.6,3.5c-0.5,0.1-0.7,0.1-1.5,0.2c-14.5,1.8-29,3.5-43.3,4.6
		c-1.1,0.1-2.1,0.1-3.4,0.2c-1.2,0.1-1.5-0.1-1.5-0.1c0,0-0.3-0.3-0.8-1.3c-2-3.8-4.3-8.2-8-10.4c-0.6-0.4-0.9-0.8-1.2-1.2
		c1.3-0.2,2.3-0.4,2.8-0.6c1.6-0.5,2.8-1.3,3.2-1.5c2.5-1.6,4.2-3.3,7.1-5.9c9-8.3,9.1-20,9.4-28.5c1.1-26.8,1.3-51.4,2.6-75.1
		c0.3-2.4,0.2-4,0.3-4.2c0.2-0.4,0.2-0.9,0.2-1.4c0.1-2.5,4-3.9,5.4-4.3c4.3-1.1,7-0.3,10.1,1.1c3.1,1.5,6.4,3.9,10.8,5.4
		c5.9,2.1,12.9,2.5,19.3,0.8c6.4-1.7,12.3-5.7,15.3-12.5c3.3-7.6,2.3-16-1.6-22.1c-3.9-6.2-10.8-10.2-18.6-8.8
		c-2.9,0.5-4.1,0.1-4.9-0.5c-0.8-0.6-1.5-1.7-2.1-3.4c-1.2-3.4-1.7-9.2-6.4-12.5c-3.6-2.5-7.3-4.6-9.4-6.9c-2.2-2.3-3.3-4.3-2.2-8.7
		c0.4-1.8,1-3.3,1.6-4c0.7-0.8,1-1,2.7-1c0.7,0,1.4,0.3,2.1,0.9c0.1,0.1,0.2,0.2,0.3,0.3c1.6,1.9,2.9,4.3,4.5,6.1
		c0.4,0.5,0.8,0.9,1.3,1.3c0,0,0.1,0.1,0.1,0.1c0.9,1,1.9,2,3.4,2.6c1.6,0.7,3.4,0.6,5.1-0.2c3.1-1.6,5.3-4.9,8.3-10.9
		c0.7-1.4,1.3-2.1,1.8-2.4c0.5-0.3,0.8-0.4,1.5-0.3c1.2,0.1,3.7,1.3,6.3,3.3c2.4,1.9,4.4,4.5,6.3,7.1c1.9,2.6,3.9,5.3,6.6,7.1
		c3.7,2.4,6.8,3.5,9.7,3.4c2.9-0.1,5.1-1.6,6.6-3.1c1.5-1.4,2.7-2.8,3.9-3.6c1.2-0.9,2.1-1.3,4.1-1.2c1.8,0.1,2.7,0.5,3.1,0.9
		c0.5,0.4,0.7,0.8,0.9,1.6c0.4,1.6,0,4.9-0.7,8.2c-0.7,3.3-1.7,6.9-1.3,10.3c0.2,1.7,0.9,3.6,2.5,5c1.6,1.3,3.7,1.8,6,1.8
		c6.5-0.1,14.1-2.5,20.1-7c6-4.6,10.5-11.7,9.5-20.5c-0.4-3.4,0.2-5.3,0.5-5.7c0.2-0.3,0.2-0.3,0.3-0.3c0.1,0,0.4-0.1,1,0
		c2.2,0.4,7.1,3.6,10.7,7.6c2.9,3.2,6.1,4.8,9.3,4.2c3.1-0.6,5.1-2.9,6.6-5.1c1.6-2.2,2.8-4.7,3.9-6.5c0.5-0.9,1.1-1.7,1.5-2.2
		c0.4-0.5,0.9-0.8,0.6-0.6c2.3-0.9,2.9-0.7,3.6-0.3c0.6,0.4,1.6,1.6,2.4,3.5c1.7,3.7,3.1,9.8,8.2,13.1c3.2,2.1,6.8,2.7,10.2,2.1
		c3.4-0.6,6.5-2.2,9.3-4.3c5.5-4.2,10-10.6,12.4-16.9c3.4-5.1,6.4-7.5,8.8-8.2C518.5,336,519.1,335.9,519.6,335.8z M307.5,360.8
		c0.4-0.1,0.8,0.1,1.1,0.4c0.1,0.1,0.1,0.1,0.2,0.2c0.3,0.3,0.6,0.6,0.9,0.8c0.2,0.2,0.4,0.4,0.6,0.6c3.1,3.2,6.9,5.2,10,7.4
		c1.6,2.3,2.3,5.9,3.5,9.1c0.7,1.9,1.7,3.8,3.3,5.1c0.6,0.7,1.3,1.4,2.1,2c2.4,1.7,5.6,2.2,9.5,1.5c5.2-0.9,9.7,1.7,12.4,6.2
		c2.8,4.5,3.6,10.7,1.1,16.3c-2.1,4.8-6.2,7.7-11.2,9c-5,1.3-10.9,1-15.7-0.7c-3.3-1.2-6.4-3.4-10.2-5.2c-3.8-1.8-8.5-3-14.3-1.5
		c-1.2,0.3-2.4,0.8-2.1-8.7c0.2-9.5,2.7-28,5.5-36.6C305.5,362.4,306.5,360.9,307.5,360.8z M128.5,444.6c0.3,0,0.7,0,1,0.1h0
		c0.3,0,0.7,0.1,1,0.2h0c0.3,0.1,0.7,0.2,1,0.3h0c0.7,0.2,1.4,0.6,2.1,1h0c1,0.6,2,1.5,2.9,2.6c0.3,0.4,0.6,0.8,0.8,1.3
		c0.1,0.2,0.2,0.5,0.2,0.7c0.1,0.2,0.1,0.5,0.1,0.8c0,0.2,0,0.5,0,0.8c0,0.8-0.1,1.6-0.2,2.4c-0.6-0.4-1.2-0.7-1.8-1h0
		c-0.3-0.1-0.6-0.3-0.9-0.4h0c-0.3-0.1-0.6-0.2-0.8-0.3c0-0.6,0-1.1-0.1-1.4c-0.1-0.3-0.1-0.5-0.2-0.5c-0.3-0.3-0.5-0.6-0.8-0.8
		c-0.2-0.2-0.5-0.5-0.7-0.7h0c-0.2-0.2-0.5-0.4-0.7-0.5h0c-0.2-0.1-0.5-0.3-0.7-0.4h0c-0.2-0.1-0.5-0.2-0.7-0.3h0
		c-0.2-0.1-0.5-0.1-0.7-0.2h0c-0.4-0.1-0.9-0.1-1.3-0.1c-1.8,0.1-3.7,1-5.3,2.1l0,0l-1.8,1.1c-2.8,1.8-5.9,3.8-8.2,6
		c-0.3-0.1-0.7-0.3-1-0.4c-0.3-0.1-0.7-0.2-1-0.3c0,0,0,0,0,0c-0.3-0.1-0.7-0.1-1-0.2c0,0,0,0,0,0c-0.4-0.1-0.7-0.1-1.1-0.1l0.7-0.8
		c0.4-0.4,0.7-0.8,1.1-1.1c2.7-2.6,5.9-4.6,8.6-6.3l0,0l1.8-1.1c0,0,0,0,0,0c0,0,0,0,0,0v0l0,0l0,0c1.2-0.7,2.5-1.5,4.1-2
		c0.9-0.3,1.9-0.5,3-0.6v0c0,0,0,0,0,0C128.2,444.6,128.3,444.6,128.5,444.6L128.5,444.6L128.5,444.6z M124.2,451.6
		c1.6,3.6,3.5,7.1,5.5,10.5c3,5.1,3,10.1,0.8,13.4c-0.3,0.4-0.6,0.8-0.9,1.2c-1.7,1.8-4.2,2.8-6.8,2.8c-0.3,0-0.5,0-0.8,0
		c-0.8-0.1-1.6-0.2-2.5-0.5c-1.4-0.4-2.6-1.1-3.6-2c-0.2-0.2-0.4-0.4-0.6-0.6c-1.9-1.9-3-4.6-3-7.5c0-0.8,0.1-1.5,0.3-2.3v0
		c0.1-0.3,0.1-0.5,0.2-0.8c0.3,0.2,0.7,0.6,1,1c0.7,0.8,1.5,1.9,1.9,2.5c0.2,0.3,0.3,0.5,0.3,0.5c0.2,1.6,1,3.1,2.1,4.1
		c0.2,0.2,0.5,0.4,0.7,0.6h0c0.3,0.2,0.5,0.3,0.8,0.5h0c0.3,0.1,0.6,0.3,0.9,0.4h0c0.2,0.1,0.4,0.1,0.6,0.2h0c0.2,0,0.4,0.1,0.6,0.1
		h0c0.2,0,0.4,0.1,0.6,0.1c0.2,0,0.4,0,0.5,0c0.5,0,1,0,1.5-0.1c0.3-0.1,0.6-0.2,0.9-0.3c0.7-0.3,1.3-0.7,1.8-1.2
		c0.2-0.2,0.4-0.4,0.6-0.7c0.5-0.7,0.8-1.7,1-2.8c0-0.2,0-0.4,0-0.6c0-0.4,0-0.8-0.1-1.2s-0.1-0.9-0.2-1.3c-0.3-1.1-0.8-2.4-1.6-3.7
		c-2-3.4-3.8-6.9-5.5-10.4L124.2,451.6z M129.8,454.2c0.3,0,0.7,0,1,0h0c0.3,0,0.7,0.1,1,0.1h0c1,0.2,1.9,0.5,2.8,0.9h0
		c0.9,0.4,1.7,0.9,2.4,1.5c2.4,1.9,4.1,4.5,5,7.2c0.9,3,1,6.1,0.2,9.1c-0.2,1-0.6,1.9-1,2.9c-0.7,1.6-1.7,3.1-3,4.3
		c-1.6,1.6-3.6,2.8-6,3.2c-0.2,0-0.4,0.1-0.7,0.1c-0.2,0-0.5,0-0.7,0c-0.2,0-0.5,0-0.7,0c-0.2,0-0.5,0-0.7-0.1h0
		c-0.2,0-0.5-0.1-0.7-0.1h0c-0.2,0-0.5-0.1-0.7-0.2h0c-0.2-0.1-0.5-0.1-0.7-0.2h0c-0.2-0.1-0.5-0.2-0.7-0.3h0
		c-0.2-0.1-0.4-0.2-0.6-0.3h0c-0.2-0.1-0.4-0.2-0.6-0.4c-0.2-0.1-0.4-0.3-0.5-0.4c-0.2-0.1-0.3-0.3-0.5-0.4c2.5-0.5,3.1-1.1,4.3-1.6
		c0.5,0.1,1,0.2,1.4,0.2c0.2,0,0.4,0,0.6,0c0.2,0,0.4,0,0.5-0.1c1.8-0.4,3.3-1.3,4.5-2.7c0.7-0.8,1.3-1.8,1.8-2.8
		c1.3-2.8,1.6-6.3,0.6-9.3c-0.4-1.2-1.1-2.5-1.9-3.6c-0.5-0.7-1.1-1.3-1.8-1.8c-1.6-1.2-3.4-1.9-5.5-1.7l-1.8-3.4
		c0.1,0,0.2,0,0.3-0.1C128.5,454.2,129.2,454.2,129.8,454.2z M121.3,457l1.4,3.4c-1.4,0.6-2.5,1.3-3.4,2l-2.6-2.5
		C118,458.7,119.5,457.8,121.3,457z M108.4,458.4L108.4,458.4L108.4,458.4c0.3,0,0.6,0,0.9,0c0.3,0,0.6,0.1,0.9,0.1
		c1.2,0.2,2.3,0.6,3.3,1.2h0c1.7,0.9,3.1,2.2,4.4,3.6c0.7,0.8,1.3,1.6,1.9,2.5c0.6,0.9,1.1,1.8,1.6,2.7c1,1.8,1.8,3.7,2.5,5.4
		c-0.3,0.1-0.6,0.1-1,0.1c-0.2,0-0.4,0-0.6,0c-0.2,0-0.4-0.1-0.6-0.1h0c-0.2,0-0.4-0.1-0.6-0.1h0c-0.2-0.1-0.4-0.1-0.6-0.2h0
		c-0.2-0.1-0.4-0.2-0.5-0.3h0c-0.2-0.1-0.3-0.2-0.5-0.3c-0.9-1.9-2-3.9-3.2-5.6c-0.4-0.6-0.8-1.1-1.3-1.6c-2.3-2.7-4.5-4.1-8.2-3.7
		c-3.3,0.3-6.5,2.7-6.2,6.7l0,0.3c-0.4,3,1.2,6.3,3.4,7.6l0.1,0.2c0.3,1,0.7,2,1.1,3.1c0.2,0.3,0.3,0.7,0.5,1
		c-0.7-0.1-1.5-0.2-2-0.4c-0.2-0.1-0.3-0.1-0.4-0.2c-0.5-0.2-0.5-0.3-0.6-0.3h0c-0.1-0.1-0.3-0.1-0.4-0.2c-0.1-0.1-0.2-0.1-0.3-0.2
		c-0.1-0.1-0.2-0.1-0.3-0.2c-3.8-2.7-4.8-6-4.7-10.8c0.1-6.8,4.8-9.9,9.5-10.3c0.3,0,0.6-0.1,1-0.1
		C107.8,458.4,108.1,458.4,108.4,458.4z M130.5,459.6L130.5,459.6c0.5,0.1,1,0.2,1.6,0.4h0c0.3,0.1,0.6,0.3,0.9,0.5h0
		c0.2,0.1,0.3,0.2,0.5,0.3h0c0.2,0.1,0.3,0.3,0.5,0.4c-0.5,0.5-1.1,1.1-1.8,1.8c-0.6-1.1-1.2-2.2-1.8-3.3
		C130.4,459.7,130.4,459.7,130.5,459.6z M108.9,463.9L108.9,463.9c-0.5,1.7-0.7,3.9-0.5,6.2c0.1,2,0.6,4.2,1.2,6.1
		c0.1,0.3,0.2,0.6,0.3,0.8c0.2,0.5,0.5,1.1,0.7,1.6c0.3,0.5,0.5,1,0.8,1.4c0.1,0.2,0.3,0.4,0.5,0.7c0.3,0.4,0.6,0.8,1,1.2
		c0.2,0.2,0.4,0.3,0.5,0.5h0c0.2,0.2,0.4,0.3,0.6,0.4h0c0.2,0.1,0.4,0.3,0.6,0.4h0c0.2,0.1,0.4,0.2,0.6,0.3h0
		c0.2,0.1,0.4,0.2,0.6,0.3h0c0.2,0.1,0.4,0.1,0.6,0.2h0c0.2,0.1,0.4,0.1,0.7,0.1h0c0.2,0,0.5,0.1,0.7,0.1c0.2,0,0.5,0,0.8,0l0.1,0h0
		l0.1,0c1.2,0,3.2-0.3,5.2-1c0.2,0.2,0.6,0.3,0.9,0.5h0c0.3,0.2,0.7,0.4,1.1,0.5h0c0.2,0.1,0.4,0.2,0.6,0.3h0
		c0.2,0.1,0.4,0.2,0.7,0.2h0c0.2,0.1,0.4,0.1,0.7,0.2h0c0.2,0,0.4,0.1,0.7,0.1l-1.1,0.6c-0.2,0.1-0.4,0.2-0.6,0.3
		c-0.2,0.1-0.4,0.2-0.6,0.3l0,0c-0.2,0.1-0.5,0.2-0.7,0.3c-2.5,1-5,1.5-7,1.4c-0.4,0-0.7,0-1.1,0c-0.4,0-0.7-0.1-1.1-0.1h0
		c-0.3-0.1-0.7-0.1-1-0.2h0c-0.3-0.1-0.7-0.2-1-0.3h0c-0.3-0.1-0.6-0.3-0.9-0.4h0c-0.3-0.1-0.6-0.3-0.9-0.5h0
		c-0.6-0.3-1.1-0.7-1.6-1.2h0c-0.3-0.2-0.5-0.5-0.7-0.7c-1.7-1.7-2.9-3.8-3.8-6.1c-1.8-4.5-2.4-9.7-1.5-14
		C105.9,464,106.9,463.9,108.9,463.9z M125,465c0.2,0.3,0.3,0.6,0.5,0.9c0.4,0.9,0.8,1.8,1,2.8c-0.3,0.3-0.5,0.5-0.8,0.8
		c-0.4,0.4-0.8,0.8-1.2,1.2c-0.5-1.1-1.1-2.3-1.7-3.4c0.1-0.1,0.2-0.2,0.4-0.4C123.7,466.2,124.4,465.6,125,465z M133.7,472
		c0.3,0.7,0.5,1.4,0.6,2.1c0.1,0.3,0.1,0.7,0.1,1.1c0,0.4,0,0.7,0,1.1c-0.5,0.5-1.2,0.9-2,1.3c-0.3,0.1-0.7,0.3-1,0.3
		c-0.2,0-0.4,0.1-0.6,0.1c0.5-0.5,1-1.2,1.6-2.2C133,474.8,133.4,473.6,133.7,472z M353,473.4L353,473.4
		C353,473.5,353,473.5,353,473.4L353,473.4C353,473.5,353,473.5,353,473.4C353,473.4,353,473.4,353,473.4L353,473.4z M112.7,476.4
		c0.5,0.7,1,1.2,1.4,1.6c0.2,0.2,0.5,0.4,0.7,0.6h0c0.2,0.2,0.4,0.4,0.7,0.5c-0.6,0.3-1.2,0.6-1.8,0.8c-1-1.3-1.5-2.3-1.9-3.3
		C112.1,476.6,112.4,476.5,112.7,476.4z M175.8,539.1c10-0.1,20.1,0.7,30.5,1.7c12.9,1.2,24.9,7.2,37.8,13.2
		c12.9,6,26.8,11.9,43,10.6c46.2-3.5,91.6-13.1,136.1-10.3c-1.9,0.9-3.9,1.9-5.8,2.8c-33,1.3-86.6,4.4-100.3,7.6
		c-8.9,2-19,4.3-29.3,6c-2.4,0.4-4.9,0.8-7.3,1.1c-7.4,1-14.8,1.7-21.9,1.6c-0.7,0-1.4,0-2,0c-0.7,0-1.4,0-2-0.1h0
		c-0.7,0-1.3-0.1-2-0.1h0c-0.7,0-1.3-0.1-2-0.2h0c-0.8-0.1-1.7-0.2-2.5-0.3h0c-0.8-0.1-1.7-0.2-2.5-0.4h0c-0.8-0.1-1.6-0.3-2.5-0.5
		h0c-0.8-0.2-1.6-0.4-2.4-0.6h0c-0.8-0.2-1.6-0.4-2.4-0.7h0c-0.8-0.2-1.6-0.5-2.4-0.8h0c-1.6-0.5-3.2-1.1-4.8-1.7h0
		c-6.4-2.4-12.6-5.5-19-8.4c-3.8-1.7-7.6-3.5-11.5-5h0c-1.6-0.6-3.1-1.2-4.7-1.7h0c-0.8-0.3-1.6-0.5-2.4-0.8h0
		c-3.2-1-6.5-1.8-9.9-2.4h0c-0.8-0.1-1.7-0.3-2.6-0.4h0c-1.7-0.2-3.5-0.3-5.2-0.4h0c-0.9,0-1.8,0-2.7,0c-1,0-1.9,0.1-2.9,0.1
		c-2.3,0.2-4.6,0.4-6.9,0.6c-4.8-2.6-9.5-5.3-14.1-8.1C157.9,539.8,166.8,539.1,175.8,539.1z M178,557.1c1.4,0.1,2.9,0.3,4.3,0.5h0
		c0.7,0.1,1.5,0.3,2.2,0.4h0c0.7,0.2,1.5,0.3,2.2,0.5h0c1.5,0.4,2.9,0.8,4.4,1.2h0c0.7,0.2,1.5,0.5,2.2,0.7h0c1.5,0.5,2.9,1,4.4,1.6
		h0c2.2,0.9,4.4,1.8,6.6,2.8h0c1.5,0.7,2.9,1.3,4.4,2h0c0.8,0.4,1.5,0.7,2.3,1.1c0.9,0.4,1.8,0.8,2.7,1.3c1.1,0.5,2.2,1,3.3,1.5
		c0.6,0.3,1.2,0.6,1.8,0.8c1,0.5,2.1,0.9,3.1,1.4c0.5,0.2,1,0.4,1.6,0.7C207.8,569.3,192.6,563.8,178,557.1z M396.6,565.6
		c-30.8,11.4-64.2,17.6-99,17.6c-12.1,0-24-0.8-35.7-2.2c2.1-0.1,4.2-0.3,6.4-0.5c2.1-0.2,4.3-0.4,6.4-0.7c2.3-0.3,4.6-0.6,6.9-0.9
		c10.7-1.6,27.6-4.8,38.2-7.3c6.5-1.5,20.5-2.8,36.8-3.9c4.9-0.3,10-0.6,15.2-0.9C380.1,566.4,388.5,566,396.6,565.6z"/>
	<g id="g1104">
	</g>
</g>
</svg>
