<?xml version="1.0" encoding="utf-8"?>
<!-- Generator: Adobe Illustrator 24.0.1, SVG Export Plug-In . SVG Version: 6.00 Build 0)  -->
<svg version="1.1"
	 id="svg8" inkscape:export-filename="prenatal.png" inkscape:export-xdpi="12.1" inkscape:export-ydpi="12.1" inkscape:version="1.0 (4035a4fb49, 2020-05-01)" sodipodi:docname="prenatal.svg" xmlns:cc="http://creativecommons.org/ns#" xmlns:dc="http://purl.org/dc/elements/1.1/" xmlns:inkscape="http://www.inkscape.org/namespaces/inkscape" xmlns:rdf="http://www.w3.org/1999/02/22-rdf-syntax-ns#" xmlns:sodipodi="http://sodipodi.sourceforge.net/DTD/sodipodi-0.dtd" xmlns:svg="http://www.w3.org/2000/svg"
	 xmlns="http://www.w3.org/2000/svg" xmlns:xlink="http://www.w3.org/1999/xlink" x="0px" y="0px" viewBox="0 0 595.3 595.3"
	 style="enable-background:new 0 0 595.3 595.3;" xml:space="preserve">
<style type="text/css">
	.st0{fill:#69C8BE;}
</style>
<sodipodi:namedview  bordercolor="#666666" borderopacity="1.0" id="base" inkscape:current-layer="layer1" inkscape:cx="528.53356" inkscape:cy="436.90897" inkscape:document-rotation="0" inkscape:document-units="mm" inkscape:pageopacity="0.0" inkscape:pageshadow="2" inkscape:snap-global="false" inkscape:window-height="1017" inkscape:window-maximized="1" inkscape:window-width="1920" inkscape:window-x="-8" inkscape:window-y="-8" inkscape:zoom="0.7" pagecolor="#ffffff" showgrid="false">
	</sodipodi:namedview>
<g id="layer1" inkscape:groupmode="layer" inkscape:label="Layer 1">
	<path id="path844" class="st0" d="M297.6,0C462,0,595.3,133.3,595.3,297.6S462,595.3,297.6,595.3C133.3,595.3,0,462,0,297.6
		S133.3,0,297.6,0z M408.1,92.7L408.1,92.7c-26-0.1-52.6,10.3-75.1,23.3c-16.5,9.5-29.3,21.3-36.5,38.8c-3.7,9.1-4.5,18.9-3.1,28.8
		c0.9,5.9,0.6,12.3,1.4,18c0.4,3.2,1,6.2,1.8,7.9c1.1,2.5,2.4,2.9,2.1,4.9c-0.7,4.4-4.1,8-7.4,11.1c-1.9,1.8-3.9,3-5.1,5.3
		c-2.4,4.7-1.1,8.3,1.9,11.7c1.6,1.9,4.4,3.4,5.6,5.6c1.7,3,0.6,4.2,0.8,6.6c0.1,1.7,2.3,5.6,3.8,7.4c2,2.5,11.1,6.2,10.1,9.2
		c-0.8,2.4-1.3,4-0.3,6c1.8,3.9,5.4,2.8,8,6.3c2.5,3.3,3,7.8,5.8,10.8c0.9,0.9,2,2.2,3.2,3.4c0.1,0,0.1,0.1,0.2,0.1
		c3.6,2.9,6.1,3.2,10.7,2.6c2.9-0.4,4.9-1.1,6.5-1.6c1.6-0.6,2.6-1.3,4.4-1.2c1.1,0.1,1.9,0.4,2.8,0.8c0.9,0.4,1.8,0.9,2.8,1.4
		c1.9,1,3.9,2,4.9,2.3c2.9,0.7,5.4,0.3,8.1-0.6c2.7-0.9,5.9-2.2,9.5-3.3c3.5-1.2,8.4-1.2,12.7-1.1c4.2,0.1,7.5,0.9,7.5,0.9
		c1.2,0.1,3.6,0.9,3.5,1.7c-0.1,0.7-2.7,1-3.9,0.9c0,0-3.4,0-7.5,0c-4.1-0.1-8.8,0.9-11.1,1.7c-3.2,1-6.1,2.5-9.2,3.6
		c-1,0.3-2.1,0.6-3.2,0.8c-4.4,2.5-12.6,6.3-16,8c-7.1,3.7-16.4,8.3-19.8,12.1c-1,1.1-1.2,2.3-1.4,4.1c-0.3,1.8-0.5,4.3-2.2,6.5
		c-0.7,1-1.6,1.7-2.5,2.3c-1.7,1.1-2.4,0.8-0.5,2.4c5,4.9,10.4,9.4,15.7,14.3c3.1,2.9,2.8,3.7,7,1.3c2.1-1,4.4-2.2,5.9-3.1
		c10.5-6.3,17.5-10.2,25.9-18.8c8.3-8.4,13.4-20.4,23-26.3c4-2.1,7.7-4.1,11.4-4.7c4.2-0.6,8.6-0.5,12.7,0c7.9,1,16.4,3.8,22.4,9.7
		c4.3,4.2,6.6,9.1,7.9,12.9c0.9,2.3,0.6,11-0.6,11c-0.5,0,0-2.4-0.2-4.9c-0.2-2-0.5-4.2-1.1-5.8c-1.1-3.3-4.3-8.1-7.9-11.7
		c-5-4.9-13.7-7.8-20.9-8.7c-7.5-0.9-16.5,1-22.4,5c-9.9,6.6-13.3,18.9-21.2,26.7c-8.9,8.7-16.3,13.1-26.7,19.4
		c-1.5,0.9-3.1,1.8-4.6,2.6c-3.9,2.1-3.9,2.4-1.9,5.2c0.7,1.3,1.2,2.6,1.6,3.9c0.8,3,1,6.1,1.5,9.9c0.1,1.2-0.1,4.5-0.8,4.7
		c-0.9,0.1-1-3-1.2-4.2c-0.4-3.9-1.5-7.2-2.1-9.6c-0.7-2.4-2.6-4.3-5.7-7.3c-5.5-5.4-18-14.7-26.3-24.2c-5.5-6.3-9.8-13-14.8-19.3
		c-2.1-2.7-5.5-7-7.5-9.7c-3.1-4.1-2.6-3.3-0.9-9.2c0.6-2.6,1-5.9,0.7-7.6c-0.5-3.1-3-6.6-5.8-8.3c-1.7-1-3.9-1.2-6.5-1.2
		c-2.7-0.1-5.7,0-8.7-1.4c-2.7-1.2-4.1-3.5-5.5-5.3c-1.3-1.8-3.9-3.9-5.1-4.2c-3.1-0.9-6.1-0.3-7.9,1.7c-1,1.6-1,3.1-2.4,4.3
		c-0.8,0.7-1.8,1-2.7,1.1c-0.9,0-1.7-0.2-2.3-0.3c-1.2-0.4-2.1-0.7-3.3-0.7c-0.5,0-1.1,0.3-1.7,0.7c-1.3,1.2-2.3,2.9-2.3,4.3
		c0.1,1.5,0.1,2.6-1.3,2.2c-4.6-1.6-9.5,2.7-10.5,6.1c-0.6,2-0.2,4.3,0.9,6.4c-1.6,0.2-5.6,1-6.8,2.4c-3.1,3.5-3.9,7-1.3,11.4
		c2.5,4.2,5.5,3.5,8.6,5.9c2.6,2,5,4.8,7.1,7.4c2.5,3,4,4.8,6.6,7c2.8,2.3,6.9,4,9.2,6.8c3.4,4.1,5.1,10.7,8.1,16.7
		c2.6,5.2,6.9,13.9,8.8,17.5c0.2,0.2,4.7,7.6,9.5,15.5c4.9,8.1,13,17.6,18.2,22.6c5.5,5.3,15.1,11.9,23.5,17.1
		c4.2,2.6,8.1,4.8,11,6.4c2,1.2,4.3,2.2,5.9,2.3c1.6,0.1,6.3-1.4,11.3-3.6c5-2.2,10.4-4.9,15.4-6.8c10.6-4,21.5-7,31-12.3
		c14.9-8.4,41.9-31.8,41.9-31.8c0.9-0.8,8.8-7.8,9.6-6.9c0.8,0.9-6.9,7.9-7.8,8.7c0,0-26,24.4-41.9,33.3
		c-10.1,5.7-20.8,9.1-31.1,13.1c-4.6,1.8-10,4.5-15.2,6.7c-5.2,2.3-10.2,4.2-14.8,4c-2.3-0.5-4.5-1.9-6.3-2.8
		c-3-1.6-6.9-3.9-11.2-6.5c-8.5-5.2-18.2-11.8-24.2-17.7c-5.9-5.7-13.9-15.3-18.9-23.5c-3.1-5.1-5.7-9.3-7.5-12.3
		c-2.5,2.4-5.6,5.8-6.6,7.5c-0.1,0.2-0.2,0.3-0.3,0.4c-2.3-1.7-5.4-3.7-8.2-4.4c-3.7-0.9-7.1-5.9-11.8-10.2c-3.7-3.4-9-5.9-11.6-8.8
		c-7.4-8.1-8.2-20.5-13.9-29.9c-5.1-8.4-17-13.6-18.1-23.5c-1.5-12.8,10.5-20,7.7-32.5c-1.9-8.6-7.6-12-12-19.7
		c-6.6-11.6-0.1-27.7-6.4-39.5c-3.7-6.9-16.9-13.1-20.9-19.8c-5.8-9.8-5.3-20.3-12.3-29.3c-7.2-9.3-14.8-8.9-23.3-17.1
		c-9.3-8.9-9.4-26.1-20.3-33.1c-5.9-3.8-15.4-6.3-24.5-8.2c-4.3,5-8.4,10.1-12.3,15.4c9.1,0.9,19.4,2.6,25.4,7.1
		c7.4,5.6,7,14.8,12,22.5c2.8,4.2,4.7,7.8,9.1,10.4c5.3,3,13.5,3.4,17.1,8.3c4.2,5.7,2.5,17.8,5.2,24.4c2.4,5.8,4,6.6,8.6,10.8
		c4.3,3.9,13.9,8.8,16.5,14.1c4.4,8.9-1.5,16.7,0.4,26.5c1.3,6.7,0.2,13.8,4.4,19.2c3.5,4.4,8.4,6.6,11.2,11.5
		c2.3,4,1.6,7.8,0.7,12.3c-1.1,5.1-4.1,8.2-4.4,13.5c-0.1,1.9-0.2,1.7,0.2,3.7c1.6,0.4,3.4,0.8,5,1.9c1.4,1,3,3.3,4.4,5.3
		c1.1,1.6,3.6,7.2,3.6,14.3c2.1,1.5,3.3,2.2,5.1,3.6c3.2,2.5,6.6,5,8.5,8.5c2.3,4.1,0.6,8.1,2,12.6c0.1,0.4,0.2,0.7,0.7,2.4
		c0.5,1.6,2,5.2,3.1,8.3c1.1,3.1,2.5,5.5,4.2,6.6c8.1,5.2,17.8,11.6,22.7,17.4c2,0.4,4,0.8,5.8,1.2c5.3,1.4,11.4,3.4,16.4,4.8
		c5.4,1.5,16.2,3.5,23.4,9.8c5.5,4.8,7.1,9.5,10.7,15c4.8,7.4,9.5,16.4,12.2,24.9c0.4,1.1,1.7,4.9,3,9.3c1.3,4.3,2.6,9.3,3.1,13.3
		c0.7,5.5,1.1,10.8,2.3,16.1c1.7,7.8,3.7,15,3.5,23.5c-0.1,3-0.9,6.7-1.7,9.8c-0.8,3.1-1.6,5.5-1.6,5.5c-1.3,2.9-1.9,1.6-1.2-0.7
		c0,0,0.6-2.5,1.4-5.4c0.8-3,1.3-7.3,1.3-9.5c0.2-7.7-2.7-15.1-4.4-23.1c-1.2-5.6-2.2-10.4-2.8-15.9c-0.4-3.5-2-8.7-3.2-12.9
		c-1.3-4.2-2.8-7.5-3.3-8.9c-2.5-7.9-7.6-16.4-12.2-23.5c-3.8-5.9-5.1-9.9-9.8-14.1c-5.9-5.1-15.9-7.3-21.7-8.9
		c-5.3-1.4-11.3-3.5-16.4-4.8c-15.7-4-44.3-3.8-44.3-3.8l-0.9,0l-0.6-0.6c-2.1-1.9-4.6-3.2-7.4-4.1l-1.3-0.4l-0.3-1.3
		c-0.5-2.2-0.6-3.7-2.5-6.4l-0.5-0.8l0.2-0.9c1-5,0.7-8.5,0.1-12.2c-0.2-1-0.3-1.7,0-2.8c0.5-3.9-0.2-7.7,0.1-11.1
		c0.9-8.2,2.9-14.2,2.4-22.4c-0.4-5.5-1.5-9.6-5.2-13.7c-3.2-3.6-10.1-2-12.7,2.9c-0.6,1.1-1.2,2.1-1.5,3.2
		c-0.9,4.7-0.5,6.3-2.5,1.9c-0.4-0.6-0.9-1.1-1.5-1.4c-1.5-0.9-1.6-3.8-4-5.3c-2.1-1.3-4.8-1.5-7.1-0.5c-2.7,1.2-3,4.2-3.1,4.7
		c-1.7-0.9-4.8-1.6-8.4-0.2c-2.8,2.1-2.4,4.8-2.8,6c-1.7-0.1-6.1-0.7-8.7,2.5c-0.7,0.9-1.6,3.3-1.4,5.3c0.2,1.6,1.8,3,2,4.7
		c-1.3-0.9-5.7-2.2-7.8-0.9c-2.6,1.5-3.8,3.9-4.1,6.9c-0.2,1.5-0.3,2.7,1.7,4.5c2.9,3.5,4.3,5.7,5.7,6.5c-2,4.8-0.1,9.5,1.1,12
		c0.4,1.7,0.9,3.8,1.2,5.6c0.6,1.4,2.1,5.5,2.8,8.1c0.6,2.7,1.1,5.4,1.5,8c0.7,3.9,1,7.7,1.9,11.2c0.8,3.5,4.1,10.6,5.8,13.6
		c2.5,4.4,7.9,8.5,11.9,13c4.8,5.4,7.1,10.7,12.1,14.5c1.4,1.1,2.9,2.1,4.5,3.1c1.8,1.1,3.9,2.3,5.8,3.4c6,3.2,12.4,5.7,18.8,7.8
		c7.3,2.3,15.3,3.6,23.5,4c4.4,0,9.9-0.2,11.9-0.6c1.7-0.3,2.3,0.7,3.1,1.6c0.8,0.8,2.3,2.4,3.1,3.3c1.5,1.6,3.5,4,3,4.5
		c-0.5,0.6-3.4-2-5-3.6c-0.9-0.9-3-2.9-3.8-2.9c-3.2,0.3-6.8,1.1-11.9,1.2c-0.2,1.2-0.5,2.6-0.5,3.8c-0.4,8.4,3,26.9,3.5,29.5
		c3,7.8,5.8,15.7,10.7,22.3c5.7,7.7,12.7,15,21.3,19.2c12.7,6.2,27.6,8.8,41.6,7.5c8-0.7,16-3.7,22.4-8.5c8.7-6.6,11-16.7,15.9-20.4
		c9.8-7.5,21.9-13.1,33.5-21.9c6.3-4.8,10.4-10.5,13.7-13.9c4.1-4.2,9.3-8.1,13.6-12.4c5.9-6,10.5-13.3,15.5-20
		c4.1-5.5,8.8-10.1,13-16.2c9.4-13.6,15.5-25.8,26.1-40.2c6.3-8.6,14.7-21.2,18.4-31.2c3.7-10,4.1-21.4,4.1-32.1
		c0-10.7,0.6-19.9-0.7-30.5c-0.3-2.1-0.8-5.4-0.7-7.6c6.5-8.1,4-12.3,4.9-19.1c0.7-4.8,2.7-9,2.9-13c0.3-5.8-1.4-9.5-0.6-12.5
		c1.8-7.3,14.4-10.5,23.6-42.5c5.3-18.3,3.1-40.3-4.3-57.9c-6.3-15-15.4-28.3-28.3-38.1c-13.2-10.1-33.6-16.7-50.1-17.7
		C411.6,92.7,409.9,92.7,408.1,92.7L408.1,92.7z M284.6,254.1c-2,0-4,0.2-5.4,0.2c-3.9,0-7.4-0.1-11.2,0.8
		c-7,1.6-13.8,6.7-18.1,10.9c-3.3,3.3-5.7,5.4-7.9,9.1c1,0.2,1.7,0.5,2.3,0.6c0.4,0.1,0.5,0.1,0.7,0.1c0-0.2,0.1-0.3,0.1-0.7
		c0.2-1,1-1.9,2.2-3.3c1.6-1.8,3.5-3,5.7-3.3c0.8-0.1,1.5-0.1,2.1-0.1c1.8,0,3,0.4,4.5,0.8c2.9,0.8,6,3.6,7.3,5.5
		c1.4,1.8,2.6,3.3,3.8,3.9c1.8,0.8,4.2,0.9,7,1s5.8,0.1,8.7,1.9c2.6,1.6,4.8,3.9,6.3,6.7c0.9-0.6,2-1.4,3.1-2.2
		c0.9-0.6,2.6,0.3,3.6,0.3c2.5,0.1,5.7-2.9,6.3-5.3c0.9-3.6-0.4-7.5-2.8-10.4c-1.5-1.8-5-3-6.8-4.6c-1.5-1.4-1.5-3.5-2-5.1
		c-0.7-2.4-1.8-4.3-4.3-5.8C288.6,254.3,286.6,254.1,284.6,254.1L284.6,254.1z M294.5,296.1c-0.1,2.1-0.5,4.2-1,6.1
		c-0.6,2.6-1.6,4.3,1.1,6.9c1.9,2.5,4.5,5.9,6.4,8.3c5.1,6.5,9.5,13.1,14.7,19.1c0.3,0.3,0.6,0.7,0.9,1c0.3-0.2,0.7-0.3,1.1-0.6
		c1.3-0.7,2.7-1.7,2.9-2.1c0.9-1.2,1.1-2.6,1.3-4.5c0.3-1.9,0.6-4.4,2.6-6.5c3.9-4.3,12.1-9.3,18.5-13.9c3.4-2.4,7.4-5.4,5.9-6.8
		c-0.3-0.3-0.8-0.4-1.2-0.6c-1.3-0.6-2.1-0.2-3.9,0.5c-1.7,0.6-4.1,1.4-7.4,1.9c-4.8,0.7-9.2,0.1-13.2-2.9c-3.8,1-8.2,1.9-16.9,4.6
		c-4.4,1.4-3.6,1.6-6.2-2.6C298.6,301.7,296.4,298.7,294.5,296.1z M78.7,337.8c-0.7,0-1.4,0-2.1,0.1c-2.7,0.2-4.6,1.8-5.8,3.8
		c-3.2-0.3-7.8,2.6-7.7,7.1c-3.2,0.9-4.4,1.4-6,3.9c-2,3-2.1,5.3-1,9c-3.1,0.3-5.1,1.5-6.3,4.1c-1.1,2.4-1.3,4.4-0.3,8.4
		c-2.3,1.6-2.9,1.7-3.4,4.3c-0.6,3.3-0.2,5.6,1.9,8.1c1.4,1.6,4.8,2.4,7.5,3.4c1.3,5.1,3.9,9,7.5,11.3c3,2,5.6,2.6,8.4,4.9
		c3.8,3.1,7.4,8.9,10.8,12.4c4.2,4.2,7.6,8.1,12.2,11.8c3.6,2.9,8.1,6.5,12.4,8.3c7.4,3.2,15.4,5.1,23.5,5.9
		c6.3,0.6,17.1,0.2,23.6-0.1c-3.8-3.8-6.7-8-9.9-11.7c-3.6-4.1-9.3-8.2-12.4-13.7c-1.9-3.4-4.1-11-5-14.7c-1-3.9-1.3-7.8-1.9-11.4
		c-0.5-2.7-0.9-5.3-1.5-7.8c-0.5-2.2-2.8-8.1-2.8-8.1c-1-2.4-0.9-4.5-2.3-7c-2.4-3.4-4.8-6.6-6.3-8.5c-3.8-4.9-4.5-5.4-8.5-10.1
		c-3.7-4.3-6.4-9-11.4-11.6c-2.9-1.5-5-1.1-8.2-1.7C83.1,338,80.9,337.8,78.7,337.8L78.7,337.8z M194.5,363.6c-2.5,0-6,0.6-9.1,1.4
		c0.7,4,1.3,9.1,0.2,14.8c1.3,2.3,2,4.3,2.3,5.9c2.5,0.9,4.9,2.1,7,3.8c0.6,0,16.3-0.2,31.2,1.5c-4.8-4-11.4-8.6-17.3-12.3
		c-3.2-2-4.8-5.5-6.1-9c-0.7-2-1.5-4.1-2.3-6C198.8,363.6,197.1,363.6,194.5,363.6L194.5,363.6z M194.6,464.7
		c0.5,0.6,0.9,1.2,1.4,1.8c4.1,5,8.5,9.8,12.1,15.2c-0.4-2.9-0.7-6.5-0.5-10.4c0.1-1.8,0.4-3.6,0.7-5
		C204.1,466.1,199.4,465.6,194.6,464.7z"/>
</g>
</svg>
